<svg width="256" height="256" viewBox="0 0 256 256" fill="none" xmlns="http://www.w3.org/2000/svg">
<rect width="256" height="256" fill="white"/>
<path d="M66.4775 133.609V75.293H52.0306V102.609C34.771 94.0964 17 105.912 17 125.351C17 139.199 24.9266 151.523 39.8849 151.142C46.4052 151.015 52.0306 147.712 54.8433 141.613V142.884C55.0989 151.396 64.0484 151.523 71.2079 149.871L71.0801 140.597C66.6054 141.105 66.4775 138.437 66.4775 133.609ZM52.542 127.256C52.542 133.228 48.5787 138.437 42.3141 138.437C34.6431 138.437 31.4469 132.338 31.4469 125.224C31.4469 112.9 42.3141 108.58 52.6698 114.552V127.256H52.542Z" fill="black"/>
<path d="M104.065 114.551H89.7461V128.781H104.065V114.551Z" fill="#482683"/>
<path d="M143.467 101.356C147.034 101.356 150.327 102.157 153.348 103.758C156.369 105.36 159.026 107.652 161.319 110.637V106.269C161.319 104.923 161.573 103.977 162.083 103.431C162.629 102.848 163.52 102.557 164.758 102.557H173.438C174.675 102.557 175.549 102.848 176.058 103.431C176.604 103.977 176.877 104.923 176.877 106.269C176.877 107.616 176.604 108.58 176.058 109.163C175.549 109.709 174.675 109.982 173.438 109.982H168.961V154.638C168.961 158.969 168.033 162.681 166.177 165.774C164.357 168.904 161.701 171.288 158.207 172.926C154.713 174.564 150.509 175.383 145.596 175.383C142.102 175.383 138.572 175.073 135.005 174.455C131.439 173.872 128.109 173.017 125.015 171.889C123.596 171.379 122.886 170.415 122.886 168.995C122.886 168.413 123.031 167.685 123.323 166.812C123.978 164.81 125.015 163.809 126.434 163.809C126.835 163.809 127.235 163.882 127.635 164.028C130.474 165.047 133.459 165.847 136.588 166.43C139.718 167.012 142.721 167.303 145.596 167.303C150.619 167.303 154.404 166.102 156.951 163.7C159.499 161.334 160.773 158.077 160.773 153.928V142.955C156.26 148.633 150.491 151.471 143.467 151.471C138.954 151.471 134.914 150.471 131.348 148.469C127.781 146.431 124.979 143.519 122.94 139.734C120.902 135.949 119.883 131.509 119.883 126.414C119.883 121.319 120.902 116.878 122.94 113.093C124.979 109.308 127.781 106.415 131.348 104.413C134.914 102.375 138.954 101.356 143.467 101.356ZM144.013 109.436C140.774 109.436 137.99 110.164 135.66 111.619C133.331 113.039 131.548 115.041 130.31 117.625C129.109 120.172 128.509 123.102 128.509 126.414C128.509 129.726 129.109 132.674 130.31 135.258C131.548 137.805 133.331 139.807 135.66 141.263C137.99 142.682 140.774 143.392 144.013 143.392C147.252 143.392 150.127 142.719 152.638 141.372C155.186 140.025 157.17 138.078 158.589 135.531C160.045 132.947 160.773 129.908 160.773 126.414C160.773 122.92 160.045 119.899 158.589 117.352C157.17 114.768 155.186 112.802 152.638 111.456C150.127 110.109 147.252 109.436 144.013 109.436ZM205.682 101.356C210.668 101.356 215.163 102.484 219.166 104.741C223.17 106.997 226.299 110.145 228.556 114.185C230.849 118.189 231.995 122.72 231.995 127.779C231.995 132.837 230.849 137.387 228.556 141.427C226.299 145.43 223.17 148.56 219.166 150.816C215.163 153.073 210.668 154.201 205.682 154.201C200.696 154.201 196.201 153.073 192.198 150.816C188.194 148.56 185.046 145.43 182.753 141.427C180.497 137.387 179.369 132.837 179.369 127.779C179.369 122.72 180.497 118.189 182.753 114.185C185.046 110.145 188.194 106.997 192.198 104.741C196.201 102.484 200.696 101.356 205.682 101.356ZM205.682 109.436C202.152 109.436 199.04 110.218 196.347 111.783C193.69 113.312 191.634 115.477 190.178 118.28C188.722 121.046 187.994 124.212 187.994 127.779C187.994 131.345 188.722 134.53 190.178 137.332C191.634 140.098 193.69 142.264 196.347 143.829C199.04 145.357 202.152 146.121 205.682 146.121C209.212 146.121 212.306 145.357 214.963 143.829C217.656 142.264 219.73 140.098 221.186 137.332C222.642 134.53 223.37 131.345 223.37 127.779C223.37 124.212 222.642 121.046 221.186 118.28C219.73 115.477 217.656 113.312 214.963 111.783C212.306 110.218 209.212 109.436 205.682 109.436Z" fill="#006CFA"/>
</svg>
