<svg xmlns="http://www.w3.org/2000/svg" xmlns:xlink="http://www.w3.org/1999/xlink" width="1920" zoomAndPan="magnify" viewBox="0 0 1440 809.999993" height="1080" preserveAspectRatio="xMidYMid meet" version="1.0"><defs><clipPath id="a0e5a7f608"><path d="M 1432.578125 336.367188 L 1440 336.367188 L 1440 473.617188 L 1432.578125 473.617188 Z M 1432.578125 336.367188 " clip-rule="nonzero"/></clipPath></defs><g clip-path="url(#a0e5a7f608)"><path fill="#231f20" d="M 1687.226562 376.679688 C 1687.277344 376.644531 1687.332031 376.613281 1687.386719 376.578125 C 1687.289062 375.109375 1687.191406 373.636719 1687.089844 372.082031 C 1686.257812 372.972656 1686.257812 372.972656 1685.957031 374.320312 C 1686.367188 375.085938 1686.796875 375.882812 1687.226562 376.679688 Z M 1660.703125 373.546875 C 1660.773438 375.128906 1660.835938 376.515625 1660.914062 378.226562 C 1661.515625 377.273438 1661.984375 376.542969 1662.457031 375.796875 C 1661.847656 375.011719 1661.316406 374.335938 1660.703125 373.546875 Z M 1582.695312 444.105469 C 1582.914062 441.324219 1582.808594 435.144531 1582.519531 433.914062 C 1581.617188 435.945312 1580.761719 437.882812 1579.878906 439.867188 C 1580.832031 441.308594 1581.710938 442.628906 1582.695312 444.105469 Z M 1552.265625 427.460938 C 1552.667969 432.433594 1553.042969 437.015625 1553.441406 441.933594 C 1554.878906 440.242188 1555.710938 438.359375 1556.753906 436.671875 C 1555.28125 433.648438 1553.851562 430.71875 1552.265625 427.460938 Z M 1674.640625 354.859375 C 1676.015625 357.007812 1677.414062 359.039062 1678.675781 361.203125 C 1680.539062 364.386719 1682.300781 367.667969 1684.109375 370.902344 C 1684.324219 371.28125 1684.570312 371.628906 1684.875 372.105469 C 1685.4375 371.03125 1685.898438 370.109375 1686.398438 369.21875 C 1686.789062 368.515625 1686.953125 367.777344 1686.9375 366.910156 C 1686.90625 364.773438 1686.824219 362.625 1686.953125 360.5 C 1687.097656 358.105469 1687.347656 355.707031 1687.742188 353.359375 C 1688.117188 351.125 1689.066406 349.199219 1690.414062 347.617188 C 1692.511719 345.152344 1696.15625 345.464844 1697.769531 348.976562 C 1698.0625 349.621094 1698.347656 350.269531 1698.675781 350.996094 C 1700.277344 348.046875 1702.933594 347.023438 1705.113281 345.007812 C 1701.316406 342.890625 1697.480469 341.855469 1693.414062 341.816406 C 1691.179688 341.796875 1689.074219 342.132812 1687.039062 343.222656 C 1685.4375 344.082031 1683.753906 344.800781 1682.28125 345.941406 C 1679.277344 348.273438 1676.84375 351.441406 1674.640625 354.859375 Z M 1697.53125 395.847656 C 1697.613281 395.816406 1697.695312 395.78125 1697.777344 395.746094 C 1697.742188 394.933594 1697.714844 394.117188 1697.660156 393.300781 C 1697.433594 389.972656 1697.023438 386.640625 1697.007812 383.3125 C 1696.980469 377.113281 1697.175781 370.917969 1697.285156 364.722656 C 1697.339844 361.707031 1697.503906 358.6875 1697.429688 355.679688 C 1697.386719 354.011719 1697.105469 352.28125 1696.648438 350.710938 C 1695.738281 347.589844 1693.121094 346.929688 1691.285156 349.316406 C 1690.667969 350.117188 1690.214844 351.195312 1689.886719 352.242188 C 1689.039062 354.929688 1688.847656 357.796875 1688.847656 360.644531 C 1688.847656 364.703125 1688.957031 368.761719 1689.125 372.8125 C 1689.226562 375.273438 1689.554688 377.714844 1689.746094 380.167969 C 1689.828125 381.25 1690.179688 382.148438 1690.652344 383.03125 C 1692.738281 386.902344 1694.789062 390.792969 1696.859375 394.675781 C 1697.070312 395.074219 1697.304688 395.457031 1697.53125 395.847656 Z M 1533.574219 465.925781 C 1533.839844 466.140625 1534.011719 466.308594 1534.203125 466.429688 C 1539.886719 469.933594 1545.78125 471.011719 1551.96875 468.875 C 1557.128906 467.089844 1561.472656 463.578125 1565.359375 459.078125 C 1565.808594 458.558594 1566.246094 457.996094 1566.769531 457.609375 C 1567.484375 457.074219 1567.953125 456.335938 1568.351562 455.316406 C 1564.597656 450.355469 1561.277344 444.910156 1558.125 439.304688 C 1558.078125 439.222656 1557.972656 439.199219 1557.871094 439.132812 C 1557.527344 439.691406 1557.097656 440.207031 1556.851562 440.828125 C 1556.230469 442.386719 1555.269531 443.601562 1554.273438 444.742188 C 1553.671875 445.429688 1553.535156 446.125 1553.589844 447.050781 C 1553.667969 448.414062 1553.746094 449.789062 1553.714844 451.160156 C 1553.644531 454.070312 1553.40625 456.957031 1552.492188 459.691406 C 1551.871094 461.550781 1550.988281 463.167969 1549.59375 464.25 C 1547.9375 465.535156 1546.21875 465.714844 1544.460938 464.589844 C 1543.332031 463.867188 1542.503906 462.753906 1541.90625 461.367188 C 1541.707031 460.910156 1541.503906 460.457031 1541.261719 459.910156 C 1539.058594 462.71875 1536.449219 464.484375 1533.574219 465.925781 Z M 1542.46875 408.59375 C 1542.394531 408.617188 1542.320312 408.640625 1542.242188 408.664062 C 1542.304688 409.808594 1542.425781 410.953125 1542.425781 412.097656 C 1542.433594 423.335938 1542.425781 434.574219 1542.414062 445.8125 C 1542.40625 449.210938 1542.285156 452.613281 1542.75 455.984375 C 1543.011719 457.894531 1543.449219 459.730469 1544.503906 461.222656 C 1545.714844 462.933594 1547.46875 463.082031 1548.824219 461.566406 C 1549.238281 461.097656 1549.660156 460.546875 1549.890625 459.925781 C 1550.382812 458.59375 1550.882812 457.222656 1551.144531 455.804688 C 1551.96875 451.320312 1551.804688 446.757812 1551.605469 442.214844 C 1551.386719 437.234375 1551.171875 432.253906 1551.414062 427.269531 C 1551.464844 426.171875 1551.28125 425.242188 1550.800781 424.332031 C 1548.175781 419.339844 1545.574219 414.332031 1542.957031 409.332031 C 1542.816406 409.066406 1542.632812 408.835938 1542.46875 408.59375 Z M 1592.324219 456.078125 C 1592.324219 455.027344 1592.332031 454.375 1592.320312 453.71875 C 1592.242188 448.019531 1592.144531 442.320312 1592.078125 436.617188 C 1592.042969 433.273438 1592.019531 429.925781 1592.046875 426.578125 C 1592.089844 421.808594 1592.214844 417.039062 1592.238281 412.265625 C 1592.246094 409.6875 1592.03125 407.121094 1591.464844 404.625 C 1591.109375 403.082031 1590.578125 401.648438 1589.675781 400.464844 C 1588.207031 398.523438 1586.371094 398.738281 1585.34375 401.089844 C 1584.910156 402.082031 1584.597656 403.207031 1584.414062 404.316406 C 1583.859375 407.609375 1583.859375 410.960938 1583.941406 414.308594 C 1584.007812 417.054688 1584.074219 419.792969 1584.132812 422.535156 C 1584.289062 429.273438 1584.445312 436.015625 1584.585938 442.757812 C 1584.613281 444.003906 1584.59375 445.25 1584.59375 446.734375 C 1586.789062 449.875 1589.320312 452.96875 1592.324219 456.078125 Z M 1651.328125 362.117188 C 1651.214844 362.179688 1651.101562 362.242188 1650.988281 362.308594 C 1650.964844 362.898438 1650.941406 363.488281 1650.921875 364.078125 C 1650.65625 371.53125 1650.355469 378.984375 1650.128906 386.4375 C 1649.960938 391.972656 1649.828125 397.515625 1649.796875 403.054688 C 1649.785156 404.785156 1650.074219 406.542969 1650.359375 408.253906 C 1650.519531 409.191406 1650.863281 410.136719 1651.28125 410.953125 C 1652.320312 412.960938 1654.089844 413.46875 1655.761719 412.316406 C 1656.859375 411.554688 1657.71875 410.472656 1658.324219 409.089844 C 1659.136719 407.230469 1659.546875 405.21875 1659.773438 403.144531 C 1660.1875 399.371094 1660 395.589844 1659.910156 391.804688 C 1659.757812 385.5 1659.65625 379.191406 1659.5625 372.886719 C 1659.554688 372.363281 1659.53125 371.929688 1659.214844 371.550781 C 1656.582031 368.410156 1653.953125 365.261719 1651.328125 362.117188 Z M 1639.777344 351.230469 C 1639.851562 372.097656 1639.609375 392.527344 1640.261719 413.324219 C 1641.0625 412.167969 1641.652344 411.308594 1642.246094 410.453125 C 1643.855469 408.136719 1645.46875 405.828125 1647.089844 403.519531 C 1647.445312 403.011719 1647.679688 402.5 1647.699219 401.773438 C 1647.851562 395.464844 1648.027344 389.164062 1648.214844 382.859375 C 1648.289062 380.394531 1648.433594 377.929688 1648.515625 375.460938 C 1648.675781 370.53125 1648.800781 365.597656 1648.96875 360.667969 C 1648.992188 360.039062 1648.824219 359.632812 1648.453125 359.269531 C 1647.445312 358.296875 1646.472656 357.269531 1645.445312 356.324219 C 1643.648438 354.675781 1641.824219 353.066406 1639.777344 351.230469 Z M 1540.679688 457.484375 C 1540.574219 455.285156 1540.421875 453.265625 1540.398438 451.242188 C 1540.375 449.324219 1540.515625 447.40625 1540.527344 445.488281 C 1540.5625 440.273438 1540.601562 435.0625 1540.574219 429.851562 C 1540.535156 423.269531 1540.4375 416.6875 1540.34375 410.105469 C 1540.328125 408.789062 1540.046875 407.453125 1540.175781 406.171875 C 1540.300781 404.9375 1539.953125 404.117188 1539.398438 403.230469 C 1536.511719 398.601562 1533.652344 393.945312 1530.777344 389.300781 C 1530.601562 389.011719 1530.382812 388.765625 1530 388.257812 C 1530.042969 389.109375 1530.046875 389.644531 1530.101562 390.171875 C 1530.246094 391.582031 1530.457031 392.984375 1530.578125 394.402344 C 1531.246094 402.152344 1531.570312 409.925781 1531.660156 417.722656 C 1531.765625 426.9375 1531.835938 436.152344 1531.96875 445.367188 C 1532.054688 451.347656 1532.222656 457.324219 1531.625 463.28125 C 1531.613281 463.421875 1531.6875 463.582031 1531.71875 463.722656 C 1534.445312 463.4375 1536.453125 462.15625 1540.679688 457.484375 Z M 1529.257812 462.832031 C 1529.382812 461.957031 1529.492188 461.488281 1529.511719 461.015625 C 1529.613281 458.496094 1529.769531 455.972656 1529.765625 453.453125 C 1529.746094 445.714844 1529.59375 437.976562 1529.617188 430.238281 C 1529.644531 418.765625 1529.636719 407.300781 1528.730469 395.863281 C 1528.425781 392.046875 1528.140625 388.230469 1527.21875 384.539062 C 1526.949219 383.480469 1526.636719 382.492188 1526.085938 381.605469 C 1524.441406 378.960938 1522.832031 376.285156 1521.203125 373.628906 C 1520.929688 373.175781 1520.617188 372.757812 1520.160156 372.09375 C 1520.296875 375.242188 1520.425781 378.03125 1520.53125 380.820312 C 1520.800781 387.945312 1521.070312 395.070312 1521.328125 402.199219 C 1521.632812 410.695312 1521.921875 419.191406 1522.222656 427.6875 C 1522.324219 430.648438 1522.445312 433.609375 1522.546875 436.570312 C 1522.769531 442.921875 1522.984375 449.28125 1523.1875 455.636719 C 1523.210938 456.324219 1523.292969 456.941406 1523.753906 457.394531 C 1525.507812 459.121094 1527.257812 460.855469 1529.257812 462.832031 Z M 1498.066406 348.160156 C 1498.207031 349.921875 1498.363281 351.390625 1498.4375 352.863281 C 1498.625 356.585938 1498.78125 360.3125 1498.941406 364.035156 C 1499.207031 370.277344 1499.472656 376.519531 1499.722656 382.765625 C 1499.996094 389.671875 1500.265625 396.574219 1500.503906 403.480469 C 1500.78125 411.476562 1500.96875 419.476562 1501.601562 427.449219 C 1501.664062 428.246094 1501.847656 428.933594 1502.257812 429.550781 C 1504.304688 432.628906 1506.34375 435.722656 1508.390625 438.804688 C 1508.597656 439.121094 1508.871094 439.375 1509.246094 439.808594 C 1509.246094 439.023438 1509.261719 438.476562 1509.242188 437.9375 C 1509.089844 433.496094 1508.933594 429.0625 1508.773438 424.621094 C 1508.503906 417.113281 1508.234375 409.601562 1507.957031 402.09375 C 1507.710938 395.191406 1507.421875 388.285156 1507.210938 381.382812 C 1506.980469 373.761719 1506.8125 366.140625 1506.632812 358.515625 C 1506.613281 357.867188 1506.675781 357.199219 1506.804688 356.574219 C 1506.949219 355.863281 1506.757812 355.441406 1506.304688 355.054688 C 1503.800781 352.929688 1501.308594 350.785156 1498.808594 348.648438 C 1498.628906 348.5 1498.429688 348.398438 1498.066406 348.160156 Z M 1735.226562 379.804688 C 1735.226562 380.636719 1735.222656 381.234375 1735.230469 381.828125 C 1735.289062 386.710938 1735.34375 391.589844 1735.40625 396.472656 C 1735.5 403.488281 1735.597656 410.507812 1735.6875 417.523438 C 1735.777344 424.375 1735.878906 431.222656 1735.941406 438.074219 C 1736.003906 445.351562 1736.304688 452.640625 1735.65625 460 C 1737.472656 461.726562 1739.402344 463.3125 1741.699219 464.519531 C 1742.292969 463.789062 1742.894531 463.089844 1743.460938 462.34375 C 1744.03125 461.589844 1744.828125 460.890625 1745.042969 459.984375 C 1745.257812 459.101562 1744.8125 457.992188 1744.753906 456.972656 C 1744.617188 454.621094 1744.46875 452.265625 1744.445312 449.910156 C 1744.351562 440.261719 1744.324219 430.613281 1744.226562 420.960938 C 1744.140625 412.191406 1744 403.417969 1743.875 394.644531 C 1743.867188 394.164062 1743.855469 393.609375 1743.667969 393.226562 C 1742.867188 391.597656 1742.074219 389.9375 1741.128906 388.4375 C 1739.503906 385.851562 1737.765625 383.375 1736.066406 380.863281 C 1735.851562 380.542969 1735.59375 380.265625 1735.226562 379.804688 Z M 1605.46875 394.585938 C 1603.589844 397.453125 1601.871094 400.007812 1600.222656 402.625 C 1598.785156 404.90625 1597.230469 407.074219 1596.125 409.664062 C 1595.710938 410.621094 1595.167969 411.519531 1594.578125 412.316406 C 1594.113281 412.945312 1593.972656 413.589844 1593.96875 414.390625 C 1593.941406 421.195312 1593.847656 428 1593.859375 434.804688 C 1593.871094 439.523438 1594.03125 444.238281 1594.09375 448.953125 C 1594.128906 451.851562 1594.097656 454.75 1594.097656 457.894531 C 1595.382812 458.921875 1596.800781 460.011719 1598.175781 461.171875 C 1599.210938 462.039062 1600.34375 462.132812 1601.464844 461.777344 C 1603.695312 461.070312 1605.710938 459.777344 1607.53125 457.871094 C 1605.972656 453.25 1605.769531 448.386719 1605.746094 443.488281 C 1605.734375 441.675781 1605.746094 439.867188 1605.738281 438.054688 C 1605.71875 426.53125 1605.707031 415.007812 1605.664062 403.480469 C 1605.652344 400.632812 1605.542969 397.789062 1605.46875 394.585938 Z M 1721.222656 441.316406 C 1721.320312 441.261719 1721.417969 441.207031 1721.519531 441.152344 C 1721.519531 440.554688 1721.523438 439.957031 1721.519531 439.359375 C 1721.433594 428.773438 1721.347656 418.1875 1721.257812 407.605469 C 1721.183594 398.941406 1721.085938 390.273438 1721.03125 381.609375 C 1720.992188 376.234375 1721.027344 370.859375 1720.992188 365.484375 C 1720.984375 363.566406 1720.996094 361.65625 1721.445312 359.714844 C 1718.589844 356.078125 1715.5 352.824219 1712.007812 349.890625 C 1712.007812 350.375 1712 350.644531 1712.007812 350.914062 C 1712.074219 353.980469 1712.175781 357.050781 1712.207031 360.117188 C 1712.289062 369.058594 1712.34375 377.996094 1712.410156 386.9375 C 1712.457031 394.121094 1712.488281 401.308594 1712.546875 408.488281 C 1712.566406 410.734375 1712.683594 412.980469 1712.710938 415.226562 C 1712.753906 418.507812 1712.769531 421.796875 1712.761719 425.078125 C 1712.757812 425.953125 1712.980469 426.671875 1713.359375 427.371094 C 1714.882812 430.1875 1716.363281 433.042969 1717.921875 435.828125 C 1718.96875 437.707031 1720.117188 439.488281 1721.222656 441.316406 Z M 1627.636719 355.050781 C 1627.273438 355.425781 1627.023438 355.636719 1626.820312 355.902344 C 1625.898438 357.078125 1624.992188 358.265625 1624.078125 359.453125 C 1623.59375 360.085938 1623.089844 360.695312 1622.648438 361.371094 C 1622.007812 362.339844 1621.410156 363.359375 1620.800781 364.355469 C 1620.1875 365.355469 1619.507812 366.304688 1618.988281 367.375 C 1618.640625 368.097656 1618.328125 369 1618.339844 369.8125 C 1618.425781 376.007812 1618.523438 382.203125 1618.753906 388.394531 C 1619.039062 396.128906 1619.007812 403.84375 1618.761719 411.582031 C 1618.425781 422.210938 1618.300781 432.851562 1618.09375 443.484375 C 1618.066406 444.898438 1618.089844 446.3125 1618.089844 447.773438 C 1618.3125 447.699219 1618.417969 447.703125 1618.476562 447.640625 C 1618.78125 447.328125 1619.089844 447.011719 1619.371094 446.671875 C 1622.28125 443.160156 1625.039062 439.484375 1627.21875 435.203125 C 1627.4375 434.773438 1627.566406 434.195312 1627.566406 433.6875 C 1627.59375 430.777344 1627.589844 427.871094 1627.550781 424.964844 C 1627.472656 418.769531 1627.285156 412.570312 1627.285156 406.378906 C 1627.289062 400.675781 1627.527344 394.972656 1627.574219 389.273438 C 1627.601562 385.273438 1627.429688 381.265625 1627.445312 377.265625 C 1627.46875 370.519531 1627.570312 363.777344 1627.636719 357.03125 C 1627.644531 356.441406 1627.636719 355.851562 1627.636719 355.050781 Z M 1710.800781 348.847656 C 1710.105469 348.324219 1709.261719 347.734375 1708.464844 347.070312 C 1707.890625 346.585938 1707.378906 346.597656 1706.75 346.929688 C 1704.09375 348.328125 1701.667969 350.121094 1699.664062 352.757812 C 1699.226562 353.332031 1699.0625 353.867188 1699.152344 354.65625 C 1699.273438 355.738281 1699.339844 356.84375 1699.316406 357.933594 C 1699.238281 361.332031 1699.058594 364.730469 1699.011719 368.128906 C 1698.914062 375.257812 1698.84375 382.390625 1698.828125 389.519531 C 1698.824219 392.421875 1698.972656 395.328125 1699.097656 398.230469 C 1699.121094 398.746094 1699.292969 399.296875 1699.515625 399.738281 C 1703.042969 406.816406 1706.589844 413.882812 1710.132812 420.949219 C 1710.332031 421.34375 1710.570312 421.714844 1710.902344 422.285156 C 1710.929688 421.714844 1710.960938 421.394531 1710.960938 421.070312 C 1710.972656 417.617188 1710.996094 414.164062 1710.984375 410.707031 C 1710.96875 405.109375 1710.941406 399.511719 1710.902344 393.917969 C 1710.832031 382.613281 1710.742188 371.308594 1710.691406 360.003906 C 1710.675781 356.394531 1710.757812 352.785156 1710.800781 348.847656 Z M 1507.941406 356.808594 C 1508.117188 359.445312 1508.328125 361.894531 1508.445312 364.347656 C 1508.671875 369.167969 1508.847656 373.988281 1509.035156 378.808594 C 1509.144531 381.601562 1509.230469 384.402344 1509.339844 387.191406 C 1509.652344 395.191406 1509.984375 403.191406 1510.285156 411.191406 C 1510.511719 417.160156 1510.695312 423.136719 1510.902344 429.113281 C 1510.992188 431.578125 1511.113281 434.042969 1511.1875 436.507812 C 1511.214844 437.425781 1511.1875 438.351562 1511.132812 439.269531 C 1511.019531 441.128906 1511.132812 442.800781 1512.386719 444.191406 C 1514 445.972656 1515.453125 447.96875 1517.003906 449.832031 C 1518.199219 451.269531 1519.441406 452.640625 1520.816406 454.21875 C 1520.859375 453.304688 1520.9375 452.65625 1520.914062 452.011719 C 1520.558594 441.488281 1520.195312 430.964844 1519.828125 420.445312 C 1519.535156 412.003906 1519.242188 403.5625 1518.945312 395.121094 C 1518.847656 392.328125 1518.804688 389.527344 1518.632812 386.738281 C 1518.277344 381.007812 1518.433594 375.246094 1517.898438 369.527344 C 1517.832031 368.816406 1517.710938 368.285156 1517.339844 367.785156 C 1514.664062 364.140625 1511.886719 360.636719 1508.789062 357.546875 C 1508.5625 357.320312 1508.308594 357.128906 1507.941406 356.808594 Z M 1616.785156 410.152344 C 1616.808594 410.152344 1616.828125 410.152344 1616.851562 410.152344 C 1616.851562 409.332031 1616.84375 408.507812 1616.851562 407.683594 C 1616.886719 404.0625 1617.011719 400.441406 1616.941406 396.824219 C 1616.785156 389.144531 1616.527344 381.46875 1616.316406 373.792969 C 1616.28125 372.53125 1616.34375 371.257812 1616.234375 370.007812 C 1616.035156 367.777344 1615.859375 365.527344 1615.441406 363.355469 C 1615.195312 362.066406 1614.636719 360.785156 1613.988281 359.722656 C 1612.894531 357.929688 1611.648438 357.929688 1610.445312 359.585938 C 1609.953125 360.265625 1609.523438 361.082031 1609.257812 361.929688 C 1608.875 363.144531 1608.589844 364.425781 1608.390625 365.710938 C 1607.800781 369.496094 1607.679688 373.347656 1607.660156 377.183594 C 1607.617188 385.300781 1607.722656 393.425781 1607.75 401.546875 C 1607.792969 413.402344 1607.800781 425.253906 1607.859375 437.109375 C 1607.882812 441.167969 1607.984375 445.230469 1608.125 449.285156 C 1608.203125 451.480469 1608.597656 453.632812 1609.226562 455.695312 C 1609.6875 457.195312 1610.296875 458.601562 1611.3125 459.632812 C 1612.757812 461.101562 1614.261719 460.710938 1615.152344 458.667969 C 1615.671875 457.476562 1615.808594 456.183594 1615.816406 454.847656 C 1615.824219 454.140625 1615.886719 453.429688 1615.945312 452.730469 C 1616.011719 451.972656 1616.179688 451.222656 1616.179688 450.472656 C 1616.179688 445.3125 1616.050781 440.152344 1616.144531 435 C 1616.289062 426.714844 1616.566406 418.433594 1616.785156 410.152344 Z M 1629.621094 344.566406 C 1629.597656 345.195312 1629.570312 345.667969 1629.5625 346.140625 C 1629.503906 350.527344 1629.4375 354.917969 1629.386719 359.304688 C 1629.335938 364.351562 1629.269531 369.398438 1629.265625 374.445312 C 1629.265625 380.644531 1629.375 386.84375 1629.351562 393.039062 C 1629.335938 397.976562 1629.109375 402.914062 1629.128906 407.847656 C 1629.160156 416.296875 1629.304688 424.742188 1629.410156 433.191406 C 1629.421875 434.179688 1629.433594 435.167969 1629.503906 436.152344 C 1629.632812 437.96875 1629.910156 439.734375 1630.828125 441.242188 C 1631.609375 442.53125 1632.652344 443.132812 1633.925781 442.9375 C 1635.488281 442.699219 1636.753906 441.757812 1637.621094 440.105469 C 1638.324219 438.761719 1638.777344 437.292969 1638.976562 435.6875 C 1639.386719 432.351562 1639.265625 429.015625 1639.097656 425.671875 C 1638.871094 421.074219 1638.554688 416.480469 1638.445312 411.878906 C 1638.296875 405.683594 1638.273438 399.484375 1638.261719 393.289062 C 1638.246094 387.914062 1638.328125 382.539062 1638.351562 377.160156 C 1638.386719 370.355469 1638.402344 363.554688 1638.421875 356.75 C 1638.425781 355.050781 1638.398438 353.347656 1638.433594 351.648438 C 1638.453125 350.65625 1638.148438 350.003906 1637.4375 349.546875 C 1635.140625 348.066406 1632.855469 346.542969 1630.5625 345.042969 C 1630.300781 344.875 1630.011719 344.761719 1629.621094 344.566406 Z M 1722.402344 361.027344 C 1722.527344 365.332031 1722.667969 369.484375 1722.753906 373.640625 C 1722.855469 378.464844 1722.917969 383.292969 1722.980469 388.117188 C 1723.074219 395.191406 1723.152344 402.265625 1723.234375 409.339844 C 1723.351562 419.207031 1723.472656 429.078125 1723.59375 438.941406 C 1723.613281 440.535156 1723.660156 442.125 1723.6875 443.714844 C 1723.699219 444.625 1723.914062 445.40625 1724.40625 446.109375 C 1727.238281 450.160156 1730.117188 454.152344 1733.375 457.6875 C 1733.726562 458.070312 1734.109375 458.414062 1734.566406 458.867188 C 1734.417969 455.773438 1734.191406 452.875 1734.164062 449.984375 C 1734.101562 444.441406 1734.1875 438.90625 1734.152344 433.363281 C 1734.109375 426.132812 1734 418.898438 1733.929688 411.667969 C 1733.820312 400.480469 1733.714844 389.292969 1733.636719 378.101562 C 1733.628906 377.386719 1733.484375 376.847656 1733.117188 376.324219 C 1732.417969 375.339844 1731.757812 374.316406 1731.070312 373.320312 C 1728.460938 369.542969 1725.851562 365.769531 1723.234375 362 C 1723.007812 361.675781 1722.734375 361.414062 1722.402344 361.027344 Z M 1603.023438 463.992188 C 1603.804688 464.324219 1604.335938 464.585938 1604.882812 464.777344 C 1611.902344 467.257812 1618.773438 466.625 1625.515625 463.230469 C 1631.019531 460.457031 1635.730469 456.210938 1639.980469 451.113281 C 1643.785156 446.542969 1647.285156 441.621094 1650.773438 436.675781 C 1654.375 431.558594 1657.742188 426.214844 1660.738281 420.523438 C 1665.414062 411.644531 1670.074219 402.753906 1674.746094 393.855469 C 1673.539062 391.273438 1664.503906 378.175781 1663.359375 377.332031 C 1662.683594 378.347656 1661.992188 379.332031 1661.359375 380.375 C 1661.171875 380.6875 1661.0625 381.15625 1661.0625 381.554688 C 1661.089844 383.417969 1661.175781 385.28125 1661.230469 387.148438 C 1661.351562 391.3125 1661.539062 395.480469 1661.558594 399.648438 C 1661.570312 402.164062 1661.328125 404.6875 1660.691406 407.109375 C 1660.070312 409.492188 1659.164062 411.679688 1657.632812 413.351562 C 1655.132812 416.070312 1651.714844 415.648438 1649.785156 412.324219 C 1649.179688 411.28125 1648.777344 410.027344 1648.414062 408.808594 C 1648.117188 407.804688 1648.007812 406.714844 1647.777344 405.441406 C 1647.40625 406.066406 1647.125 406.539062 1646.839844 407.011719 C 1646.234375 408.019531 1645.714844 409.132812 1645.003906 410.007812 C 1643.371094 412.03125 1642.042969 414.34375 1640.707031 416.65625 C 1640.546875 416.933594 1640.441406 417.34375 1640.453125 417.683594 C 1640.5 419.160156 1640.621094 420.636719 1640.675781 422.117188 C 1640.808594 425.679688 1640.972656 429.238281 1641.027344 432.800781 C 1641.0625 434.949219 1640.683594 437.058594 1640.058594 439.0625 C 1639.222656 441.742188 1637.804688 443.75 1635.601562 444.765625 C 1632.539062 446.171875 1629.578125 444.464844 1628.445312 440.660156 C 1628.273438 440.074219 1628.121094 439.472656 1627.925781 438.75 C 1625.109375 443.628906 1621.925781 447.800781 1618.15625 451.359375 C 1618.183594 452.195312 1618.242188 453.070312 1618.246094 453.945312 C 1618.265625 456.289062 1617.902344 458.550781 1616.914062 460.550781 C 1615.429688 463.558594 1612.582031 464.238281 1610.292969 462.175781 C 1609.625 461.574219 1609.0625 460.792969 1608.402344 460.035156 C 1606.941406 461.738281 1605.195312 462.96875 1603.023438 463.992188 Z M 1593.941406 408.875 C 1594.707031 407.65625 1595.332031 406.671875 1595.945312 405.679688 C 1597.050781 403.902344 1598.128906 402.109375 1599.246094 400.335938 C 1601.03125 397.5 1602.796875 394.636719 1604.65625 391.875 C 1605.238281 391.007812 1605.492188 390.1875 1605.476562 389.074219 C 1605.4375 385.675781 1605.441406 382.273438 1605.476562 378.867188 C 1605.519531 374.589844 1605.652344 370.3125 1606.261719 366.085938 C 1606.617188 363.59375 1607.171875 361.164062 1608.421875 359.09375 C 1610.589844 355.503906 1613.921875 355.566406 1616.007812 359.234375 C 1616.238281 359.636719 1616.460938 360.058594 1616.605469 360.511719 C 1616.960938 361.628906 1617.269531 362.765625 1617.609375 363.894531 C 1617.691406 364.160156 1617.8125 364.40625 1617.960938 364.785156 C 1619.203125 362.863281 1620.246094 360.933594 1621.539062 359.316406 C 1623.304688 357.113281 1625.230469 355.101562 1627.152344 353.105469 C 1627.6875 352.550781 1627.917969 352.046875 1627.945312 351.203125 C 1628.011719 348.8125 1628.148438 346.421875 1628.261719 344.03125 C 1624.449219 343.339844 1622.816406 343.441406 1619.386719 344.417969 C 1614.359375 345.851562 1610.15625 349.097656 1606.4375 353.453125 C 1603.160156 357.296875 1600.277344 361.585938 1597.558594 366.035156 C 1590.570312 377.464844 1584.148438 389.394531 1577.59375 401.207031 C 1575.292969 405.355469 1573.210938 409.683594 1571.011719 413.917969 C 1570.179688 415.519531 1569.292969 417.082031 1568.394531 418.730469 C 1571.578125 425.148438 1574.667969 431.570312 1578.472656 437.507812 C 1579.578125 435.308594 1580.585938 433.199219 1581.683594 431.160156 C 1582.457031 429.730469 1582.789062 428.234375 1582.605469 426.523438 C 1582.542969 425.933594 1582.574219 425.320312 1582.570312 424.714844 C 1582.550781 419.0625 1582.484375 413.414062 1582.535156 407.761719 C 1582.5625 405.121094 1582.921875 402.503906 1584.023438 400.167969 C 1585.492188 397.046875 1587.929688 396.355469 1590.285156 398.425781 C 1590.878906 398.949219 1591.394531 399.671875 1591.824219 400.410156 C 1592.605469 401.753906 1593.070312 403.300781 1593.347656 404.925781 C 1593.558594 406.152344 1593.71875 407.394531 1593.941406 408.875 Z M 1486.605469 339.550781 C 1486.597656 339.652344 1486.585938 339.746094 1486.574219 339.84375 C 1487.03125 339.996094 1487.488281 340.167969 1487.949219 340.304688 C 1491.648438 341.378906 1495.171875 343.046875 1498.492188 345.339844 C 1504.726562 349.644531 1510.234375 355.160156 1515.351562 361.304688 C 1518.273438 364.808594 1520.835938 368.722656 1523.320312 372.699219 C 1528.730469 381.347656 1534.109375 390.023438 1539.476562 398.710938 C 1544.125 406.226562 1548.492188 413.988281 1552.417969 422.128906 C 1555.046875 427.578125 1557.652344 433.050781 1560.417969 438.394531 C 1564.296875 445.894531 1568.875 452.683594 1574.277344 458.566406 C 1577.679688 462.265625 1581.382812 465.382812 1585.664062 467.289062 C 1588.621094 468.601562 1591.6875 469.21875 1594.8125 469.519531 C 1598.691406 469.898438 1602.515625 469.519531 1606.570312 468.601562 C 1605.972656 468.375 1605.597656 468.242188 1605.226562 468.085938 C 1603.777344 467.476562 1602.289062 466.953125 1600.875 466.21875 C 1595.855469 463.609375 1591.582031 459.605469 1587.679688 454.949219 C 1582.875 449.203125 1578.601562 442.867188 1574.648438 436.203125 C 1573.527344 434.308594 1572.476562 432.34375 1571.429688 430.378906 C 1570.355469 428.371094 1569.257812 426.378906 1568.296875 424.285156 C 1567.371094 422.253906 1566.226562 420.40625 1565.285156 418.378906 C 1563.382812 414.304688 1561.25 410.398438 1559.199219 406.4375 C 1552.820312 394.136719 1545.84375 382.355469 1538.894531 370.550781 C 1536.03125 365.6875 1533.066406 360.929688 1529.667969 356.609375 C 1524.445312 349.976562 1518.246094 345.585938 1510.964844 343.550781 C 1505.988281 342.164062 1500.984375 341.023438 1495.914062 340.371094 C 1492.820312 339.96875 1489.707031 339.816406 1486.605469 339.550781 Z M 1745.359375 469.203125 C 1745.363281 469.113281 1745.367188 469.027344 1745.371094 468.9375 C 1744.71875 468.71875 1744.0625 468.511719 1743.414062 468.273438 C 1739.28125 466.785156 1735.742188 463.980469 1732.488281 460.554688 C 1729.558594 457.46875 1726.917969 454.015625 1724.394531 450.421875 C 1723.761719 449.515625 1723.171875 448.496094 1722.394531 447.839844 C 1721.46875 447.066406 1721.304688 445.769531 1720.703125 444.785156 C 1718.082031 440.519531 1715.472656 436.230469 1713.097656 431.753906 C 1709.046875 424.117188 1705.226562 416.289062 1701.210938 408.617188 C 1694.789062 396.359375 1688.320312 384.136719 1681.796875 371.960938 C 1679.5 367.675781 1677.09375 363.476562 1674.542969 359.429688 C 1670.757812 353.429688 1665.792969 349.539062 1659.902344 347.480469 C 1656.210938 346.195312 1652.441406 345.425781 1648.640625 344.921875 C 1645.238281 344.472656 1641.824219 344.082031 1638.414062 343.714844 C 1636.640625 343.519531 1634.863281 343.429688 1633.085938 343.292969 C 1633.359375 343.761719 1633.683594 344.007812 1634.019531 344.234375 C 1635.757812 345.410156 1637.574219 346.433594 1639.21875 347.78125 C 1642.042969 350.101562 1644.816406 352.523438 1647.507812 355.082031 C 1653.566406 360.847656 1659.097656 367.355469 1664.265625 374.339844 C 1670.652344 382.972656 1676.820312 391.855469 1682.039062 401.65625 C 1686.019531 409.144531 1689.746094 416.851562 1693.492188 424.539062 C 1697.375 432.507812 1701.210938 440.507812 1705.535156 448.121094 C 1708.285156 452.960938 1711.089844 457.738281 1714.53125 461.867188 C 1717.449219 465.375 1720.726562 468.148438 1724.675781 469.558594 C 1727.492188 470.566406 1730.367188 470.828125 1733.277344 470.824219 C 1736.757812 470.820312 1740.195312 470.214844 1743.628906 469.628906 C 1744.210938 469.53125 1744.78125 469.347656 1745.359375 469.203125 Z M 1673.253906 353.296875 C 1673.703125 352.675781 1674.09375 352.160156 1674.460938 351.621094 C 1679.863281 343.707031 1686.703125 339.1875 1694.957031 337.894531 C 1699.816406 337.132812 1704.675781 337.140625 1709.550781 337.542969 C 1715.257812 338.015625 1720.894531 339.066406 1726.46875 340.625 C 1731.210938 341.945312 1735.753906 343.921875 1739.804688 347.394531 C 1742.769531 349.941406 1745.308594 353.046875 1747.429688 356.640625 C 1749.851562 360.75 1752.125 364.992188 1754.492188 369.148438 C 1758.871094 376.832031 1763.285156 384.492188 1767.660156 392.183594 C 1768.769531 394.136719 1769.773438 396.183594 1770.828125 398.191406 C 1770.753906 398.265625 1770.675781 398.339844 1770.601562 398.417969 C 1770.34375 398.0625 1770.074219 397.714844 1769.824219 397.347656 C 1769.566406 396.976562 1769.320312 396.589844 1769.078125 396.199219 C 1762.339844 385.4375 1755.722656 374.5625 1749.605469 363.226562 C 1748.207031 360.640625 1746.652344 358.175781 1745.054688 355.769531 C 1740.820312 349.394531 1735.378906 345.386719 1729 343.277344 C 1725.257812 342.042969 1721.453125 341.238281 1717.621094 340.625 C 1713.085938 339.898438 1708.527344 339.5625 1703.960938 339.441406 C 1701.8125 339.382812 1699.660156 339.585938 1697.488281 339.859375 C 1698.140625 340.03125 1698.792969 340.199219 1699.441406 340.371094 C 1702.511719 341.179688 1705.402344 342.597656 1708.171875 344.421875 C 1714.707031 348.722656 1720.1875 354.679688 1725.183594 361.386719 C 1730.160156 368.066406 1734.550781 375.34375 1738.984375 382.574219 C 1740.90625 385.707031 1742.90625 388.796875 1744.570312 392.136719 C 1747.589844 398.203125 1751.203125 403.730469 1754.386719 409.644531 C 1755.332031 411.40625 1756.203125 413.238281 1757.109375 415.039062 C 1757.035156 415.117188 1756.960938 415.199219 1756.886719 415.28125 C 1756.53125 414.816406 1756.132812 414.390625 1755.824219 413.878906 C 1753.242188 409.582031 1750.671875 405.273438 1748.105469 400.957031 C 1747.273438 399.558594 1746.472656 398.136719 1745.519531 396.488281 C 1745.488281 397.117188 1745.453125 397.425781 1745.457031 397.738281 C 1745.570312 406.734375 1745.652344 415.738281 1745.824219 424.734375 C 1745.980469 433.074219 1746.265625 441.40625 1746.4375 449.742188 C 1746.488281 452.257812 1746.347656 454.785156 1746.300781 457.304688 C 1746.292969 457.613281 1746.296875 457.917969 1746.296875 458.621094 C 1749.566406 453.085938 1752.648438 447.867188 1755.71875 442.667969 C 1756.390625 443.105469 1756.292969 443.664062 1756.136719 444.183594 C 1755.59375 445.976562 1755.019531 447.75 1754.109375 449.328125 C 1753.492188 450.394531 1752.929688 451.507812 1752.324219 452.582031 C 1751.515625 454.015625 1750.691406 455.4375 1749.867188 456.855469 C 1749.503906 457.476562 1749.132812 458.089844 1748.738281 458.675781 C 1747.980469 459.8125 1747.21875 460.9375 1746.441406 462.046875 C 1745.660156 463.148438 1744.863281 464.226562 1743.96875 465.457031 C 1744.292969 465.632812 1744.464844 465.757812 1744.65625 465.824219 C 1749.644531 467.53125 1754.414062 466.820312 1758.882812 463.566406 C 1762.335938 461.046875 1764.933594 457.441406 1766.980469 453.179688 C 1767.789062 451.496094 1768.664062 449.859375 1769.65625 447.90625 C 1769.6875 448.550781 1769.738281 448.886719 1769.710938 449.210938 C 1769.546875 451.1875 1769.183594 453.074219 1768.425781 454.855469 C 1765.339844 462.085938 1760.714844 466.835938 1754.304688 468.78125 C 1754.050781 468.859375 1753.792969 468.941406 1753.546875 469.058594 C 1748.953125 471.265625 1744.101562 471.898438 1739.28125 472.699219 C 1736.9375 473.085938 1734.558594 473.25 1732.191406 473.300781 C 1724.398438 473.464844 1717.808594 469.929688 1712.316406 463.050781 C 1708.699219 458.515625 1705.65625 453.40625 1702.917969 448.035156 C 1698.367188 439.105469 1693.933594 430.078125 1689.484375 421.0625 C 1685.59375 413.171875 1681.75 405.234375 1677.292969 397.800781 C 1677.035156 397.367188 1676.757812 396.953125 1676.375 396.355469 C 1675.855469 397.175781 1675.351562 397.847656 1674.960938 398.609375 C 1671.472656 405.332031 1667.96875 412.042969 1664.539062 418.808594 C 1660.21875 427.320312 1655.265625 435.207031 1649.734375 442.535156 C 1646.089844 447.371094 1642.542969 452.320312 1638.503906 456.664062 C 1632.765625 462.828125 1626.296875 467.152344 1618.78125 468.824219 C 1616.96875 469.230469 1615.171875 469.730469 1613.359375 470.136719 C 1612.628906 470.300781 1611.878906 470.332031 1611.136719 470.417969 C 1610.917969 470.441406 1610.695312 470.402344 1610.476562 470.449219 C 1608.636719 470.8125 1606.796875 471.21875 1604.949219 471.5625 C 1597.847656 472.882812 1590.847656 472.546875 1584.050781 469.363281 C 1579.378906 467.167969 1575.390625 463.601562 1571.730469 459.421875 C 1571.25 458.871094 1570.769531 458.3125 1570.285156 457.75 C 1569.449219 458.691406 1568.695312 459.585938 1567.898438 460.421875 C 1567.398438 460.949219 1566.828125 461.363281 1566.304688 461.855469 C 1564.550781 463.503906 1562.875 465.296875 1561.039062 466.789062 C 1556.027344 470.863281 1550.558594 472.878906 1544.5 472.894531 C 1540.292969 472.910156 1536.078125 473.003906 1531.863281 473.074219 C 1529.011719 473.128906 1526.152344 473.082031 1523.296875 473.003906 C 1519.742188 472.902344 1516.195312 472.550781 1512.710938 471.570312 C 1507.316406 470.046875 1502.84375 466.515625 1498.980469 461.683594 C 1495.898438 457.824219 1493.257812 453.511719 1490.742188 449.070312 C 1487.648438 443.605469 1484.558594 438.132812 1481.410156 432.714844 C 1478.003906 426.855469 1474.441406 421.144531 1470.597656 415.507812 C 1471.136719 415.5625 1471.386719 416 1471.675781 416.300781 C 1475.136719 419.898438 1478.195312 423.960938 1480.816406 428.542969 C 1484.214844 434.484375 1487.609375 440.421875 1491.089844 446.285156 C 1493.886719 451.003906 1496.84375 455.558594 1500.113281 459.804688 C 1504.710938 465.785156 1510.261719 469.285156 1516.875 470.085938 C 1519.144531 470.355469 1521.425781 470.59375 1523.703125 470.65625 C 1527.261719 470.757812 1530.820312 470.703125 1534.378906 470.707031 C 1534.796875 470.707031 1535.214844 470.660156 1535.882812 470.621094 C 1534.605469 469.828125 1533.539062 469.207031 1532.496094 468.519531 C 1528.121094 465.609375 1524.265625 461.789062 1520.640625 457.621094 C 1517.3125 453.792969 1514.039062 449.875 1510.898438 445.8125 C 1503.496094 436.234375 1496.976562 425.769531 1491.335938 414.46875 C 1490.027344 411.847656 1488.957031 409.117188 1488.527344 405.871094 C 1489.101562 406.644531 1489.621094 407.308594 1490.105469 408.011719 C 1490.59375 408.714844 1491.101562 409.40625 1491.515625 410.175781 C 1493.898438 414.585938 1496.253906 419.015625 1498.632812 423.433594 C 1498.890625 423.917969 1499.207031 424.359375 1499.492188 424.816406 C 1499.578125 424.78125 1499.660156 424.738281 1499.746094 424.699219 C 1499.628906 423.371094 1499.507812 422.042969 1499.390625 420.714844 C 1499.34375 420.226562 1499.277344 419.738281 1499.261719 419.246094 C 1499.058594 413.492188 1498.875 407.734375 1498.664062 401.980469 C 1498.347656 393.15625 1497.984375 384.328125 1497.683594 375.503906 C 1497.445312 368.324219 1497.265625 361.140625 1497.085938 353.957031 C 1497.03125 351.824219 1497.078125 349.6875 1497.078125 347.589844 C 1495.207031 345.699219 1493.105469 345.910156 1491.015625 346.433594 C 1489.242188 346.875 1487.613281 347.871094 1486.042969 348.988281 C 1479.796875 353.414062 1474.613281 359.296875 1470.398438 366.570312 C 1467.878906 370.925781 1465.179688 375.121094 1462.621094 379.441406 C 1459.605469 384.53125 1456.246094 389.234375 1452.53125 393.527344 C 1450.558594 395.800781 1448.445312 397.847656 1445.953125 399.304688 C 1446.15625 399.011719 1446.335938 398.683594 1446.570312 398.4375 C 1449.199219 395.664062 1451.460938 392.441406 1453.746094 389.253906 C 1456.09375 385.988281 1458.375 382.652344 1460.605469 379.257812 C 1462.355469 376.585938 1463.984375 373.785156 1465.664062 371.039062 C 1468.292969 366.71875 1470.789062 362.257812 1473.832031 358.359375 C 1477.136719 354.128906 1480.886719 350.613281 1485.03125 347.757812 C 1486.921875 346.457031 1488.867188 345.320312 1491.070312 345.097656 C 1491.371094 345.070312 1491.664062 344.929688 1492.203125 344.769531 C 1491.65625 344.503906 1491.324219 344.328125 1490.984375 344.179688 C 1488.015625 342.902344 1484.953125 342.167969 1481.820312 342.0625 C 1479.675781 341.988281 1477.523438 342.144531 1475.375 342.269531 C 1474.867188 342.300781 1474.351562 342.5625 1473.871094 342.816406 C 1471.304688 344.167969 1468.957031 345.976562 1466.761719 348.113281 C 1462.894531 351.878906 1459.582031 356.339844 1456.378906 360.945312 C 1452.285156 366.832031 1448.136719 372.65625 1443.421875 377.789062 C 1440.605469 380.851562 1437.71875 383.8125 1434.863281 386.816406 C 1434.164062 387.554688 1433.457031 388.285156 1432.578125 388.871094 C 1432.703125 388.585938 1432.789062 388.253906 1432.964844 388.027344 C 1434.613281 385.820312 1436.210938 383.550781 1437.945312 381.457031 C 1444.046875 374.082031 1449.78125 366.292969 1455.160156 358.082031 C 1457.742188 354.128906 1460.574219 350.449219 1463.660156 347.078125 C 1470.28125 339.84375 1478.015625 336.542969 1486.757812 336.515625 C 1492.316406 336.5 1497.792969 337.335938 1503.265625 338.417969 C 1507.085938 339.175781 1510.875 340.089844 1514.574219 341.523438 C 1519.894531 343.582031 1524.667969 346.851562 1528.851562 351.460938 C 1532.730469 355.726562 1536.042969 360.632812 1539.121094 365.785156 C 1546.738281 378.539062 1554.324219 391.328125 1561.261719 404.695312 C 1562.957031 407.964844 1564.609375 411.269531 1566.285156 414.554688 C 1566.535156 415.050781 1566.800781 415.539062 1567.164062 416.234375 C 1567.976562 414.753906 1568.734375 413.484375 1569.402344 412.148438 C 1571.492188 407.960938 1573.410156 403.632812 1575.648438 399.574219 C 1581.347656 389.21875 1587.148438 378.953125 1592.988281 368.71875 C 1596 363.445312 1599.21875 358.359375 1602.882812 353.757812 C 1604.492188 351.742188 1606.1875 349.8125 1607.96875 348.039062 C 1612.8125 343.214844 1618.472656 341.121094 1624.566406 340.597656 C 1630.238281 340.113281 1635.894531 340.53125 1641.535156 341.210938 C 1645.644531 341.707031 1649.75 342.246094 1653.839844 342.921875 C 1657.328125 343.5 1660.734375 344.570312 1664.027344 346.167969 C 1666.964844 347.589844 1669.636719 349.542969 1672.054688 352.058594 C 1672.390625 352.410156 1672.730469 352.757812 1673.253906 353.296875 " fill-opacity="1" fill-rule="nonzero"/></g><path fill="#ffffff" d="M 706.199219 291.941406 C 706.199219 291.941406 689.53125 271.25 674.589844 264.355469 C 674.589844 264.355469 709.652344 202.859375 783.789062 182.742188 C 783.789062 182.742188 809.078125 202.28125 813.675781 240.792969 C 813.675781 240.792969 833.214844 245.964844 833.214844 259.183594 L 809.652344 270.675781 C 809.652344 270.675781 764.820312 262.054688 759.074219 263.777344 C 753.328125 265.503906 757.351562 286.191406 762.523438 289.640625 C 762.523438 289.640625 760.796875 296.539062 757.351562 299.414062 C 757.351562 299.414062 768.84375 322.976562 798.730469 310.332031 C 798.730469 310.332031 782.0625 345.964844 824.019531 355.164062 C 824.019531 355.164062 848.15625 348.265625 851.605469 316.082031 C 851.605469 316.082031 823.441406 318.378906 820.570312 322.402344 C 820.570312 322.402344 814.246094 317.804688 837.238281 313.78125 C 837.238281 313.78125 840.683594 310.332031 828.042969 299.414062 L 836.664062 298.835938 L 838.960938 274.699219 C 838.960938 274.699219 891.835938 286.769531 905.058594 327.574219 C 905.058594 327.574219 934.367188 412.058594 869.425781 594.824219 C 869.425781 594.824219 826.320312 603.445312 797.582031 593.097656 C 797.582031 593.097656 795.855469 566.664062 799.878906 563.210938 L 818.847656 552.292969 C 818.847656 552.292969 781.488281 486.769531 792.984375 474.703125 C 792.984375 474.703125 803.902344 464.355469 806.777344 458.03125 C 806.777344 458.03125 790.683594 466.078125 784.363281 466.078125 C 784.363281 466.078125 776.894531 436.191406 762.523438 414.929688 C 762.523438 414.929688 797.007812 558.609375 782.640625 598.269531 C 782.640625 598.269531 686.082031 625.855469 691.257812 585.050781 C 691.257812 585.050781 690.683594 570.105469 705.625 557.464844 C 705.625 557.464844 679.1875 527.578125 678.039062 523.554688 C 678.039062 523.554688 656.199219 511.484375 672.292969 462.054688 C 688.382812 412.628906 672.867188 460.90625 672.867188 460.90625 C 672.867188 460.90625 563.089844 360.328125 633.785156 281.019531 C 633.785156 281.019531 661.945312 247.683594 706.203125 291.9375 Z M 706.199219 291.941406 " fill-opacity="1" fill-rule="nonzero"/><path fill="#ffffff" d="M 767.121094 276.421875 L 821.71875 276.421875 L 832.0625 271.824219 C 832.0625 271.824219 827.464844 287.917969 825.167969 289.066406 C 825.167969 289.066406 812.523438 289.640625 805.628906 285.042969 C 805.628906 285.042969 792.410156 295.386719 788.386719 295.964844 C 788.386719 295.964844 768.847656 287.34375 767.121094 276.425781 Z M 767.121094 276.421875 " fill-opacity="1" fill-rule="nonzero"/><path fill="#ffffff" d="M 810.800781 292.515625 L 814.25 300.5625 C 814.25 300.5625 817.125 305.160156 810.800781 305.160156 L 806.203125 305.160156 L 806.203125 294.816406 C 806.203125 294.816406 808.5 292.519531 809.652344 292.519531 " fill-opacity="1" fill-rule="nonzero"/><path fill="#ffffff" d="M 813.679688 292.515625 L 818.851562 301.710938 L 825.746094 300.5625 C 825.746094 300.5625 820.574219 293.089844 813.679688 292.515625 Z M 813.679688 292.515625 " fill-opacity="1" fill-rule="nonzero"/><path fill="#ffffff" d="M 610.21875 386.773438 C 610.21875 386.773438 636.082031 439.648438 661.945312 462.0625 L 657.921875 495.394531 C 657.921875 495.394531 644.703125 491.945312 643.554688 493.097656 C 642.40625 494.246094 606.773438 564.359375 607.347656 568.382812 C 607.347656 568.382812 619.417969 573.554688 619.417969 577.578125 L 620.566406 589.648438 C 620.566406 589.648438 556.769531 595.96875 538.378906 589.648438 C 538.378906 589.648438 518.839844 567.808594 534.355469 520.683594 C 534.355469 520.683594 561.941406 489.648438 562.515625 479.300781 C 562.515625 479.300781 567.691406 461.484375 559.070312 439.648438 C 558.496094 438.496094 545.277344 382.171875 610.21875 386.773438 Z M 610.21875 386.773438 " fill-opacity="1" fill-rule="nonzero"/><path fill="#ffffff" d="M 659.074219 504.023438 C 659.074219 504.023438 658.5 523.5625 694.132812 555.171875 C 694.132812 555.171875 678.042969 577.585938 681.488281 584.480469 L 665.394531 582.183594 C 665.394531 582.183594 654.476562 547.699219 654.476562 544.25 C 654.476562 544.25 662.523438 536.78125 663.671875 532.757812 C 663.671875 532.757812 634.933594 515.515625 645.855469 504.019531 C 648.730469 502.292969 659.074219 502.292969 659.074219 504.019531 Z M 659.074219 504.023438 " fill-opacity="1" fill-rule="nonzero"/></svg>