<svg xmlns="http://www.w3.org/2000/svg" xmlns:xlink="http://www.w3.org/1999/xlink" width="1920" zoomAndPan="magnify" viewBox="0 0 1440 809.999993" height="1080" preserveAspectRatio="xMidYMid meet" version="1.0"><defs><clipPath id="3d4f370eec"><path d="M 425 80 L 1046 80 L 1046 695 L 425 695 Z M 425 80 " clip-rule="nonzero"/></clipPath><clipPath id="b08cdb7e56"><path d="M 826.261719 11.574219 L 1074.316406 198.335938 L 613.730469 810.082031 L 365.679688 623.320312 Z M 826.261719 11.574219 " clip-rule="nonzero"/></clipPath><clipPath id="13019d876e"><path d="M 826.261719 11.574219 L 1074.316406 198.335938 L 613.730469 810.082031 L 365.679688 623.320312 Z M 826.261719 11.574219 " clip-rule="nonzero"/></clipPath><clipPath id="60a2cc4cc3"><path d="M 826.261719 11.574219 L 1074.316406 198.335938 L 613.730469 810.082031 L 365.679688 623.320312 Z M 826.261719 11.574219 " clip-rule="nonzero"/></clipPath></defs><g clip-path="url(#3d4f370eec)"><g clip-path="url(#b08cdb7e56)"><g clip-path="url(#13019d876e)"><g clip-path="url(#60a2cc4cc3)"><path fill="#231f20" d="M 785.285156 217.628906 C 785.296875 217.484375 785.316406 217.34375 785.320312 217.203125 C 782.535156 215.375 779.738281 213.546875 776.792969 211.617188 C 777.269531 214.332031 777.269531 214.332031 779.289062 216.714844 C 781.234375 217.007812 783.257812 217.320312 785.285156 217.628906 Z M 743.507812 261.332031 C 746.464844 263.355469 749.058594 265.128906 752.253906 267.320312 C 751.355469 264.933594 750.667969 263.09375 749.964844 261.226562 C 747.71875 261.257812 745.773438 261.296875 743.507812 261.332031 Z M 764.808594 498.425781 C 760.074219 494.242188 748.769531 486.023438 746.148438 484.878906 C 748.59375 489.269531 750.925781 493.457031 753.316406 497.753906 C 757.21875 497.984375 760.800781 498.191406 764.808594 498.425781 Z M 693.292969 530.8125 C 702.824219 536.84375 711.617188 542.40625 721.050781 548.378906 C 719.949219 543.480469 717.683594 539.40625 716.050781 535.222656 C 708.578125 533.773438 701.335938 532.375 693.292969 530.8125 Z M 728.710938 210.699219 C 734.46875 211.136719 740.050781 211.367188 745.675781 212.027344 C 753.964844 212.996094 762.289062 214.273438 770.601562 215.402344 C 771.578125 215.53125 772.546875 215.558594 773.824219 215.652344 C 772.648438 213.175781 771.601562 211.089844 770.671875 208.972656 C 769.941406 207.308594 768.820312 206.007812 767.238281 204.855469 C 763.332031 202.007812 759.339844 199.234375 755.671875 196.109375 C 751.542969 192.589844 747.550781 188.871094 743.847656 184.960938 C 740.316406 181.246094 738.125 176.910156 737.105469 172.320312 C 735.507812 165.167969 741.035156 159 749.574219 160.867188 C 751.140625 161.210938 752.703125 161.578125 754.464844 161.972656 C 751.3125 155.058594 753.078125 148.863281 752.40625 142.179688 C 743.410156 146.167969 736.3125 151.695312 730.707031 159 C 727.625 163.007812 725.367188 167.28125 724.570312 172.445312 C 723.9375 176.507812 722.941406 180.53125 723.003906 184.75 C 723.125 193.351562 725.535156 202.058594 728.710938 210.699219 Z M 833.960938 225.074219 C 834.011719 224.882812 834.0625 224.679688 834.117188 224.488281 C 832.59375 223.449219 831.078125 222.386719 829.535156 221.378906 C 823.210938 217.25 816.628906 213.464844 810.589844 208.957031 C 799.351562 200.582031 788.421875 191.792969 777.371094 183.164062 C 772 178.964844 766.769531 174.554688 761.230469 170.601562 C 758.152344 168.410156 754.648438 166.558594 751.183594 165.25 C 744.308594 162.648438 739.546875 166.484375 741.363281 173.050781 C 741.972656 175.257812 743.300781 177.539062 744.742188 179.5625 C 748.445312 184.753906 753.367188 189.003906 758.511719 192.878906 C 765.851562 198.394531 773.332031 203.726562 780.886719 208.933594 C 785.46875 212.089844 790.332031 214.824219 795.023438 217.820312 C 797.09375 219.140625 799.191406 219.730469 801.433594 220.074219 C 811.265625 221.574219 821.09375 223.15625 830.929688 224.695312 C 831.9375 224.851562 832.949219 224.949219 833.960938 225.074219 Z M 737.355469 616.957031 C 738.101562 616.761719 738.644531 616.679688 739.121094 616.5 C 753.195312 610.988281 763.171875 601.796875 767.730469 587.695312 C 771.535156 575.9375 771.101562 563.304688 768.261719 550.15625 C 767.929688 548.628906 767.511719 547.070312 767.523438 545.601562 C 767.53125 543.578125 766.835938 541.726562 765.539062 539.621094 C 751.457031 539.660156 737.097656 538.25 722.667969 536.332031 C 722.464844 536.304688 722.277344 536.460938 722.011719 536.554688 C 722.558594 537.941406 722.90625 539.410156 723.691406 540.707031 C 725.664062 543.953125 726.550781 547.335938 727.253906 550.691406 C 727.675781 552.71875 728.75 553.914062 730.492188 555.070312 C 733.070312 556.785156 735.660156 558.511719 738.089844 560.433594 C 743.261719 564.519531 748.152344 568.886719 751.851562 574.253906 C 754.367188 577.910156 756.082031 581.703125 756.140625 585.703125 C 756.207031 590.445312 754.191406 593.800781 749.765625 595.441406 C 746.917969 596.503906 743.785156 596.484375 740.457031 595.683594 C 739.363281 595.421875 738.265625 595.171875 736.953125 594.863281 C 739.023438 602.671875 738.664062 609.796875 737.355469 616.957031 Z M 645.855469 522.855469 C 645.792969 523.019531 645.734375 523.1875 645.675781 523.359375 C 647.824219 524.800781 650.0625 526.144531 652.128906 527.703125 C 672.449219 542.980469 692.75 558.285156 713.042969 573.601562 C 719.171875 578.234375 725.164062 583.082031 731.886719 586.832031 C 735.695312 588.957031 739.609375 590.664062 743.738281 590.789062 C 748.480469 590.925781 751.132812 587.957031 750.242188 583.445312 C 749.960938 582.050781 749.542969 580.542969 748.730469 579.28125 C 746.992188 576.574219 745.199219 573.808594 742.988281 571.410156 C 736.011719 563.8125 727.535156 557.902344 719.050781 552.078125 C 709.753906 545.699219 700.460938 539.3125 691.78125 532.089844 C 689.871094 530.503906 687.9375 529.574219 685.644531 529.203125 C 673.042969 527.15625 660.449219 525.046875 647.847656 522.980469 C 647.179688 522.871094 646.515625 522.890625 645.855469 522.855469 Z M 799.550781 497.300781 C 797.65625 495.871094 796.488281 494.96875 795.289062 494.09375 C 784.878906 486.484375 774.445312 478.90625 764.050781 471.265625 C 757.960938 466.78125 751.878906 462.265625 745.871094 457.660156 C 737.296875 451.09375 728.851562 444.378906 720.257812 437.84375 C 715.609375 434.316406 710.679688 431.214844 705.394531 428.84375 C 702.121094 427.386719 698.808594 426.398438 695.4375 426.414062 C 689.933594 426.433594 687.824219 430.042969 690.675781 435.105469 C 691.875 437.242188 693.480469 439.332031 695.234375 441.175781 C 700.4375 446.65625 706.492188 451.214844 712.65625 455.625 C 717.703125 459.238281 722.746094 462.847656 727.78125 466.46875 C 740.171875 475.359375 752.570312 484.253906 764.945312 493.167969 C 767.238281 494.816406 769.460938 496.550781 772.144531 498.570312 C 780.8125 498.871094 789.84375 498.5 799.550781 497.300781 Z M 710.089844 262.734375 C 710.046875 263.027344 710.007812 263.316406 709.96875 263.613281 C 711.007812 264.457031 712.039062 265.304688 713.078125 266.140625 C 726.1875 276.765625 739.246094 287.441406 752.40625 297.992188 C 762.1875 305.835938 772.019531 313.613281 781.984375 321.207031 C 785.101562 323.582031 788.667969 325.457031 792.148438 327.265625 C 794.0625 328.257812 796.242188 328.914062 798.28125 329.269531 C 803.328125 330.128906 806.652344 327.617188 806.847656 323.019531 C 806.96875 320.003906 806.179688 316.972656 804.503906 313.996094 C 802.253906 310 799.175781 306.523438 795.734375 303.285156 C 789.476562 297.402344 782.386719 292.597656 775.425781 287.613281 C 763.824219 279.304688 752.289062 270.90625 740.765625 262.5 C 739.804688 261.800781 738.996094 261.253906 737.878906 261.308594 C 728.617188 261.800781 719.347656 262.265625 710.089844 262.734375 Z M 674.683594 268.820312 C 712.5 297.070312 749.085938 325.308594 787.566406 352.429688 C 786.5625 349.40625 785.808594 347.171875 785.074219 344.929688 C 783.085938 338.867188 781.105469 332.804688 779.140625 326.738281 C 778.707031 325.40625 778.101562 324.277344 776.816406 323.253906 C 765.621094 314.402344 754.46875 305.511719 743.335938 296.59375 C 738.976562 293.101562 734.722656 289.484375 730.371094 285.984375 C 721.683594 278.984375 712.9375 272.042969 704.261719 265.03125 C 703.148438 264.132812 702.191406 263.882812 701.023438 264.066406 C 697.894531 264.5625 694.710938 264.921875 691.609375 265.492188 C 686.179688 266.496094 680.792969 267.609375 674.683594 268.820312 Z M 731.777344 592.621094 C 727.65625 589.820312 723.800781 587.339844 720.105469 584.628906 C 716.605469 582.066406 713.332031 579.199219 709.886719 576.5625 C 700.507812 569.410156 691.148438 562.246094 681.6875 555.210938 C 669.742188 546.316406 657.714844 537.539062 645.6875 528.757812 C 643.292969 526.996094 640.5 525.683594 638.355469 523.707031 C 636.292969 521.804688 634.339844 521.316406 631.980469 521.109375 C 619.683594 520.039062 607.371094 518.867188 595.0625 517.746094 C 594.304688 517.675781 593.5625 517.738281 592.121094 517.738281 C 593.71875 518.816406 594.6875 519.539062 595.714844 520.15625 C 598.464844 521.808594 601.285156 523.34375 604.015625 525.050781 C 618.925781 534.390625 633.425781 544.378906 647.636719 554.820312 C 664.429688 567.171875 681.183594 579.585938 698.019531 591.882812 C 708.9375 599.863281 719.972656 607.691406 729.921875 616.878906 C 730.160156 617.09375 730.546875 617.179688 730.851562 617.3125 C 734.042969 611.992188 734.460938 606.617188 731.777344 592.621094 Z M 725.882812 620.550781 C 724.472656 619.132812 723.777344 618.300781 722.949219 617.621094 C 718.527344 614.007812 714.1875 610.289062 709.628906 606.871094 C 695.613281 596.375 681.425781 586.117188 667.46875 575.550781 C 646.773438 559.890625 626.039062 544.300781 604.140625 530.382812 C 596.828125 525.738281 589.542969 521.0625 581.613281 517.710938 C 579.335938 516.75 577.125 515.976562 574.769531 515.765625 C 567.75 515.140625 560.726562 514.40625 553.703125 513.738281 C 552.511719 513.621094 551.335938 513.617188 549.515625 513.539062 C 555.386719 517.574219 560.605469 521.136719 565.789062 524.742188 C 579.03125 533.945312 592.273438 543.15625 605.503906 552.390625 C 621.277344 563.398438 637.027344 574.4375 652.792969 585.457031 C 658.28125 589.296875 663.796875 593.109375 669.285156 596.953125 C 681.070312 605.199219 692.855469 613.453125 704.617188 621.738281 C 705.894531 622.628906 707.113281 623.324219 708.5625 623.105469 C 714.074219 622.28125 719.589844 621.476562 725.882812 620.550781 Z M 476.171875 520.933594 C 479.550781 523.074219 482.414062 524.789062 485.175781 526.660156 C 492.15625 531.382812 499.105469 536.167969 506.054688 540.949219 C 517.695312 548.964844 529.34375 556.976562 540.96875 565.023438 C 553.820312 573.925781 566.664062 582.832031 579.472656 591.792969 C 594.296875 602.171875 609.011719 612.71875 624.277344 622.425781 C 625.804688 623.398438 627.296875 623.996094 628.972656 624.09375 C 637.324219 624.582031 645.691406 625.109375 654.042969 625.597656 C 654.902344 625.648438 655.734375 625.5 657.027344 625.414062 C 655.613281 624.347656 654.648438 623.574219 653.644531 622.875 C 645.410156 617.109375 637.179688 611.351562 628.9375 605.601562 C 615 595.875 601.058594 586.144531 587.113281 576.425781 C 574.296875 567.480469 561.429688 558.605469 548.667969 549.589844 C 534.578125 539.644531 520.570312 529.578125 506.550781 519.53125 C 505.359375 518.679688 504.234375 517.65625 503.277344 516.570312 C 502.191406 515.34375 501.160156 515.117188 499.847656 515.414062 C 492.597656 517.046875 485.328125 518.636719 478.066406 520.257812 C 477.554688 520.371094 477.09375 520.601562 476.171875 520.933594 Z M 856.296875 135.066406 C 857.804688 136.199219 858.875 137.019531 859.960938 137.816406 C 868.859375 144.351562 877.753906 150.886719 886.664062 157.417969 C 899.464844 166.800781 912.289062 176.167969 925.09375 185.554688 C 937.59375 194.71875 950.113281 203.851562 962.574219 213.0625 C 975.816406 222.855469 989.398438 232.21875 1001.816406 243.410156 C 1007.40625 242.476562 1012.898438 241.144531 1018.207031 238.632812 C 1017.699219 236.566406 1017.257812 234.523438 1016.679688 232.484375 C 1016.09375 230.425781 1015.910156 228.039062 1014.574219 226.414062 C 1013.265625 224.824219 1010.652344 224.117188 1008.730469 222.839844 C 1004.292969 219.886719 999.835938 216.949219 995.550781 213.785156 C 977.984375 200.828125 960.507812 187.75 942.9375 174.789062 C 926.960938 163.011719 910.917969 151.324219 894.886719 139.621094 C 894.011719 138.984375 893 138.246094 892.050781 138.066406 C 888.011719 137.296875 883.929688 136.46875 879.933594 136.136719 C 873.046875 135.5625 866.207031 135.339844 859.351562 134.988281 C 858.480469 134.945312 857.625 135.027344 856.296875 135.066406 Z M 706.320312 389.855469 C 708.949219 397.15625 711.21875 403.738281 713.710938 410.289062 C 715.871094 415.984375 717.675781 421.75 720.84375 427.269531 C 722.015625 429.320312 722.902344 431.527344 723.539062 433.679688 C 724.042969 435.375 725.011719 436.503906 726.457031 437.601562 C 738.714844 446.914062 750.886719 456.339844 763.203125 465.578125 C 771.742188 471.972656 780.484375 478.101562 789.089844 484.40625 C 794.375 488.289062 799.574219 492.285156 805.257812 496.566406 C 808.863281 495.636719 812.765625 494.558594 816.730469 493.648438 C 819.710938 492.957031 821.421875 491.035156 822.304688 488.527344 C 824.066406 483.527344 824.46875 478.121094 823.5 472.242188 C 813.023438 468.769531 803.960938 462.519531 795.078125 455.898438 C 791.792969 453.449219 788.53125 450.96875 785.25 448.515625 C 764.394531 432.875 743.550781 417.214844 722.664062 401.601562 C 717.503906 397.75 712.210938 394.082031 706.320312 389.855469 Z M 948.398438 244.09375 C 948.433594 243.839844 948.46875 243.589844 948.503906 243.335938 C 947.421875 242.523438 946.347656 241.699219 945.257812 240.894531 C 926.015625 226.644531 906.769531 212.394531 887.519531 198.15625 C 871.761719 186.5 855.964844 174.886719 840.222656 163.199219 C 830.460938 155.949219 820.792969 148.578125 811.039062 141.324219 C 807.550781 138.730469 804.125 136.113281 801.222656 132.660156 C 790.765625 132.871094 780.671875 134.027344 770.617188 136.359375 C 771.488281 137.015625 771.972656 137.394531 772.464844 137.742188 C 778.101562 141.800781 783.785156 145.792969 789.371094 149.914062 C 805.636719 161.929688 821.871094 173.988281 838.113281 186.039062 C 851.167969 195.726562 864.195312 205.453125 877.257812 215.117188 C 881.339844 218.136719 885.554688 220.976562 889.652344 223.984375 C 895.640625 228.378906 901.609375 232.816406 907.523438 237.300781 C 909.101562 238.496094 910.703125 239.070312 912.480469 239.339844 C 919.648438 240.410156 926.824219 241.621094 933.980469 242.597656 C 938.800781 243.257812 943.589844 243.605469 948.398438 244.09375 Z M 665.054688 295.964844 C 665.238281 297.136719 665.28125 297.875 665.480469 298.605469 C 666.351562 301.867188 667.261719 305.128906 668.167969 308.394531 C 668.65625 310.132812 669.070312 311.875 669.6875 313.589844 C 670.566406 316.070312 671.59375 318.53125 672.5625 320.992188 C 673.53125 323.464844 674.324219 325.988281 675.554688 328.382812 C 676.386719 329.992188 677.59375 331.78125 679.074219 332.867188 C 690.386719 341.144531 701.71875 349.398438 713.222656 357.40625 C 727.585938 367.410156 741.488281 377.972656 755.136719 388.9375 C 773.894531 404.007812 792.949219 418.710938 811.886719 433.554688 C 814.40625 435.53125 816.996094 437.414062 819.632812 439.398438 C 819.800781 438.898438 819.949219 438.714844 819.917969 438.519531 C 819.769531 437.542969 819.617188 436.5625 819.386719 435.585938 C 817.003906 425.542969 814.113281 415.554688 809.347656 405.78125 C 808.867188 404.804688 807.992188 403.789062 807.078125 403.09375 C 801.855469 399.09375 796.601562 395.140625 791.292969 391.253906 C 779.988281 382.96875 768.53125 374.875 757.34375 366.445312 C 747.039062 358.679688 737.058594 350.492188 726.816406 342.648438 C 719.628906 337.152344 712.15625 332.011719 704.941406 326.542969 C 692.789062 317.324219 680.734375 307.960938 668.640625 298.664062 C 667.582031 297.851562 666.507812 297.054688 665.054688 295.964844 Z M 767.085938 137.121094 C 765.191406 137.664062 762.984375 138.386719 760.691406 138.925781 C 759.039062 139.308594 758.359375 140.242188 758.105469 141.835938 C 757.019531 148.539062 756.949219 155.371094 758.984375 162.585938 C 759.433594 164.160156 760.179688 165.179688 761.722656 166.089844 C 763.839844 167.347656 765.933594 168.730469 767.871094 170.257812 C 773.910156 175.019531 779.800781 179.964844 785.882812 184.675781 C 798.636719 194.554688 811.425781 204.386719 824.289062 214.109375 C 829.53125 218.074219 834.988281 221.757812 840.402344 225.484375 C 841.363281 226.136719 842.59375 226.578125 843.695312 226.78125 C 861.292969 230.03125 878.890625 233.234375 896.488281 236.433594 C 897.472656 236.613281 898.46875 236.6875 899.945312 236.863281 C 898.960938 236.035156 898.417969 235.542969 897.835938 235.105469 C 891.605469 230.382812 885.390625 225.644531 879.136719 220.964844 C 869 213.371094 858.839844 205.808594 848.679688 198.257812 C 828.15625 183.007812 807.601562 167.785156 787.105469 152.5 C 780.558594 147.621094 774.152344 142.554688 767.085938 137.121094 Z M 505.25 514.835938 C 510.253906 518.105469 514.964844 521.054688 519.5625 524.1875 C 528.574219 530.332031 537.53125 536.574219 546.496094 542.792969 C 551.699219 546.398438 556.871094 550.050781 562.066406 553.652344 C 576.949219 563.96875 591.855469 574.25 606.722656 584.589844 C 617.824219 592.308594 628.871094 600.109375 639.953125 607.863281 C 644.527344 611.058594 649.148438 614.191406 653.707031 617.414062 C 655.402344 618.613281 657.039062 619.921875 658.621094 621.265625 C 661.828125 624.007812 665.003906 626.074219 669.226562 625.695312 C 674.640625 625.207031 680.226562 625.296875 685.707031 625.027344 C 689.933594 624.820312 694.105469 624.4375 698.824219 624.097656 C 697.230469 622.773438 696.164062 621.753906 694.972656 620.917969 C 675.46875 607.242188 655.953125 593.582031 636.4375 579.925781 C 620.789062 568.972656 605.128906 558.019531 589.476562 547.066406 C 584.289062 543.441406 579.167969 539.710938 573.894531 536.226562 C 563.054688 529.070312 552.855469 520.949219 541.789062 514.136719 C 540.417969 513.289062 539.292969 512.789062 537.882812 512.773438 C 527.65625 512.65625 517.539062 512.910156 507.734375 514.308594 C 507.015625 514.410156 506.324219 514.609375 505.25 514.835938 Z M 749.871094 390.570312 C 749.898438 390.53125 749.925781 390.496094 749.953125 390.457031 C 748.46875 389.335938 746.976562 388.226562 745.496094 387.089844 C 738.996094 382.105469 732.625 376.945312 725.988281 372.148438 C 711.898438 361.980469 697.675781 352.007812 683.511719 341.941406 C 681.183594 340.289062 678.96875 338.441406 676.5625 336.941406 C 672.261719 334.265625 667.953125 331.523438 663.457031 329.324219 C 660.796875 328.019531 657.722656 327.28125 654.914062 327.007812 C 650.183594 326.546875 648.488281 328.800781 649.847656 333.234375 C 650.402344 335.042969 651.292969 336.929688 652.460938 338.566406 C 654.136719 340.914062 656.066406 343.167969 658.117188 345.277344 C 664.152344 351.5 670.945312 356.957031 677.855469 362.210938 C 692.46875 373.339844 707.292969 384.199219 722.007812 395.199219 C 743.492188 411.257812 764.921875 427.371094 786.429688 443.394531 C 793.796875 448.878906 801.273438 454.21875 808.792969 459.480469 C 812.871094 462.324219 817.292969 464.539062 821.878906 466.207031 C 825.214844 467.417969 828.585938 468.230469 831.839844 467.796875 C 836.457031 467.179688 837.800781 463.929688 835.316406 459.539062 C 833.875 456.984375 831.722656 454.972656 829.320312 453.136719 C 828.050781 452.164062 826.855469 451.085938 825.667969 450.023438 C 824.390625 448.875 823.265625 447.554688 821.90625 446.53125 C 812.585938 439.511719 803.085938 432.71875 793.894531 425.542969 C 779.121094 414.011719 764.535156 402.238281 749.871094 390.570312 Z M 648.8125 278.109375 C 649.914062 279.007812 650.730469 279.703125 651.574219 280.359375 C 659.421875 286.4375 667.269531 292.53125 675.132812 298.589844 C 684.179688 305.550781 693.207031 312.539062 702.324219 319.414062 C 713.527344 327.847656 724.878906 336.085938 736.050781 344.554688 C 744.949219 351.304688 753.5625 358.429688 762.507812 365.109375 C 777.816406 376.550781 793.285156 387.78125 808.691406 399.085938 C 810.496094 400.40625 812.300781 401.734375 814.167969 402.945312 C 817.628906 405.1875 821.199219 407.085938 825.175781 407.480469 C 828.5625 407.820312 831.074219 406.746094 832.453125 404.183594 C 834.152344 401.035156 834.171875 397.460938 832.367188 393.640625 C 830.898438 390.546875 828.859375 387.726562 826.226562 385.179688 C 820.765625 379.898438 814.5625 375.578125 808.296875 371.332031 C 799.679688 365.488281 790.941406 359.804688 782.476562 353.742188 C 771.082031 345.582031 759.847656 337.191406 748.628906 328.785156 C 738.898438 321.496094 729.292969 314.03125 719.609375 306.671875 C 707.355469 297.355469 695.085938 288.070312 682.8125 278.773438 C 679.746094 276.453125 676.628906 274.191406 673.605469 271.8125 C 671.839844 270.429688 670.246094 270.089844 668.457031 270.75 C 662.648438 272.894531 656.789062 274.957031 650.957031 277.0625 C 650.292969 277.304688 649.699219 277.671875 648.8125 278.109375 Z M 804.898438 132.710938 C 812.847656 138.347656 820.546875 143.742188 828.175781 149.238281 C 837.03125 155.621094 845.835938 162.070312 854.644531 168.523438 C 867.558594 177.984375 880.445312 187.472656 893.34375 196.941406 C 911.339844 210.160156 929.339844 223.371094 947.335938 236.570312 C 950.242188 238.703125 953.171875 240.78125 956.085938 242.902344 C 957.75 244.117188 959.445312 244.792969 961.390625 244.855469 C 972.570312 245.25 983.707031 245.472656 994.53125 244.394531 C 995.699219 244.277344 996.84375 244.054688 998.28125 243.839844 C 992.492188 239.894531 986.949219 236.367188 981.679688 232.484375 C 971.585938 225.050781 961.691406 217.363281 951.628906 209.886719 C 938.5 200.125 925.28125 190.484375 912.113281 180.769531 C 891.746094 165.742188 871.382812 150.710938 851.054688 135.628906 C 849.753906 134.664062 848.578125 134.191406 847.132812 134.148438 C 844.40625 134.070312 841.652344 133.871094 838.914062 133.761719 C 828.535156 133.34375 818.164062 132.929688 807.785156 132.53125 C 806.898438 132.5 806.042969 132.636719 804.898438 132.710938 Z M 828.433594 488.71875 C 830.09375 487.757812 831.289062 487.15625 832.378906 486.429688 C 846.417969 477.101562 854.632812 463.816406 857.679688 447 C 860.164062 433.277344 858.898438 418.976562 855.472656 404.355469 C 852.398438 391.253906 848.265625 378.226562 844.078125 365.191406 C 839.738281 351.714844 834.664062 338.355469 828.460938 325.191406 C 818.78125 304.652344 809.054688 284.132812 799.332031 263.566406 C 793.023438 262.238281 757.050781 260.761719 753.96875 261.679688 C 754.882812 264.277344 755.722656 266.875 756.738281 269.4375 C 757.050781 270.207031 757.75 271.042969 758.472656 271.578125 C 761.882812 274.066406 765.363281 276.449219 768.804688 278.886719 C 776.5 284.335938 784.285156 289.667969 791.847656 295.304688 C 796.414062 298.703125 800.640625 302.574219 804.152344 307.023438 C 807.613281 311.390625 810.332031 316.007812 811.265625 321.046875 C 812.777344 329.265625 807.359375 334.878906 798.71875 333.84375 C 796.019531 333.519531 793.199219 332.535156 790.5 331.539062 C 788.28125 330.710938 786.167969 329.421875 783.550781 328.109375 C 784.175781 329.632812 784.648438 330.785156 785.113281 331.941406 C 786.109375 334.410156 787.410156 336.863281 788.03125 339.339844 C 789.460938 345.046875 791.828125 350.59375 794.191406 356.15625 C 794.476562 356.828125 795.070312 357.570312 795.703125 358.015625 C 798.4375 359.941406 801.265625 361.730469 804.023438 363.644531 C 810.636719 368.246094 817.292969 372.792969 823.808594 377.542969 C 827.738281 380.410156 831.03125 383.957031 833.804688 387.816406 C 837.507812 392.96875 839.207031 398.273438 838.039062 403.636719 C 836.414062 411.089844 829.292969 414.125 820.878906 410.992188 C 819.582031 410.511719 818.289062 409.964844 816.714844 409.335938 C 821.699219 421.066406 824.902344 432.503906 826.203125 444.164062 C 827.75 445.246094 829.414062 446.335938 831 447.515625 C 835.257812 450.675781 838.847656 454.40625 841.121094 458.917969 C 844.539062 465.691406 841.890625 471.769531 835.046875 473.101562 C 833.046875 473.496094 830.867188 473.445312 828.601562 473.605469 C 829.691406 478.570312 829.539062 483.398438 828.433594 488.71875 Z M 716.449219 430.148438 C 715.289062 427.105469 714.363281 424.636719 713.410156 422.175781 C 711.695312 417.761719 709.925781 413.363281 708.242188 408.941406 C 705.542969 401.847656 702.773438 394.757812 700.3125 387.636719 C 699.542969 385.402344 698.40625 383.828125 696.375 382.34375 C 690.171875 377.789062 684.03125 373.152344 677.925781 368.453125 C 670.253906 362.554688 662.699219 356.496094 655.894531 349.648438 C 651.875 345.605469 648.238281 341.296875 646.199219 336.21875 C 642.667969 327.417969 647.320312 321.476562 656.785156 322.691406 C 657.824219 322.824219 658.890625 323 659.902344 323.351562 C 662.40625 324.226562 664.886719 325.21875 667.390625 326.136719 C 667.976562 326.351562 668.585938 326.46875 669.476562 326.714844 C 667.691406 321.851562 665.625 317.339844 664.464844 312.800781 C 662.886719 306.613281 661.871094 300.390625 660.882812 294.199219 C 660.609375 292.476562 660.011719 291.371094 658.523438 290.179688 C 654.292969 286.800781 650.15625 283.300781 645.988281 279.84375 C 639.550781 285.796875 637.511719 288.894531 634.609375 296.417969 C 630.351562 307.460938 630.496094 319.484375 633.304688 332.136719 C 635.785156 343.296875 639.617188 354.339844 643.949219 365.316406 C 655.09375 393.5 667.910156 421.351562 680.335938 449.28125 C 684.695312 459.078125 689.683594 468.738281 694.335938 478.476562 C 696.101562 482.164062 697.71875 485.886719 699.476562 489.757812 C 715.410156 492.734375 731.21875 495.886719 747.132812 497.085938 C 744.664062 492.09375 742.222656 487.402344 740.035156 482.644531 C 738.5 479.296875 736.246094 476.660156 732.914062 474.664062 C 731.753906 473.972656 730.691406 473.085938 729.59375 472.269531 C 719.351562 464.613281 709.050781 457.042969 698.90625 449.257812 C 694.171875 445.621094 689.929688 441.40625 687.207031 436.238281 C 683.566406 429.335938 685.636719 423.988281 692.589844 422.546875 C 694.34375 422.179688 696.34375 422.230469 698.269531 422.460938 C 701.761719 422.875 705.195312 424.136719 708.503906 425.847656 C 711.011719 427.136719 713.472656 428.535156 716.449219 430.148438 Z M 445.011719 529.941406 C 445.175781 530.09375 445.332031 530.246094 445.496094 530.398438 C 446.394531 529.777344 447.328125 529.1875 448.199219 528.535156 C 455.179688 523.308594 462.988281 519.207031 471.660156 516.320312 C 487.925781 510.902344 505.386719 508.445312 523.460938 507.554688 C 533.773438 507.039062 544.332031 507.726562 554.910156 508.640625 C 577.902344 510.628906 600.90625 512.707031 623.914062 514.816406 C 643.828125 516.640625 663.800781 519.300781 683.863281 523.28125 C 697.292969 525.941406 710.730469 528.679688 724.148438 530.945312 C 742.992188 534.132812 761.488281 535.09375 779.480469 533.320312 C 790.800781 532.207031 801.472656 529.75 810.75 524.597656 C 817.152344 521.039062 822.4375 516.332031 827.238281 511.09375 C 833.203125 504.59375 837.726562 497.152344 841.589844 488.582031 C 840.359375 489.351562 839.613281 489.847656 838.832031 490.304688 C 835.746094 492.097656 832.777344 494.078125 829.523438 495.636719 C 817.976562 501.160156 804.921875 503.445312 791.191406 504.160156 C 774.265625 505.03125 757 504.140625 739.566406 502.226562 C 734.617188 501.679688 729.632812 500.898438 724.660156 500.125 C 719.570312 499.332031 714.472656 498.613281 709.382812 497.492188 C 704.445312 496.40625 699.550781 495.957031 694.601562 494.90625 C 684.652344 492.800781 674.691406 491.34375 664.738281 489.664062 C 633.816406 484.464844 603.027344 481.046875 572.234375 477.554688 C 559.542969 476.121094 546.90625 475.003906 534.46875 475.273438 C 515.375 475.6875 499 480.9375 485.40625 491.332031 C 476.125 498.441406 467.246094 505.945312 459.160156 514.222656 C 454.226562 519.273438 449.714844 524.691406 445.011719 529.941406 Z M 1031.660156 238.390625 C 1031.503906 238.257812 1031.351562 238.132812 1031.191406 238.003906 C 1029.910156 238.886719 1028.640625 239.789062 1027.332031 240.644531 C 1019.011719 246.085938 1009.125 248.675781 998.5 249.898438 C 988.933594 250.996094 979.101562 251.074219 969.167969 250.742188 C 966.671875 250.65625 964.023438 250.335938 961.785156 250.851562 C 959.121094 251.472656 956.550781 250 953.953125 249.753906 C 942.679688 248.683594 931.375 247.570312 920.046875 245.78125 C 900.726562 242.710938 881.378906 238.96875 862.050781 235.796875 C 831.152344 230.726562 800.253906 225.789062 769.367188 221.023438 C 758.5 219.347656 747.625 217.984375 736.835938 217.09375 C 720.84375 215.773438 707.054688 219.457031 695.308594 227.316406 C 687.957031 232.242188 681.441406 238.011719 675.359375 244.199219 C 669.90625 249.742188 664.554688 255.382812 659.242188 261.050781 C 656.476562 263.992188 653.890625 267.089844 651.226562 270.117188 C 652.445312 270.253906 653.335938 270.003906 654.203125 269.707031 C 658.691406 268.164062 663.007812 266.269531 667.691406 265.128906 C 675.726562 263.183594 683.886719 261.457031 692.167969 260.074219 C 710.839844 256.957031 730.132812 255.8125 749.796875 255.96875 C 774.097656 256.164062 798.542969 257.09375 823.363281 260.996094 C 842.320312 263.984375 861.324219 267.730469 880.3125 271.414062 C 900 275.234375 919.6875 279.183594 939.335938 281.722656 C 951.820312 283.339844 964.28125 284.765625 976.425781 284.164062 C 986.738281 283.660156 996.214844 281.503906 1004.136719 276.28125 C 1009.789062 272.554688 1014.1875 267.710938 1018.136719 262.445312 C 1022.871094 256.136719 1026.453125 249.105469 1030.078125 242.09375 C 1030.683594 240.910156 1031.132812 239.625 1031.660156 238.390625 Z M 724.007812 211.078125 C 723.492188 209.421875 723.09375 208.015625 722.617188 206.621094 C 715.671875 186.082031 716.8125 167.554688 725.71875 150.867188 C 730.964844 141.046875 737.59375 132.269531 744.957031 124 C 753.582031 114.320312 763.15625 105.554688 773.558594 97.59375 C 782.402344 90.820312 792.160156 85.289062 803.957031 82.691406 C 812.59375 80.789062 821.664062 80.425781 831.050781 81.480469 C 841.769531 82.6875 852.535156 84.347656 863.269531 85.722656 C 883.121094 88.261719 902.972656 90.695312 922.832031 93.257812 C 927.871094 93.910156 932.9375 94.878906 937.996094 95.699219 C 938.03125 95.933594 938.066406 96.175781 938.101562 96.414062 C 937.109375 96.398438 936.117188 96.410156 935.113281 96.367188 C 934.089844 96.332031 933.058594 96.25 932.019531 96.160156 C 903.390625 93.695312 874.730469 90.863281 845.914062 86.503906 C 839.335938 85.511719 832.761719 84.972656 826.242188 84.589844 C 808.953125 83.578125 794.300781 87.957031 781.804688 96.632812 C 774.476562 101.714844 767.839844 107.5 761.507812 113.597656 C 754.027344 120.8125 747.210938 128.601562 740.773438 136.6875 C 737.746094 140.496094 735.175781 144.667969 732.722656 148.96875 C 733.914062 148.019531 735.105469 147.074219 736.296875 146.128906 C 741.941406 141.675781 748.441406 138.382812 755.507812 135.851562 C 772.183594 129.886719 790.414062 128.078125 809.332031 128.167969 C 828.179688 128.261719 847.3125 130.21875 866.414062 132.039062 C 874.695312 132.828125 883 133.417969 891.308594 134.953125 C 906.382812 137.746094 921.292969 138.730469 936.3125 141.015625 C 940.785156 141.703125 945.28125 142.625 949.769531 143.4375 C 949.8125 143.679688 949.859375 143.921875 949.902344 144.164062 C 948.582031 144.171875 947.273438 144.316406 945.929688 144.179688 C 934.644531 143.003906 923.351562 141.789062 912.0625 140.558594 C 908.402344 140.15625 904.742188 139.675781 900.460938 139.152344 C 901.558594 140.070312 902.070312 140.550781 902.632812 140.964844 C 919.054688 153.003906 935.433594 165.109375 951.925781 177.042969 C 967.210938 188.101562 982.652344 198.921875 997.957031 209.957031 C 1002.578125 213.289062 1006.953125 216.976562 1011.441406 220.496094 C 1011.980469 220.925781 1012.542969 221.332031 1013.8125 222.289062 C 1008.261719 208.851562 1003.023438 196.171875 997.808594 183.542969 C 999.515625 182.925781 1000.394531 183.859375 1001.117188 184.851562 C 1003.617188 188.273438 1006.046875 191.726562 1007.652344 195.519531 C 1008.738281 198.085938 1009.992188 200.613281 1011.105469 203.171875 C 1012.59375 206.589844 1014.042969 210.007812 1015.480469 213.433594 C 1016.105469 214.933594 1016.714844 216.4375 1017.238281 217.953125 C 1018.257812 220.863281 1019.25 223.777344 1020.195312 226.691406 C 1021.132812 229.601562 1021.988281 232.515625 1023 235.804688 C 1023.757812 235.457031 1024.21875 235.316406 1024.59375 235.0625 C 1034.476562 228.363281 1039.6875 218.769531 1039.886719 206.257812 C 1040.039062 196.585938 1037.050781 186.980469 1032.140625 177.480469 C 1030.203125 173.726562 1028.4375 169.917969 1026.257812 165.464844 C 1027.464844 166.285156 1028.132812 166.652344 1028.683594 167.144531 C 1032.035156 170.121094 1034.949219 173.351562 1037.136719 177.148438 C 1046 192.566406 1048.289062 207.394531 1043.078125 221.632812 C 1042.875 222.199219 1042.671875 222.777344 1042.550781 223.378906 C 1040.28125 234.6875 1034.816406 244.332031 1029.703125 254.132812 C 1027.210938 258.902344 1024.269531 263.425781 1021.140625 267.777344 C 1010.824219 282.097656 995.453125 289.199219 975.550781 289.773438 C 962.425781 290.148438 949.050781 288.695312 935.613281 286.339844 C 913.277344 282.417969 890.921875 278.15625 868.578125 273.933594 C 849.011719 270.234375 829.433594 266.386719 809.929688 264.328125 C 808.800781 264.207031 807.675781 264.148438 806.070312 264.023438 C 806.84375 266.082031 807.375 267.90625 808.214844 269.652344 C 815.617188 285.105469 822.980469 300.574219 830.535156 315.984375 C 840.03125 335.382812 847.539062 355.066406 853.253906 375.042969 C 857.03125 388.214844 861.148438 401.371094 863.496094 414.578125 C 866.820312 433.34375 865.832031 450.925781 858.621094 466.792969 C 856.882812 470.621094 855.339844 474.558594 853.609375 478.390625 C 852.914062 479.933594 851.945312 481.332031 851.085938 482.789062 C 850.832031 483.21875 850.460938 483.570312 850.246094 484.019531 C 848.398438 487.851562 846.621094 491.730469 844.730469 495.535156 C 837.449219 510.179688 827.3125 522.382812 812.300781 530.335938 C 801.96875 535.800781 790.09375 538.164062 777.554688 539.097656 C 775.90625 539.21875 774.25 539.324219 772.570312 539.4375 C 773.132812 542.226562 773.722656 544.8125 774.148438 547.386719 C 774.417969 549.003906 774.390625 550.601562 774.566406 552.21875 C 775.15625 557.628906 776.117188 563.109375 776.3125 568.457031 C 776.851562 583.066406 773.050781 595.699219 764.828125 606.679688 C 759.125 614.300781 753.550781 622.058594 747.949219 629.777344 C 744.15625 635.003906 740.183594 640.113281 736.152344 645.167969 C 731.128906 651.46875 725.667969 657.398438 719.148438 662.367188 C 709.050781 670.050781 696.578125 673.332031 682.582031 673.746094 C 671.410156 674.074219 660.019531 672.976562 648.574219 671.484375 C 634.480469 669.644531 620.386719 667.785156 606.304688 666.109375 C 591.078125 664.292969 575.902344 662.96875 560.484375 662.253906 C 561.3125 661.34375 562.445312 661.496094 563.382812 661.378906 C 574.601562 660.015625 586.105469 660.003906 597.960938 661.503906 C 613.316406 663.445312 628.671875 665.378906 644.007812 667.0625 C 656.347656 668.421875 668.601562 669.273438 680.726562 669.140625 C 697.796875 668.960938 711.683594 663.6875 722.128906 652.816406 C 725.71875 649.078125 729.246094 645.277344 732.46875 641.242188 C 737.496094 634.949219 742.242188 628.433594 747.089844 622.003906 C 747.664062 621.246094 748.148438 620.425781 748.988281 619.167969 C 745.816406 620.402344 743.234375 621.484375 740.574219 622.429688 C 729.359375 626.382812 717.203125 628.164062 704.734375 629.042969 C 693.285156 629.851562 681.753906 630.445312 670.132812 630.597656 C 642.734375 630.953125 614.953125 628.5 586.84375 623.328125 C 580.328125 622.128906 573.9375 620.347656 567.480469 616.703125 C 569.660156 616.71875 571.570312 616.6875 573.5 616.765625 C 575.4375 616.835938 577.378906 616.867188 579.332031 617.160156 C 590.546875 618.851562 601.761719 620.621094 612.984375 622.332031 C 614.210938 622.519531 615.433594 622.550781 616.652344 622.65625 C 616.699219 622.453125 616.742188 622.242188 616.78125 622.035156 C 614.226562 620.445312 611.664062 618.855469 609.105469 617.261719 C 608.15625 616.679688 607.179688 616.136719 606.269531 615.496094 C 595.597656 608.03125 584.9375 600.527344 574.253906 593.078125 C 557.871094 581.648438 541.425781 570.296875 525.070312 558.828125 C 511.769531 549.492188 498.535156 540.039062 485.308594 530.589844 C 481.382812 527.789062 477.585938 524.800781 473.792969 521.945312 C 467.832031 522.753906 465.347656 526.839844 463.449219 531.328125 C 461.832031 535.140625 461.414062 539.445312 461.292969 543.800781 C 460.792969 561.117188 464.363281 578.503906 471.769531 596.015625 C 476.207031 606.503906 480.117188 617.09375 484.4375 627.601562 C 489.535156 639.980469 493.457031 652.453125 496.152344 665.015625 C 497.578125 671.671875 498.402344 678.28125 497.640625 684.773438 C 497.394531 684.003906 497.035156 683.234375 496.910156 682.472656 C 495.484375 673.949219 492.738281 665.46875 490.09375 657.003906 C 487.382812 648.316406 484.464844 639.644531 481.363281 630.996094 C 478.921875 624.191406 476.078125 617.4375 473.394531 610.660156 C 469.171875 600.023438 464.507812 589.441406 461.605469 578.632812 C 458.457031 566.902344 457.210938 555.332031 457.699219 543.957031 C 457.921875 538.761719 458.511719 533.703125 461.113281 529.414062 C 461.46875 528.832031 461.613281 528.113281 462.058594 526.917969 C 460.835938 527.542969 460.066406 527.90625 459.335938 528.324219 C 452.984375 531.953125 447.484375 536.492188 443.03125 542.011719 C 439.976562 545.792969 437.324219 549.902344 434.628906 553.957031 C 433.996094 554.910156 433.761719 556.207031 433.566406 557.414062 C 432.515625 563.894531 432.589844 570.609375 433.460938 577.476562 C 434.996094 589.597656 438.554688 601.664062 442.511719 613.722656 C 447.582031 629.132812 452.457031 644.5625 455.3125 660.070312 C 457.011719 669.335938 458.429688 678.578125 459.972656 687.832031 C 460.351562 690.105469 460.710938 692.382812 460.570312 694.765625 C 460.226562 694.152344 459.75 693.546875 459.574219 692.917969 C 457.832031 686.933594 455.90625 680.953125 454.480469 674.964844 C 449.460938 653.898438 443.199219 632.929688 435.675781 612.03125 C 432.050781 601.976562 429.261719 591.851562 427.363281 581.683594 C 423.300781 559.863281 427.871094 541.382812 439.730469 525.539062 C 447.269531 515.464844 456.238281 506.695312 465.644531 498.269531 C 472.214844 492.394531 479.027344 486.785156 486.652344 482.042969 C 497.617188 475.226562 510.03125 471.039062 524.050781 469.742188 C 537.046875 468.535156 550.425781 469.21875 563.925781 470.660156 C 597.351562 474.238281 630.796875 477.921875 664.394531 483.566406 C 672.613281 484.949219 680.835938 486.453125 689.058594 487.894531 C 690.292969 488.113281 691.535156 488.304688 693.285156 488.585938 C 691.722656 485.105469 690.457031 482.007812 688.953125 478.980469 C 684.230469 469.507812 679.019531 460.144531 674.730469 450.578125 C 663.78125 426.175781 653.121094 401.71875 642.578125 377.230469 C 637.148438 364.609375 632.339844 351.863281 629.011719 338.976562 C 627.558594 333.324219 626.382812 327.628906 625.601562 321.996094 C 623.476562 306.671875 627.402344 293.589844 634.757812 281.855469 C 641.609375 270.9375 650.058594 261.277344 658.972656 252 C 665.460938 245.242188 672.027344 238.550781 678.820312 232.078125 C 684.609375 226.554688 691.179688 221.847656 698.550781 218.070312 C 705.125 214.691406 712.292969 212.507812 720.132812 211.566406 C 721.222656 211.4375 722.316406 211.289062 724.007812 211.078125 " fill-opacity="1" fill-rule="nonzero"/></g></g></g></g></svg>