<svg xmlns="http://www.w3.org/2000/svg" xmlns:xlink="http://www.w3.org/1999/xlink" width="1920" zoomAndPan="magnify" viewBox="0 0 1440 809.999993" height="1080" preserveAspectRatio="xMidYMid meet" version="1.0"><defs><clipPath id="51f3a69c4c"><path d="M 1432.578125 336.367188 L 1440 336.367188 L 1440 473.617188 L 1432.578125 473.617188 Z M 1432.578125 336.367188 " clip-rule="nonzero"/></clipPath><clipPath id="05c7bfd673"><path d="M 275.371094 225 L 1164.871094 225 L 1164.871094 585 L 275.371094 585 Z M 275.371094 225 " clip-rule="nonzero"/></clipPath></defs><g clip-path="url(#51f3a69c4c)"><path fill="#231f20" d="M 1687.226562 376.679688 C 1687.277344 376.644531 1687.332031 376.613281 1687.386719 376.578125 C 1687.289062 375.109375 1687.191406 373.636719 1687.089844 372.082031 C 1686.257812 372.972656 1686.257812 372.972656 1685.957031 374.320312 C 1686.367188 375.085938 1686.796875 375.882812 1687.226562 376.679688 Z M 1660.703125 373.546875 C 1660.773438 375.128906 1660.835938 376.515625 1660.914062 378.226562 C 1661.515625 377.273438 1661.984375 376.542969 1662.457031 375.796875 C 1661.847656 375.011719 1661.316406 374.335938 1660.703125 373.546875 Z M 1582.695312 444.105469 C 1582.914062 441.324219 1582.808594 435.144531 1582.519531 433.914062 C 1581.617188 435.945312 1580.761719 437.882812 1579.878906 439.867188 C 1580.832031 441.308594 1581.710938 442.628906 1582.695312 444.105469 Z M 1552.265625 427.460938 C 1552.667969 432.433594 1553.042969 437.015625 1553.441406 441.933594 C 1554.878906 440.242188 1555.710938 438.359375 1556.753906 436.671875 C 1555.28125 433.648438 1553.851562 430.71875 1552.265625 427.460938 Z M 1674.640625 354.859375 C 1676.015625 357.007812 1677.414062 359.039062 1678.675781 361.203125 C 1680.539062 364.386719 1682.300781 367.667969 1684.109375 370.902344 C 1684.324219 371.28125 1684.570312 371.628906 1684.875 372.105469 C 1685.4375 371.03125 1685.898438 370.109375 1686.398438 369.21875 C 1686.789062 368.515625 1686.953125 367.777344 1686.9375 366.910156 C 1686.90625 364.773438 1686.824219 362.625 1686.953125 360.5 C 1687.097656 358.105469 1687.347656 355.707031 1687.742188 353.359375 C 1688.117188 351.125 1689.066406 349.199219 1690.414062 347.617188 C 1692.511719 345.152344 1696.15625 345.464844 1697.769531 348.976562 C 1698.0625 349.621094 1698.347656 350.269531 1698.675781 350.996094 C 1700.277344 348.046875 1702.933594 347.023438 1705.113281 345.007812 C 1701.316406 342.890625 1697.480469 341.855469 1693.414062 341.816406 C 1691.179688 341.796875 1689.074219 342.132812 1687.039062 343.222656 C 1685.4375 344.082031 1683.753906 344.800781 1682.28125 345.941406 C 1679.277344 348.273438 1676.84375 351.441406 1674.640625 354.859375 Z M 1697.53125 395.847656 C 1697.613281 395.816406 1697.695312 395.78125 1697.777344 395.746094 C 1697.742188 394.933594 1697.714844 394.117188 1697.660156 393.300781 C 1697.433594 389.972656 1697.023438 386.640625 1697.007812 383.3125 C 1696.980469 377.113281 1697.175781 370.917969 1697.285156 364.722656 C 1697.339844 361.707031 1697.503906 358.6875 1697.429688 355.679688 C 1697.386719 354.011719 1697.105469 352.28125 1696.648438 350.710938 C 1695.738281 347.589844 1693.121094 346.929688 1691.285156 349.316406 C 1690.667969 350.117188 1690.214844 351.195312 1689.886719 352.242188 C 1689.039062 354.929688 1688.847656 357.796875 1688.847656 360.644531 C 1688.847656 364.703125 1688.957031 368.761719 1689.125 372.8125 C 1689.226562 375.273438 1689.554688 377.714844 1689.746094 380.167969 C 1689.828125 381.25 1690.179688 382.148438 1690.652344 383.03125 C 1692.738281 386.902344 1694.789062 390.792969 1696.859375 394.675781 C 1697.070312 395.074219 1697.304688 395.457031 1697.53125 395.847656 Z M 1533.574219 465.925781 C 1533.839844 466.140625 1534.011719 466.308594 1534.203125 466.429688 C 1539.886719 469.933594 1545.78125 471.011719 1551.96875 468.875 C 1557.128906 467.089844 1561.472656 463.578125 1565.359375 459.078125 C 1565.808594 458.558594 1566.246094 457.996094 1566.769531 457.609375 C 1567.484375 457.074219 1567.953125 456.335938 1568.351562 455.316406 C 1564.597656 450.355469 1561.277344 444.910156 1558.125 439.304688 C 1558.078125 439.222656 1557.972656 439.199219 1557.871094 439.132812 C 1557.527344 439.691406 1557.097656 440.207031 1556.851562 440.828125 C 1556.230469 442.386719 1555.269531 443.601562 1554.273438 444.742188 C 1553.671875 445.429688 1553.535156 446.125 1553.589844 447.050781 C 1553.667969 448.414062 1553.746094 449.789062 1553.714844 451.160156 C 1553.644531 454.070312 1553.40625 456.957031 1552.492188 459.691406 C 1551.871094 461.550781 1550.988281 463.167969 1549.59375 464.25 C 1547.9375 465.535156 1546.21875 465.714844 1544.460938 464.589844 C 1543.332031 463.867188 1542.503906 462.753906 1541.90625 461.367188 C 1541.707031 460.910156 1541.503906 460.457031 1541.261719 459.910156 C 1539.058594 462.71875 1536.449219 464.484375 1533.574219 465.925781 Z M 1542.46875 408.59375 C 1542.394531 408.617188 1542.320312 408.640625 1542.242188 408.664062 C 1542.304688 409.808594 1542.425781 410.953125 1542.425781 412.097656 C 1542.433594 423.335938 1542.425781 434.574219 1542.414062 445.8125 C 1542.40625 449.210938 1542.285156 452.613281 1542.75 455.984375 C 1543.011719 457.894531 1543.449219 459.730469 1544.503906 461.222656 C 1545.714844 462.933594 1547.46875 463.082031 1548.824219 461.566406 C 1549.238281 461.097656 1549.660156 460.546875 1549.890625 459.925781 C 1550.382812 458.59375 1550.882812 457.222656 1551.144531 455.804688 C 1551.96875 451.320312 1551.804688 446.757812 1551.605469 442.214844 C 1551.386719 437.234375 1551.171875 432.253906 1551.414062 427.269531 C 1551.464844 426.171875 1551.28125 425.242188 1550.800781 424.332031 C 1548.175781 419.339844 1545.574219 414.332031 1542.957031 409.332031 C 1542.816406 409.066406 1542.632812 408.835938 1542.46875 408.59375 Z M 1592.324219 456.078125 C 1592.324219 455.027344 1592.332031 454.375 1592.320312 453.71875 C 1592.242188 448.019531 1592.144531 442.320312 1592.078125 436.617188 C 1592.042969 433.273438 1592.019531 429.925781 1592.046875 426.578125 C 1592.089844 421.808594 1592.214844 417.039062 1592.238281 412.265625 C 1592.246094 409.6875 1592.03125 407.121094 1591.464844 404.625 C 1591.109375 403.082031 1590.578125 401.648438 1589.675781 400.464844 C 1588.207031 398.523438 1586.371094 398.738281 1585.34375 401.089844 C 1584.910156 402.082031 1584.597656 403.207031 1584.414062 404.316406 C 1583.859375 407.609375 1583.859375 410.960938 1583.941406 414.308594 C 1584.007812 417.054688 1584.074219 419.792969 1584.132812 422.535156 C 1584.289062 429.273438 1584.445312 436.015625 1584.585938 442.757812 C 1584.613281 444.003906 1584.59375 445.25 1584.59375 446.734375 C 1586.789062 449.875 1589.320312 452.96875 1592.324219 456.078125 Z M 1651.328125 362.117188 C 1651.214844 362.179688 1651.101562 362.242188 1650.988281 362.308594 C 1650.964844 362.898438 1650.941406 363.488281 1650.921875 364.078125 C 1650.65625 371.53125 1650.355469 378.984375 1650.128906 386.4375 C 1649.960938 391.972656 1649.828125 397.515625 1649.796875 403.054688 C 1649.785156 404.785156 1650.074219 406.542969 1650.359375 408.253906 C 1650.519531 409.191406 1650.863281 410.136719 1651.28125 410.953125 C 1652.320312 412.960938 1654.089844 413.46875 1655.761719 412.316406 C 1656.859375 411.554688 1657.71875 410.472656 1658.324219 409.089844 C 1659.136719 407.230469 1659.546875 405.21875 1659.773438 403.144531 C 1660.1875 399.371094 1660 395.589844 1659.910156 391.804688 C 1659.757812 385.5 1659.65625 379.191406 1659.5625 372.886719 C 1659.554688 372.363281 1659.53125 371.929688 1659.214844 371.550781 C 1656.582031 368.410156 1653.953125 365.261719 1651.328125 362.117188 Z M 1639.777344 351.230469 C 1639.851562 372.097656 1639.609375 392.527344 1640.261719 413.324219 C 1641.0625 412.167969 1641.652344 411.308594 1642.246094 410.453125 C 1643.855469 408.136719 1645.46875 405.828125 1647.089844 403.519531 C 1647.445312 403.011719 1647.679688 402.5 1647.699219 401.773438 C 1647.851562 395.464844 1648.027344 389.164062 1648.214844 382.859375 C 1648.289062 380.394531 1648.433594 377.929688 1648.515625 375.460938 C 1648.675781 370.53125 1648.800781 365.597656 1648.96875 360.667969 C 1648.992188 360.039062 1648.824219 359.632812 1648.453125 359.269531 C 1647.445312 358.296875 1646.472656 357.269531 1645.445312 356.324219 C 1643.648438 354.675781 1641.824219 353.066406 1639.777344 351.230469 Z M 1540.679688 457.484375 C 1540.574219 455.285156 1540.421875 453.265625 1540.398438 451.242188 C 1540.375 449.324219 1540.515625 447.40625 1540.527344 445.488281 C 1540.5625 440.273438 1540.601562 435.0625 1540.574219 429.851562 C 1540.535156 423.269531 1540.4375 416.6875 1540.34375 410.105469 C 1540.328125 408.789062 1540.046875 407.453125 1540.175781 406.171875 C 1540.300781 404.9375 1539.953125 404.117188 1539.398438 403.230469 C 1536.511719 398.601562 1533.652344 393.945312 1530.777344 389.300781 C 1530.601562 389.011719 1530.382812 388.765625 1530 388.257812 C 1530.042969 389.109375 1530.046875 389.644531 1530.101562 390.171875 C 1530.246094 391.582031 1530.457031 392.984375 1530.578125 394.402344 C 1531.246094 402.152344 1531.570312 409.925781 1531.660156 417.722656 C 1531.765625 426.9375 1531.835938 436.152344 1531.96875 445.367188 C 1532.054688 451.347656 1532.222656 457.324219 1531.625 463.28125 C 1531.613281 463.421875 1531.6875 463.582031 1531.71875 463.722656 C 1534.445312 463.4375 1536.453125 462.15625 1540.679688 457.484375 Z M 1529.257812 462.832031 C 1529.382812 461.957031 1529.492188 461.488281 1529.511719 461.015625 C 1529.613281 458.496094 1529.769531 455.972656 1529.765625 453.453125 C 1529.746094 445.714844 1529.59375 437.976562 1529.617188 430.238281 C 1529.644531 418.765625 1529.636719 407.300781 1528.730469 395.863281 C 1528.425781 392.046875 1528.140625 388.230469 1527.21875 384.539062 C 1526.949219 383.480469 1526.636719 382.492188 1526.085938 381.605469 C 1524.441406 378.960938 1522.832031 376.285156 1521.203125 373.628906 C 1520.929688 373.175781 1520.617188 372.757812 1520.160156 372.09375 C 1520.296875 375.242188 1520.425781 378.03125 1520.53125 380.820312 C 1520.800781 387.945312 1521.070312 395.070312 1521.328125 402.199219 C 1521.632812 410.695312 1521.921875 419.191406 1522.222656 427.6875 C 1522.324219 430.648438 1522.445312 433.609375 1522.546875 436.570312 C 1522.769531 442.921875 1522.984375 449.28125 1523.1875 455.636719 C 1523.210938 456.324219 1523.292969 456.941406 1523.753906 457.394531 C 1525.507812 459.121094 1527.257812 460.855469 1529.257812 462.832031 Z M 1498.066406 348.160156 C 1498.207031 349.921875 1498.363281 351.390625 1498.4375 352.863281 C 1498.625 356.585938 1498.78125 360.3125 1498.941406 364.035156 C 1499.207031 370.277344 1499.472656 376.519531 1499.722656 382.765625 C 1499.996094 389.671875 1500.265625 396.574219 1500.503906 403.480469 C 1500.78125 411.476562 1500.96875 419.476562 1501.601562 427.449219 C 1501.664062 428.246094 1501.847656 428.933594 1502.257812 429.550781 C 1504.304688 432.628906 1506.34375 435.722656 1508.390625 438.804688 C 1508.597656 439.121094 1508.871094 439.375 1509.246094 439.808594 C 1509.246094 439.023438 1509.261719 438.476562 1509.242188 437.9375 C 1509.089844 433.496094 1508.933594 429.0625 1508.773438 424.621094 C 1508.503906 417.113281 1508.234375 409.601562 1507.957031 402.09375 C 1507.710938 395.191406 1507.421875 388.285156 1507.210938 381.382812 C 1506.980469 373.761719 1506.8125 366.140625 1506.632812 358.515625 C 1506.613281 357.867188 1506.675781 357.199219 1506.804688 356.574219 C 1506.949219 355.863281 1506.757812 355.441406 1506.304688 355.054688 C 1503.800781 352.929688 1501.308594 350.785156 1498.808594 348.648438 C 1498.628906 348.5 1498.429688 348.398438 1498.066406 348.160156 Z M 1735.226562 379.804688 C 1735.226562 380.636719 1735.222656 381.234375 1735.230469 381.828125 C 1735.289062 386.710938 1735.34375 391.589844 1735.40625 396.472656 C 1735.5 403.488281 1735.597656 410.507812 1735.6875 417.523438 C 1735.777344 424.375 1735.878906 431.222656 1735.941406 438.074219 C 1736.003906 445.351562 1736.304688 452.640625 1735.65625 460 C 1737.472656 461.726562 1739.402344 463.3125 1741.699219 464.519531 C 1742.292969 463.789062 1742.894531 463.089844 1743.460938 462.34375 C 1744.03125 461.589844 1744.828125 460.890625 1745.042969 459.984375 C 1745.257812 459.101562 1744.8125 457.992188 1744.753906 456.972656 C 1744.617188 454.621094 1744.46875 452.265625 1744.445312 449.910156 C 1744.351562 440.261719 1744.324219 430.613281 1744.226562 420.960938 C 1744.140625 412.191406 1744 403.417969 1743.875 394.644531 C 1743.867188 394.164062 1743.855469 393.609375 1743.667969 393.226562 C 1742.867188 391.597656 1742.074219 389.9375 1741.128906 388.4375 C 1739.503906 385.851562 1737.765625 383.375 1736.066406 380.863281 C 1735.851562 380.542969 1735.59375 380.265625 1735.226562 379.804688 Z M 1605.46875 394.585938 C 1603.589844 397.453125 1601.871094 400.007812 1600.222656 402.625 C 1598.785156 404.90625 1597.230469 407.074219 1596.125 409.664062 C 1595.710938 410.621094 1595.167969 411.519531 1594.578125 412.316406 C 1594.113281 412.945312 1593.972656 413.589844 1593.96875 414.390625 C 1593.941406 421.195312 1593.847656 428 1593.859375 434.804688 C 1593.871094 439.523438 1594.03125 444.238281 1594.09375 448.953125 C 1594.128906 451.851562 1594.097656 454.75 1594.097656 457.894531 C 1595.382812 458.921875 1596.800781 460.011719 1598.175781 461.171875 C 1599.210938 462.039062 1600.34375 462.132812 1601.464844 461.777344 C 1603.695312 461.070312 1605.710938 459.777344 1607.53125 457.871094 C 1605.972656 453.25 1605.769531 448.386719 1605.746094 443.488281 C 1605.734375 441.675781 1605.746094 439.867188 1605.738281 438.054688 C 1605.71875 426.53125 1605.707031 415.007812 1605.664062 403.480469 C 1605.652344 400.632812 1605.542969 397.789062 1605.46875 394.585938 Z M 1721.222656 441.316406 C 1721.320312 441.261719 1721.417969 441.207031 1721.519531 441.152344 C 1721.519531 440.554688 1721.523438 439.957031 1721.519531 439.359375 C 1721.433594 428.773438 1721.347656 418.1875 1721.257812 407.605469 C 1721.183594 398.941406 1721.085938 390.273438 1721.03125 381.609375 C 1720.992188 376.234375 1721.027344 370.859375 1720.992188 365.484375 C 1720.984375 363.566406 1720.996094 361.65625 1721.445312 359.714844 C 1718.589844 356.078125 1715.5 352.824219 1712.007812 349.890625 C 1712.007812 350.375 1712 350.644531 1712.007812 350.914062 C 1712.074219 353.980469 1712.175781 357.050781 1712.207031 360.117188 C 1712.289062 369.058594 1712.34375 377.996094 1712.410156 386.9375 C 1712.457031 394.121094 1712.488281 401.308594 1712.546875 408.488281 C 1712.566406 410.734375 1712.683594 412.980469 1712.710938 415.226562 C 1712.753906 418.507812 1712.769531 421.796875 1712.761719 425.078125 C 1712.757812 425.953125 1712.980469 426.671875 1713.359375 427.371094 C 1714.882812 430.1875 1716.363281 433.042969 1717.921875 435.828125 C 1718.96875 437.707031 1720.117188 439.488281 1721.222656 441.316406 Z M 1627.636719 355.050781 C 1627.273438 355.425781 1627.023438 355.636719 1626.820312 355.902344 C 1625.898438 357.078125 1624.992188 358.265625 1624.078125 359.453125 C 1623.59375 360.085938 1623.089844 360.695312 1622.648438 361.371094 C 1622.007812 362.339844 1621.410156 363.359375 1620.800781 364.355469 C 1620.1875 365.355469 1619.507812 366.304688 1618.988281 367.375 C 1618.640625 368.097656 1618.328125 369 1618.339844 369.8125 C 1618.425781 376.007812 1618.523438 382.203125 1618.753906 388.394531 C 1619.039062 396.128906 1619.007812 403.84375 1618.761719 411.582031 C 1618.425781 422.210938 1618.300781 432.851562 1618.09375 443.484375 C 1618.066406 444.898438 1618.089844 446.3125 1618.089844 447.773438 C 1618.3125 447.699219 1618.417969 447.703125 1618.476562 447.640625 C 1618.78125 447.328125 1619.089844 447.011719 1619.371094 446.671875 C 1622.28125 443.160156 1625.039062 439.484375 1627.21875 435.203125 C 1627.4375 434.773438 1627.566406 434.195312 1627.566406 433.6875 C 1627.59375 430.777344 1627.589844 427.871094 1627.550781 424.964844 C 1627.472656 418.769531 1627.285156 412.570312 1627.285156 406.378906 C 1627.289062 400.675781 1627.527344 394.972656 1627.574219 389.273438 C 1627.601562 385.273438 1627.429688 381.265625 1627.445312 377.265625 C 1627.46875 370.519531 1627.570312 363.777344 1627.636719 357.03125 C 1627.644531 356.441406 1627.636719 355.851562 1627.636719 355.050781 Z M 1710.800781 348.847656 C 1710.105469 348.324219 1709.261719 347.734375 1708.464844 347.070312 C 1707.890625 346.585938 1707.378906 346.597656 1706.75 346.929688 C 1704.09375 348.328125 1701.667969 350.121094 1699.664062 352.757812 C 1699.226562 353.332031 1699.0625 353.867188 1699.152344 354.65625 C 1699.273438 355.738281 1699.339844 356.84375 1699.316406 357.933594 C 1699.238281 361.332031 1699.058594 364.730469 1699.011719 368.128906 C 1698.914062 375.257812 1698.84375 382.390625 1698.828125 389.519531 C 1698.824219 392.421875 1698.972656 395.328125 1699.097656 398.230469 C 1699.121094 398.746094 1699.292969 399.296875 1699.515625 399.738281 C 1703.042969 406.816406 1706.589844 413.882812 1710.132812 420.949219 C 1710.332031 421.34375 1710.570312 421.714844 1710.902344 422.285156 C 1710.929688 421.714844 1710.960938 421.394531 1710.960938 421.070312 C 1710.972656 417.617188 1710.996094 414.164062 1710.984375 410.707031 C 1710.96875 405.109375 1710.941406 399.511719 1710.902344 393.917969 C 1710.832031 382.613281 1710.742188 371.308594 1710.691406 360.003906 C 1710.675781 356.394531 1710.757812 352.785156 1710.800781 348.847656 Z M 1507.941406 356.808594 C 1508.117188 359.445312 1508.328125 361.894531 1508.445312 364.347656 C 1508.671875 369.167969 1508.847656 373.988281 1509.035156 378.808594 C 1509.144531 381.601562 1509.230469 384.402344 1509.339844 387.191406 C 1509.652344 395.191406 1509.984375 403.191406 1510.285156 411.191406 C 1510.511719 417.160156 1510.695312 423.136719 1510.902344 429.113281 C 1510.992188 431.578125 1511.113281 434.042969 1511.1875 436.507812 C 1511.214844 437.425781 1511.1875 438.351562 1511.132812 439.269531 C 1511.019531 441.128906 1511.132812 442.800781 1512.386719 444.191406 C 1514 445.972656 1515.453125 447.96875 1517.003906 449.832031 C 1518.199219 451.269531 1519.441406 452.640625 1520.816406 454.21875 C 1520.859375 453.304688 1520.9375 452.65625 1520.914062 452.011719 C 1520.558594 441.488281 1520.195312 430.964844 1519.828125 420.445312 C 1519.535156 412.003906 1519.242188 403.5625 1518.945312 395.121094 C 1518.847656 392.328125 1518.804688 389.527344 1518.632812 386.738281 C 1518.277344 381.007812 1518.433594 375.246094 1517.898438 369.527344 C 1517.832031 368.816406 1517.710938 368.285156 1517.339844 367.785156 C 1514.664062 364.140625 1511.886719 360.636719 1508.789062 357.546875 C 1508.5625 357.320312 1508.308594 357.128906 1507.941406 356.808594 Z M 1616.785156 410.152344 C 1616.808594 410.152344 1616.828125 410.152344 1616.851562 410.152344 C 1616.851562 409.332031 1616.84375 408.507812 1616.851562 407.683594 C 1616.886719 404.0625 1617.011719 400.441406 1616.941406 396.824219 C 1616.785156 389.144531 1616.527344 381.46875 1616.316406 373.792969 C 1616.28125 372.53125 1616.34375 371.257812 1616.234375 370.007812 C 1616.035156 367.777344 1615.859375 365.527344 1615.441406 363.355469 C 1615.195312 362.066406 1614.636719 360.785156 1613.988281 359.722656 C 1612.894531 357.929688 1611.648438 357.929688 1610.445312 359.585938 C 1609.953125 360.265625 1609.523438 361.082031 1609.257812 361.929688 C 1608.875 363.144531 1608.589844 364.425781 1608.390625 365.710938 C 1607.800781 369.496094 1607.679688 373.347656 1607.660156 377.183594 C 1607.617188 385.300781 1607.722656 393.425781 1607.75 401.546875 C 1607.792969 413.402344 1607.800781 425.253906 1607.859375 437.109375 C 1607.882812 441.167969 1607.984375 445.230469 1608.125 449.285156 C 1608.203125 451.480469 1608.597656 453.632812 1609.226562 455.695312 C 1609.6875 457.195312 1610.296875 458.601562 1611.3125 459.632812 C 1612.757812 461.101562 1614.261719 460.710938 1615.152344 458.667969 C 1615.671875 457.476562 1615.808594 456.183594 1615.816406 454.847656 C 1615.824219 454.140625 1615.886719 453.429688 1615.945312 452.730469 C 1616.011719 451.972656 1616.179688 451.222656 1616.179688 450.472656 C 1616.179688 445.3125 1616.050781 440.152344 1616.144531 435 C 1616.289062 426.714844 1616.566406 418.433594 1616.785156 410.152344 Z M 1629.621094 344.566406 C 1629.597656 345.195312 1629.570312 345.667969 1629.5625 346.140625 C 1629.503906 350.527344 1629.4375 354.917969 1629.386719 359.304688 C 1629.335938 364.351562 1629.269531 369.398438 1629.265625 374.445312 C 1629.265625 380.644531 1629.375 386.84375 1629.351562 393.039062 C 1629.335938 397.976562 1629.109375 402.914062 1629.128906 407.847656 C 1629.160156 416.296875 1629.304688 424.742188 1629.410156 433.191406 C 1629.421875 434.179688 1629.433594 435.167969 1629.503906 436.152344 C 1629.632812 437.96875 1629.910156 439.734375 1630.828125 441.242188 C 1631.609375 442.53125 1632.652344 443.132812 1633.925781 442.9375 C 1635.488281 442.699219 1636.753906 441.757812 1637.621094 440.105469 C 1638.324219 438.761719 1638.777344 437.292969 1638.976562 435.6875 C 1639.386719 432.351562 1639.265625 429.015625 1639.097656 425.671875 C 1638.871094 421.074219 1638.554688 416.480469 1638.445312 411.878906 C 1638.296875 405.683594 1638.273438 399.484375 1638.261719 393.289062 C 1638.246094 387.914062 1638.328125 382.539062 1638.351562 377.160156 C 1638.386719 370.355469 1638.402344 363.554688 1638.421875 356.75 C 1638.425781 355.050781 1638.398438 353.347656 1638.433594 351.648438 C 1638.453125 350.65625 1638.148438 350.003906 1637.4375 349.546875 C 1635.140625 348.066406 1632.855469 346.542969 1630.5625 345.042969 C 1630.300781 344.875 1630.011719 344.761719 1629.621094 344.566406 Z M 1722.402344 361.027344 C 1722.527344 365.332031 1722.667969 369.484375 1722.753906 373.640625 C 1722.855469 378.464844 1722.917969 383.292969 1722.980469 388.117188 C 1723.074219 395.191406 1723.152344 402.265625 1723.234375 409.339844 C 1723.351562 419.207031 1723.472656 429.078125 1723.59375 438.941406 C 1723.613281 440.535156 1723.660156 442.125 1723.6875 443.714844 C 1723.699219 444.625 1723.914062 445.40625 1724.40625 446.109375 C 1727.238281 450.160156 1730.117188 454.152344 1733.375 457.6875 C 1733.726562 458.070312 1734.109375 458.414062 1734.566406 458.867188 C 1734.417969 455.773438 1734.191406 452.875 1734.164062 449.984375 C 1734.101562 444.441406 1734.1875 438.90625 1734.152344 433.363281 C 1734.109375 426.132812 1734 418.898438 1733.929688 411.667969 C 1733.820312 400.480469 1733.714844 389.292969 1733.636719 378.101562 C 1733.628906 377.386719 1733.484375 376.847656 1733.117188 376.324219 C 1732.417969 375.339844 1731.757812 374.316406 1731.070312 373.320312 C 1728.460938 369.542969 1725.851562 365.769531 1723.234375 362 C 1723.007812 361.675781 1722.734375 361.414062 1722.402344 361.027344 Z M 1603.023438 463.992188 C 1603.804688 464.324219 1604.335938 464.585938 1604.882812 464.777344 C 1611.902344 467.257812 1618.773438 466.625 1625.515625 463.230469 C 1631.019531 460.457031 1635.730469 456.210938 1639.980469 451.113281 C 1643.785156 446.542969 1647.285156 441.621094 1650.773438 436.675781 C 1654.375 431.558594 1657.742188 426.214844 1660.738281 420.523438 C 1665.414062 411.644531 1670.074219 402.753906 1674.746094 393.855469 C 1673.539062 391.273438 1664.503906 378.175781 1663.359375 377.332031 C 1662.683594 378.347656 1661.992188 379.332031 1661.359375 380.375 C 1661.171875 380.6875 1661.0625 381.15625 1661.0625 381.554688 C 1661.089844 383.417969 1661.175781 385.28125 1661.230469 387.148438 C 1661.351562 391.3125 1661.539062 395.480469 1661.558594 399.648438 C 1661.570312 402.164062 1661.328125 404.6875 1660.691406 407.109375 C 1660.070312 409.492188 1659.164062 411.679688 1657.632812 413.351562 C 1655.132812 416.070312 1651.714844 415.648438 1649.785156 412.324219 C 1649.179688 411.28125 1648.777344 410.027344 1648.414062 408.808594 C 1648.117188 407.804688 1648.007812 406.714844 1647.777344 405.441406 C 1647.40625 406.066406 1647.125 406.539062 1646.839844 407.011719 C 1646.234375 408.019531 1645.714844 409.132812 1645.003906 410.007812 C 1643.371094 412.03125 1642.042969 414.34375 1640.707031 416.65625 C 1640.546875 416.933594 1640.441406 417.34375 1640.453125 417.683594 C 1640.5 419.160156 1640.621094 420.636719 1640.675781 422.117188 C 1640.808594 425.679688 1640.972656 429.238281 1641.027344 432.800781 C 1641.0625 434.949219 1640.683594 437.058594 1640.058594 439.0625 C 1639.222656 441.742188 1637.804688 443.75 1635.601562 444.765625 C 1632.539062 446.171875 1629.578125 444.464844 1628.445312 440.660156 C 1628.273438 440.074219 1628.121094 439.472656 1627.925781 438.75 C 1625.109375 443.628906 1621.925781 447.800781 1618.15625 451.359375 C 1618.183594 452.195312 1618.242188 453.070312 1618.246094 453.945312 C 1618.265625 456.289062 1617.902344 458.550781 1616.914062 460.550781 C 1615.429688 463.558594 1612.582031 464.238281 1610.292969 462.175781 C 1609.625 461.574219 1609.0625 460.792969 1608.402344 460.035156 C 1606.941406 461.738281 1605.195312 462.96875 1603.023438 463.992188 Z M 1593.941406 408.875 C 1594.707031 407.65625 1595.332031 406.671875 1595.945312 405.679688 C 1597.050781 403.902344 1598.128906 402.109375 1599.246094 400.335938 C 1601.03125 397.5 1602.796875 394.636719 1604.65625 391.875 C 1605.238281 391.007812 1605.492188 390.1875 1605.476562 389.074219 C 1605.4375 385.675781 1605.441406 382.273438 1605.476562 378.867188 C 1605.519531 374.589844 1605.652344 370.3125 1606.261719 366.085938 C 1606.617188 363.59375 1607.171875 361.164062 1608.421875 359.09375 C 1610.589844 355.503906 1613.921875 355.566406 1616.007812 359.234375 C 1616.238281 359.636719 1616.460938 360.058594 1616.605469 360.511719 C 1616.960938 361.628906 1617.269531 362.765625 1617.609375 363.894531 C 1617.691406 364.160156 1617.8125 364.40625 1617.960938 364.785156 C 1619.203125 362.863281 1620.246094 360.933594 1621.539062 359.316406 C 1623.304688 357.113281 1625.230469 355.101562 1627.152344 353.105469 C 1627.6875 352.550781 1627.917969 352.046875 1627.945312 351.203125 C 1628.011719 348.8125 1628.148438 346.421875 1628.261719 344.03125 C 1624.449219 343.339844 1622.816406 343.441406 1619.386719 344.417969 C 1614.359375 345.851562 1610.15625 349.097656 1606.4375 353.453125 C 1603.160156 357.296875 1600.277344 361.585938 1597.558594 366.035156 C 1590.570312 377.464844 1584.148438 389.394531 1577.59375 401.207031 C 1575.292969 405.355469 1573.210938 409.683594 1571.011719 413.917969 C 1570.179688 415.519531 1569.292969 417.082031 1568.394531 418.730469 C 1571.578125 425.148438 1574.667969 431.570312 1578.472656 437.507812 C 1579.578125 435.308594 1580.585938 433.199219 1581.683594 431.160156 C 1582.457031 429.730469 1582.789062 428.234375 1582.605469 426.523438 C 1582.542969 425.933594 1582.574219 425.320312 1582.570312 424.714844 C 1582.550781 419.0625 1582.484375 413.414062 1582.535156 407.761719 C 1582.5625 405.121094 1582.921875 402.503906 1584.023438 400.167969 C 1585.492188 397.046875 1587.929688 396.355469 1590.285156 398.425781 C 1590.878906 398.949219 1591.394531 399.671875 1591.824219 400.410156 C 1592.605469 401.753906 1593.070312 403.300781 1593.347656 404.925781 C 1593.558594 406.152344 1593.71875 407.394531 1593.941406 408.875 Z M 1486.605469 339.550781 C 1486.597656 339.652344 1486.585938 339.746094 1486.574219 339.84375 C 1487.03125 339.996094 1487.488281 340.167969 1487.949219 340.304688 C 1491.648438 341.378906 1495.171875 343.046875 1498.492188 345.339844 C 1504.726562 349.644531 1510.234375 355.160156 1515.351562 361.304688 C 1518.273438 364.808594 1520.835938 368.722656 1523.320312 372.699219 C 1528.730469 381.347656 1534.109375 390.023438 1539.476562 398.710938 C 1544.125 406.226562 1548.492188 413.988281 1552.417969 422.128906 C 1555.046875 427.578125 1557.652344 433.050781 1560.417969 438.394531 C 1564.296875 445.894531 1568.875 452.683594 1574.277344 458.566406 C 1577.679688 462.265625 1581.382812 465.382812 1585.664062 467.289062 C 1588.621094 468.601562 1591.6875 469.21875 1594.8125 469.519531 C 1598.691406 469.898438 1602.515625 469.519531 1606.570312 468.601562 C 1605.972656 468.375 1605.597656 468.242188 1605.226562 468.085938 C 1603.777344 467.476562 1602.289062 466.953125 1600.875 466.21875 C 1595.855469 463.609375 1591.582031 459.605469 1587.679688 454.949219 C 1582.875 449.203125 1578.601562 442.867188 1574.648438 436.203125 C 1573.527344 434.308594 1572.476562 432.34375 1571.429688 430.378906 C 1570.355469 428.371094 1569.257812 426.378906 1568.296875 424.285156 C 1567.371094 422.253906 1566.226562 420.40625 1565.285156 418.378906 C 1563.382812 414.304688 1561.25 410.398438 1559.199219 406.4375 C 1552.820312 394.136719 1545.84375 382.355469 1538.894531 370.550781 C 1536.03125 365.6875 1533.066406 360.929688 1529.667969 356.609375 C 1524.445312 349.976562 1518.246094 345.585938 1510.964844 343.550781 C 1505.988281 342.164062 1500.984375 341.023438 1495.914062 340.371094 C 1492.820312 339.96875 1489.707031 339.816406 1486.605469 339.550781 Z M 1745.359375 469.203125 C 1745.363281 469.113281 1745.367188 469.027344 1745.371094 468.9375 C 1744.71875 468.71875 1744.0625 468.511719 1743.414062 468.273438 C 1739.28125 466.785156 1735.742188 463.980469 1732.488281 460.554688 C 1729.558594 457.46875 1726.917969 454.015625 1724.394531 450.421875 C 1723.761719 449.515625 1723.171875 448.496094 1722.394531 447.839844 C 1721.46875 447.066406 1721.304688 445.769531 1720.703125 444.785156 C 1718.082031 440.519531 1715.472656 436.230469 1713.097656 431.753906 C 1709.046875 424.117188 1705.226562 416.289062 1701.210938 408.617188 C 1694.789062 396.359375 1688.320312 384.136719 1681.796875 371.960938 C 1679.5 367.675781 1677.09375 363.476562 1674.542969 359.429688 C 1670.757812 353.429688 1665.792969 349.539062 1659.902344 347.480469 C 1656.210938 346.195312 1652.441406 345.425781 1648.640625 344.921875 C 1645.238281 344.472656 1641.824219 344.082031 1638.414062 343.714844 C 1636.640625 343.519531 1634.863281 343.429688 1633.085938 343.292969 C 1633.359375 343.761719 1633.683594 344.007812 1634.019531 344.234375 C 1635.757812 345.410156 1637.574219 346.433594 1639.21875 347.78125 C 1642.042969 350.101562 1644.816406 352.523438 1647.507812 355.082031 C 1653.566406 360.847656 1659.097656 367.355469 1664.265625 374.339844 C 1670.652344 382.972656 1676.820312 391.855469 1682.039062 401.65625 C 1686.019531 409.144531 1689.746094 416.851562 1693.492188 424.539062 C 1697.375 432.507812 1701.210938 440.507812 1705.535156 448.121094 C 1708.285156 452.960938 1711.089844 457.738281 1714.53125 461.867188 C 1717.449219 465.375 1720.726562 468.148438 1724.675781 469.558594 C 1727.492188 470.566406 1730.367188 470.828125 1733.277344 470.824219 C 1736.757812 470.820312 1740.195312 470.214844 1743.628906 469.628906 C 1744.210938 469.53125 1744.78125 469.347656 1745.359375 469.203125 Z M 1673.253906 353.296875 C 1673.703125 352.675781 1674.09375 352.160156 1674.460938 351.621094 C 1679.863281 343.707031 1686.703125 339.1875 1694.957031 337.894531 C 1699.816406 337.132812 1704.675781 337.140625 1709.550781 337.542969 C 1715.257812 338.015625 1720.894531 339.066406 1726.46875 340.625 C 1731.210938 341.945312 1735.753906 343.921875 1739.804688 347.394531 C 1742.769531 349.941406 1745.308594 353.046875 1747.429688 356.640625 C 1749.851562 360.75 1752.125 364.992188 1754.492188 369.148438 C 1758.871094 376.832031 1763.285156 384.492188 1767.660156 392.183594 C 1768.769531 394.136719 1769.773438 396.183594 1770.828125 398.191406 C 1770.753906 398.265625 1770.675781 398.339844 1770.601562 398.417969 C 1770.34375 398.0625 1770.074219 397.714844 1769.824219 397.347656 C 1769.566406 396.976562 1769.320312 396.589844 1769.078125 396.199219 C 1762.339844 385.4375 1755.722656 374.5625 1749.605469 363.226562 C 1748.207031 360.640625 1746.652344 358.175781 1745.054688 355.769531 C 1740.820312 349.394531 1735.378906 345.386719 1729 343.277344 C 1725.257812 342.042969 1721.453125 341.238281 1717.621094 340.625 C 1713.085938 339.898438 1708.527344 339.5625 1703.960938 339.441406 C 1701.8125 339.382812 1699.660156 339.585938 1697.488281 339.859375 C 1698.140625 340.03125 1698.792969 340.199219 1699.441406 340.371094 C 1702.511719 341.179688 1705.402344 342.597656 1708.171875 344.421875 C 1714.707031 348.722656 1720.1875 354.679688 1725.183594 361.386719 C 1730.160156 368.066406 1734.550781 375.34375 1738.984375 382.574219 C 1740.90625 385.707031 1742.90625 388.796875 1744.570312 392.136719 C 1747.589844 398.203125 1751.203125 403.730469 1754.386719 409.644531 C 1755.332031 411.40625 1756.203125 413.238281 1757.109375 415.039062 C 1757.035156 415.117188 1756.960938 415.199219 1756.886719 415.28125 C 1756.53125 414.816406 1756.132812 414.390625 1755.824219 413.878906 C 1753.242188 409.582031 1750.671875 405.273438 1748.105469 400.957031 C 1747.273438 399.558594 1746.472656 398.136719 1745.519531 396.488281 C 1745.488281 397.117188 1745.453125 397.425781 1745.457031 397.738281 C 1745.570312 406.734375 1745.652344 415.738281 1745.824219 424.734375 C 1745.980469 433.074219 1746.265625 441.40625 1746.4375 449.742188 C 1746.488281 452.257812 1746.347656 454.785156 1746.300781 457.304688 C 1746.292969 457.613281 1746.296875 457.917969 1746.296875 458.621094 C 1749.566406 453.085938 1752.648438 447.867188 1755.71875 442.667969 C 1756.390625 443.105469 1756.292969 443.664062 1756.136719 444.183594 C 1755.59375 445.976562 1755.019531 447.75 1754.109375 449.328125 C 1753.492188 450.394531 1752.929688 451.507812 1752.324219 452.582031 C 1751.515625 454.015625 1750.691406 455.4375 1749.867188 456.855469 C 1749.503906 457.476562 1749.132812 458.089844 1748.738281 458.675781 C 1747.980469 459.8125 1747.21875 460.9375 1746.441406 462.046875 C 1745.660156 463.148438 1744.863281 464.226562 1743.96875 465.457031 C 1744.292969 465.632812 1744.464844 465.757812 1744.65625 465.824219 C 1749.644531 467.53125 1754.414062 466.820312 1758.882812 463.566406 C 1762.335938 461.046875 1764.933594 457.441406 1766.980469 453.179688 C 1767.789062 451.496094 1768.664062 449.859375 1769.65625 447.90625 C 1769.6875 448.550781 1769.738281 448.886719 1769.710938 449.210938 C 1769.546875 451.1875 1769.183594 453.074219 1768.425781 454.855469 C 1765.339844 462.085938 1760.714844 466.835938 1754.304688 468.78125 C 1754.050781 468.859375 1753.792969 468.941406 1753.546875 469.058594 C 1748.953125 471.265625 1744.101562 471.898438 1739.28125 472.699219 C 1736.9375 473.085938 1734.558594 473.25 1732.191406 473.300781 C 1724.398438 473.464844 1717.808594 469.929688 1712.316406 463.050781 C 1708.699219 458.515625 1705.65625 453.40625 1702.917969 448.035156 C 1698.367188 439.105469 1693.933594 430.078125 1689.484375 421.0625 C 1685.59375 413.171875 1681.75 405.234375 1677.292969 397.800781 C 1677.035156 397.367188 1676.757812 396.953125 1676.375 396.355469 C 1675.855469 397.175781 1675.351562 397.847656 1674.960938 398.609375 C 1671.472656 405.332031 1667.96875 412.042969 1664.539062 418.808594 C 1660.21875 427.320312 1655.265625 435.207031 1649.734375 442.535156 C 1646.089844 447.371094 1642.542969 452.320312 1638.503906 456.664062 C 1632.765625 462.828125 1626.296875 467.152344 1618.78125 468.824219 C 1616.96875 469.230469 1615.171875 469.730469 1613.359375 470.136719 C 1612.628906 470.300781 1611.878906 470.332031 1611.136719 470.417969 C 1610.917969 470.441406 1610.695312 470.402344 1610.476562 470.449219 C 1608.636719 470.8125 1606.796875 471.21875 1604.949219 471.5625 C 1597.847656 472.882812 1590.847656 472.546875 1584.050781 469.363281 C 1579.378906 467.167969 1575.390625 463.601562 1571.730469 459.421875 C 1571.25 458.871094 1570.769531 458.3125 1570.285156 457.75 C 1569.449219 458.691406 1568.695312 459.585938 1567.898438 460.421875 C 1567.398438 460.949219 1566.828125 461.363281 1566.304688 461.855469 C 1564.550781 463.503906 1562.875 465.296875 1561.039062 466.789062 C 1556.027344 470.863281 1550.558594 472.878906 1544.5 472.894531 C 1540.292969 472.910156 1536.078125 473.003906 1531.863281 473.074219 C 1529.011719 473.128906 1526.152344 473.082031 1523.296875 473.003906 C 1519.742188 472.902344 1516.195312 472.550781 1512.710938 471.570312 C 1507.316406 470.046875 1502.84375 466.515625 1498.980469 461.683594 C 1495.898438 457.824219 1493.257812 453.511719 1490.742188 449.070312 C 1487.648438 443.605469 1484.558594 438.132812 1481.410156 432.714844 C 1478.003906 426.855469 1474.441406 421.144531 1470.597656 415.507812 C 1471.136719 415.5625 1471.386719 416 1471.675781 416.300781 C 1475.136719 419.898438 1478.195312 423.960938 1480.816406 428.542969 C 1484.214844 434.484375 1487.609375 440.421875 1491.089844 446.285156 C 1493.886719 451.003906 1496.84375 455.558594 1500.113281 459.804688 C 1504.710938 465.785156 1510.261719 469.285156 1516.875 470.085938 C 1519.144531 470.355469 1521.425781 470.59375 1523.703125 470.65625 C 1527.261719 470.757812 1530.820312 470.703125 1534.378906 470.707031 C 1534.796875 470.707031 1535.214844 470.660156 1535.882812 470.621094 C 1534.605469 469.828125 1533.539062 469.207031 1532.496094 468.519531 C 1528.121094 465.609375 1524.265625 461.789062 1520.640625 457.621094 C 1517.3125 453.792969 1514.039062 449.875 1510.898438 445.8125 C 1503.496094 436.234375 1496.976562 425.769531 1491.335938 414.46875 C 1490.027344 411.847656 1488.957031 409.117188 1488.527344 405.871094 C 1489.101562 406.644531 1489.621094 407.308594 1490.105469 408.011719 C 1490.59375 408.714844 1491.101562 409.40625 1491.515625 410.175781 C 1493.898438 414.585938 1496.253906 419.015625 1498.632812 423.433594 C 1498.890625 423.917969 1499.207031 424.359375 1499.492188 424.816406 C 1499.578125 424.78125 1499.660156 424.738281 1499.746094 424.699219 C 1499.628906 423.371094 1499.507812 422.042969 1499.390625 420.714844 C 1499.34375 420.226562 1499.277344 419.738281 1499.261719 419.246094 C 1499.058594 413.492188 1498.875 407.734375 1498.664062 401.980469 C 1498.347656 393.15625 1497.984375 384.328125 1497.683594 375.503906 C 1497.445312 368.324219 1497.265625 361.140625 1497.085938 353.957031 C 1497.03125 351.824219 1497.078125 349.6875 1497.078125 347.589844 C 1495.207031 345.699219 1493.105469 345.910156 1491.015625 346.433594 C 1489.242188 346.875 1487.613281 347.871094 1486.042969 348.988281 C 1479.796875 353.414062 1474.613281 359.296875 1470.398438 366.570312 C 1467.878906 370.925781 1465.179688 375.121094 1462.621094 379.441406 C 1459.605469 384.53125 1456.246094 389.234375 1452.53125 393.527344 C 1450.558594 395.800781 1448.445312 397.847656 1445.953125 399.304688 C 1446.15625 399.011719 1446.335938 398.683594 1446.570312 398.4375 C 1449.199219 395.664062 1451.460938 392.441406 1453.746094 389.253906 C 1456.09375 385.988281 1458.375 382.652344 1460.605469 379.257812 C 1462.355469 376.585938 1463.984375 373.785156 1465.664062 371.039062 C 1468.292969 366.71875 1470.789062 362.257812 1473.832031 358.359375 C 1477.136719 354.128906 1480.886719 350.613281 1485.03125 347.757812 C 1486.921875 346.457031 1488.867188 345.320312 1491.070312 345.097656 C 1491.371094 345.070312 1491.664062 344.929688 1492.203125 344.769531 C 1491.65625 344.503906 1491.324219 344.328125 1490.984375 344.179688 C 1488.015625 342.902344 1484.953125 342.167969 1481.820312 342.0625 C 1479.675781 341.988281 1477.523438 342.144531 1475.375 342.269531 C 1474.867188 342.300781 1474.351562 342.5625 1473.871094 342.816406 C 1471.304688 344.167969 1468.957031 345.976562 1466.761719 348.113281 C 1462.894531 351.878906 1459.582031 356.339844 1456.378906 360.945312 C 1452.285156 366.832031 1448.136719 372.65625 1443.421875 377.789062 C 1440.605469 380.851562 1437.71875 383.8125 1434.863281 386.816406 C 1434.164062 387.554688 1433.457031 388.285156 1432.578125 388.871094 C 1432.703125 388.585938 1432.789062 388.253906 1432.964844 388.027344 C 1434.613281 385.820312 1436.210938 383.550781 1437.945312 381.457031 C 1444.046875 374.082031 1449.78125 366.292969 1455.160156 358.082031 C 1457.742188 354.128906 1460.574219 350.449219 1463.660156 347.078125 C 1470.28125 339.84375 1478.015625 336.542969 1486.757812 336.515625 C 1492.316406 336.5 1497.792969 337.335938 1503.265625 338.417969 C 1507.085938 339.175781 1510.875 340.089844 1514.574219 341.523438 C 1519.894531 343.582031 1524.667969 346.851562 1528.851562 351.460938 C 1532.730469 355.726562 1536.042969 360.632812 1539.121094 365.785156 C 1546.738281 378.539062 1554.324219 391.328125 1561.261719 404.695312 C 1562.957031 407.964844 1564.609375 411.269531 1566.285156 414.554688 C 1566.535156 415.050781 1566.800781 415.539062 1567.164062 416.234375 C 1567.976562 414.753906 1568.734375 413.484375 1569.402344 412.148438 C 1571.492188 407.960938 1573.410156 403.632812 1575.648438 399.574219 C 1581.347656 389.21875 1587.148438 378.953125 1592.988281 368.71875 C 1596 363.445312 1599.21875 358.359375 1602.882812 353.757812 C 1604.492188 351.742188 1606.1875 349.8125 1607.96875 348.039062 C 1612.8125 343.214844 1618.472656 341.121094 1624.566406 340.597656 C 1630.238281 340.113281 1635.894531 340.53125 1641.535156 341.210938 C 1645.644531 341.707031 1649.75 342.246094 1653.839844 342.921875 C 1657.328125 343.5 1660.734375 344.570312 1664.027344 346.167969 C 1666.964844 347.589844 1669.636719 349.542969 1672.054688 352.058594 C 1672.390625 352.410156 1672.730469 352.757812 1673.253906 353.296875 " fill-opacity="1" fill-rule="nonzero"/></g><g clip-path="url(#05c7bfd673)"><path fill="#231f20" d="M 945.023438 330.585938 C 945.167969 330.492188 945.3125 330.414062 945.445312 330.320312 C 945.195312 326.457031 944.9375 322.585938 944.671875 318.5 C 942.480469 320.84375 942.480469 320.84375 941.683594 324.382812 C 942.769531 326.394531 943.898438 328.488281 945.023438 330.585938 Z M 875.28125 322.351562 C 875.464844 326.507812 875.632812 330.15625 875.832031 334.652344 C 877.417969 332.152344 878.648438 330.226562 879.890625 328.265625 C 878.289062 326.207031 876.894531 324.425781 875.28125 322.351562 Z M 670.140625 507.804688 C 670.714844 500.488281 670.441406 484.25 669.675781 481.019531 C 667.304688 486.355469 665.050781 491.445312 662.734375 496.667969 C 665.246094 500.453125 667.558594 503.921875 670.140625 507.804688 Z M 590.117188 464.058594 C 591.179688 477.121094 592.164062 489.171875 593.210938 502.097656 C 596.988281 497.652344 599.183594 492.703125 601.925781 488.265625 C 598.050781 480.316406 594.289062 472.617188 590.117188 464.058594 Z M 911.929688 273.234375 C 915.546875 278.882812 919.230469 284.226562 922.546875 289.90625 C 927.441406 298.28125 932.074219 306.898438 936.832031 315.398438 C 937.390625 316.398438 938.046875 317.316406 938.851562 318.566406 C 940.328125 315.742188 941.535156 313.316406 942.847656 310.976562 C 943.882812 309.128906 944.304688 307.183594 944.269531 304.90625 C 944.183594 299.292969 943.96875 293.648438 944.304688 288.0625 C 944.6875 281.769531 945.347656 275.464844 946.386719 269.296875 C 947.371094 263.421875 949.863281 258.359375 953.410156 254.203125 C 958.929688 247.726562 968.511719 248.542969 972.75 257.773438 C 973.523438 259.464844 974.277344 261.175781 975.140625 263.085938 C 979.351562 255.332031 986.339844 252.636719 992.066406 247.34375 C 982.082031 241.78125 971.996094 239.058594 961.296875 238.957031 C 955.425781 238.902344 949.882812 239.792969 944.535156 242.65625 C 940.320312 244.910156 935.890625 246.800781 932.023438 249.800781 C 924.125 255.925781 917.730469 264.25 911.929688 273.234375 Z M 972.125 380.96875 C 972.339844 380.882812 972.5625 380.789062 972.777344 380.703125 C 972.675781 378.5625 972.605469 376.414062 972.460938 374.277344 C 971.871094 365.523438 970.789062 356.769531 970.753906 348.015625 C 970.675781 331.726562 971.191406 315.441406 971.476562 299.15625 C 971.621094 291.234375 972.058594 283.300781 971.859375 275.394531 C 971.742188 271.007812 971.011719 266.460938 969.804688 262.332031 C 967.414062 254.132812 960.53125 252.394531 955.707031 258.667969 C 954.082031 260.773438 952.890625 263.601562 952.023438 266.351562 C 949.789062 273.417969 949.289062 280.960938 949.289062 288.441406 C 949.296875 299.105469 949.574219 309.777344 950.019531 320.425781 C 950.292969 326.886719 951.15625 333.308594 951.648438 339.757812 C 951.871094 342.601562 952.792969 344.964844 954.039062 347.28125 C 959.519531 357.457031 964.917969 367.683594 970.359375 377.886719 C 970.917969 378.9375 971.535156 379.941406 972.125 380.96875 Z M 540.964844 565.152344 C 541.667969 565.710938 542.121094 566.15625 542.621094 566.472656 C 557.570312 575.6875 573.066406 578.523438 589.34375 572.898438 C 602.910156 568.210938 614.332031 558.984375 624.546875 547.15625 C 625.734375 545.785156 626.886719 544.304688 628.261719 543.292969 C 630.140625 541.886719 631.375 539.945312 632.421875 537.269531 C 622.546875 524.226562 613.824219 509.917969 605.523438 495.179688 C 605.402344 494.972656 605.128906 494.90625 604.855469 494.726562 C 603.953125 496.199219 602.832031 497.550781 602.179688 499.1875 C 600.542969 503.289062 598.023438 506.476562 595.402344 509.472656 C 593.816406 511.28125 593.457031 513.113281 593.601562 515.539062 C 593.808594 519.128906 594.015625 522.742188 593.929688 526.339844 C 593.75 533.992188 593.117188 541.585938 590.722656 548.765625 C 589.085938 553.65625 586.765625 557.898438 583.089844 560.75 C 578.738281 564.125 574.214844 564.597656 569.601562 561.640625 C 566.628906 559.738281 564.453125 556.816406 562.875 553.167969 C 562.351562 551.96875 561.820312 550.777344 561.1875 549.339844 C 555.386719 556.722656 548.523438 561.367188 540.964844 565.152344 Z M 564.359375 414.46875 C 564.167969 414.523438 563.964844 414.589844 563.765625 414.652344 C 563.929688 417.65625 564.246094 420.671875 564.246094 423.679688 C 564.265625 453.214844 564.246094 482.75 564.210938 512.292969 C 564.195312 521.21875 563.878906 530.167969 565.097656 539.027344 C 565.789062 544.046875 566.9375 548.871094 569.707031 552.792969 C 572.894531 557.289062 577.503906 557.675781 581.066406 553.699219 C 582.164062 552.464844 583.269531 551.019531 583.871094 549.382812 C 585.171875 545.878906 586.484375 542.28125 587.167969 538.554688 C 589.34375 526.769531 588.90625 514.769531 588.378906 502.828125 C 587.804688 489.738281 587.238281 476.652344 587.878906 463.546875 C 588.015625 460.667969 587.527344 458.21875 586.269531 455.835938 C 579.363281 442.710938 572.523438 429.546875 565.636719 416.40625 C 565.273438 415.710938 564.789062 415.105469 564.359375 414.46875 Z M 695.460938 539.265625 C 695.460938 536.507812 695.484375 534.789062 695.453125 533.066406 C 695.246094 518.089844 694.988281 503.109375 694.816406 488.121094 C 694.722656 479.332031 694.664062 470.535156 694.738281 461.738281 C 694.84375 449.195312 695.175781 436.664062 695.230469 424.117188 C 695.261719 417.339844 694.695312 410.597656 693.199219 404.035156 C 692.265625 399.976562 690.867188 396.214844 688.5 393.097656 C 684.636719 388 679.8125 388.566406 677.105469 394.75 C 675.964844 397.355469 675.144531 400.304688 674.65625 403.222656 C 673.207031 411.882812 673.207031 420.6875 673.421875 429.488281 C 673.59375 436.699219 673.765625 443.902344 673.925781 451.105469 C 674.335938 468.820312 674.742188 486.542969 675.117188 504.257812 C 675.1875 507.539062 675.132812 510.8125 675.132812 514.714844 C 680.910156 522.972656 687.566406 531.09375 695.460938 539.265625 Z M 850.628906 292.3125 C 850.324219 292.476562 850.03125 292.644531 849.730469 292.816406 C 849.671875 294.367188 849.609375 295.917969 849.558594 297.46875 C 848.855469 317.058594 848.070312 336.640625 847.476562 356.230469 C 847.03125 370.785156 846.6875 385.347656 846.601562 399.902344 C 846.570312 404.457031 847.324219 409.074219 848.078125 413.570312 C 848.496094 416.039062 849.40625 418.523438 850.503906 420.664062 C 853.234375 425.949219 857.886719 427.277344 862.285156 424.246094 C 865.171875 422.25 867.433594 419.402344 869.027344 415.765625 C 871.160156 410.882812 872.234375 405.597656 872.839844 400.140625 C 873.921875 390.222656 873.429688 380.285156 873.191406 370.339844 C 872.796875 353.765625 872.53125 337.191406 872.28125 320.621094 C 872.257812 319.242188 872.199219 318.105469 871.367188 317.109375 C 864.441406 308.855469 857.535156 300.578125 850.628906 292.3125 Z M 820.246094 263.703125 C 820.449219 318.542969 819.808594 372.234375 821.523438 426.90625 C 823.628906 423.859375 825.179688 421.597656 826.742188 419.351562 C 830.980469 413.269531 835.222656 407.191406 839.480469 401.132812 C 840.410156 399.796875 841.035156 398.445312 841.085938 396.535156 C 841.480469 379.960938 841.941406 363.394531 842.4375 346.828125 C 842.628906 340.34375 843.019531 333.867188 843.226562 327.382812 C 843.648438 314.429688 843.980469 301.460938 844.425781 288.507812 C 844.484375 286.847656 844.042969 285.785156 843.0625 284.828125 C 840.410156 282.273438 837.855469 279.566406 835.15625 277.089844 C 830.433594 272.75 825.636719 268.527344 820.246094 263.703125 Z M 559.652344 542.96875 C 559.371094 537.1875 558.976562 531.875 558.910156 526.554688 C 558.847656 521.511719 559.21875 516.472656 559.253906 511.429688 C 559.34375 497.730469 559.449219 484.035156 559.371094 470.335938 C 559.277344 453.035156 559.019531 435.738281 558.769531 418.4375 C 558.722656 414.984375 557.992188 411.472656 558.328125 408.105469 C 558.652344 404.859375 557.742188 402.703125 556.285156 400.371094 C 548.6875 388.207031 541.171875 375.964844 533.613281 363.753906 C 533.144531 363 532.570312 362.355469 531.566406 361.019531 C 531.679688 363.253906 531.6875 364.660156 531.832031 366.046875 C 532.21875 369.75 532.765625 373.441406 533.089844 377.167969 C 534.839844 397.535156 535.703125 417.972656 535.9375 438.457031 C 536.210938 462.679688 536.398438 486.902344 536.75 511.121094 C 536.972656 526.835938 537.417969 542.546875 535.84375 558.199219 C 535.808594 558.574219 536.003906 558.992188 536.089844 559.363281 C 543.253906 558.609375 548.539062 555.242188 559.652344 542.96875 Z M 529.613281 557.015625 C 529.945312 554.71875 530.230469 553.488281 530.28125 552.246094 C 530.546875 545.621094 530.964844 538.992188 530.949219 532.371094 C 530.898438 512.027344 530.503906 491.691406 530.5625 471.355469 C 530.632812 441.203125 530.613281 411.0625 528.226562 381.011719 C 527.429688 370.980469 526.679688 360.949219 524.25 351.246094 C 523.546875 348.460938 522.722656 345.867188 521.273438 343.535156 C 516.949219 336.582031 512.722656 329.550781 508.4375 322.566406 C 507.710938 321.378906 506.894531 320.28125 505.695312 318.539062 C 506.050781 326.808594 506.390625 334.140625 506.671875 341.472656 C 507.378906 360.195312 508.085938 378.921875 508.757812 397.65625 C 509.5625 419.988281 510.324219 442.320312 511.113281 464.65625 C 511.386719 472.429688 511.703125 480.214844 511.96875 487.992188 C 512.550781 504.695312 513.125 521.40625 513.65625 538.109375 C 513.71875 539.917969 513.929688 541.535156 515.140625 542.726562 C 519.757812 547.265625 524.359375 551.824219 529.613281 557.015625 Z M 447.585938 255.632812 C 447.960938 260.265625 448.371094 264.121094 448.5625 267.992188 C 449.058594 277.769531 449.476562 287.566406 449.890625 297.351562 C 450.589844 313.761719 451.292969 330.171875 451.945312 346.585938 C 452.664062 364.730469 453.375 382.878906 454.003906 401.03125 C 454.730469 422.042969 455.226562 443.070312 456.882812 464.023438 C 457.050781 466.121094 457.539062 467.921875 458.613281 469.542969 C 464 477.636719 469.355469 485.773438 474.738281 493.867188 C 475.289062 494.699219 476.007812 495.367188 476.992188 496.507812 C 476.992188 494.449219 477.035156 493.011719 476.984375 491.589844 C 476.582031 479.921875 476.175781 468.257812 475.75 456.589844 C 475.039062 436.855469 474.328125 417.117188 473.605469 397.382812 C 472.949219 379.238281 472.195312 361.089844 471.644531 342.945312 C 471.035156 322.917969 470.589844 302.882812 470.113281 282.847656 C 470.070312 281.144531 470.238281 279.386719 470.574219 277.742188 C 470.953125 275.875 470.445312 274.761719 469.253906 273.75 C 462.671875 268.164062 456.117188 262.527344 449.539062 256.917969 C 449.074219 256.523438 448.542969 256.257812 447.585938 255.632812 Z M 1071.257812 338.800781 C 1071.257812 340.992188 1071.242188 342.558594 1071.265625 344.121094 C 1071.417969 356.949219 1071.566406 369.773438 1071.730469 382.605469 C 1071.96875 401.046875 1072.234375 419.492188 1072.472656 437.933594 C 1072.699219 455.945312 1072.972656 473.945312 1073.132812 491.949219 C 1073.296875 511.078125 1074.09375 530.230469 1072.386719 549.578125 C 1077.160156 554.113281 1082.234375 558.28125 1088.273438 561.453125 C 1089.835938 559.535156 1091.421875 557.699219 1092.910156 555.738281 C 1094.410156 553.753906 1096.5 551.917969 1097.074219 549.539062 C 1097.632812 547.214844 1096.464844 544.296875 1096.304688 541.621094 C 1095.945312 535.4375 1095.558594 529.246094 1095.5 523.058594 C 1095.25 497.703125 1095.179688 472.339844 1094.925781 446.976562 C 1094.699219 423.917969 1094.332031 400.859375 1093.992188 377.800781 C 1093.972656 376.542969 1093.949219 375.085938 1093.457031 374.082031 C 1091.34375 369.792969 1089.261719 365.429688 1086.777344 361.484375 C 1082.5 354.691406 1077.925781 348.1875 1073.460938 341.582031 C 1072.894531 340.742188 1072.21875 340.007812 1071.257812 338.800781 Z M 730.027344 377.652344 C 725.089844 385.191406 720.566406 391.898438 716.230469 398.785156 C 712.453125 404.773438 708.363281 410.472656 705.453125 417.273438 C 704.371094 419.796875 702.941406 422.15625 701.390625 424.253906 C 700.171875 425.90625 699.796875 427.59375 699.789062 429.707031 C 699.710938 447.585938 699.46875 465.472656 699.503906 483.359375 C 699.53125 495.753906 699.957031 508.148438 700.113281 520.542969 C 700.207031 528.164062 700.128906 535.78125 700.128906 544.046875 C 703.507812 546.746094 707.234375 549.613281 710.855469 552.65625 C 713.574219 554.941406 716.554688 555.183594 719.496094 554.25 C 725.371094 552.390625 730.667969 548.988281 735.449219 543.984375 C 731.347656 531.832031 730.816406 519.050781 730.753906 506.183594 C 730.730469 501.421875 730.753906 496.660156 730.738281 491.898438 C 730.683594 461.609375 730.652344 431.320312 730.546875 401.023438 C 730.515625 393.542969 730.222656 386.066406 730.027344 377.652344 Z M 1034.429688 500.472656 C 1034.6875 500.328125 1034.945312 500.1875 1035.207031 500.042969 C 1035.207031 498.46875 1035.21875 496.898438 1035.207031 495.324219 C 1034.984375 467.503906 1034.761719 439.6875 1034.523438 411.867188 C 1034.328125 389.097656 1034.070312 366.320312 1033.921875 343.542969 C 1033.828125 329.417969 1033.914062 315.292969 1033.828125 301.167969 C 1033.796875 296.117188 1033.835938 291.105469 1035.011719 286 C 1027.507812 276.441406 1019.382812 267.882812 1010.195312 260.175781 C 1010.195312 261.449219 1010.179688 262.160156 1010.203125 262.863281 C 1010.375 270.925781 1010.640625 278.992188 1010.71875 287.054688 C 1010.933594 310.550781 1011.085938 334.046875 1011.25 357.542969 C 1011.378906 376.429688 1011.457031 395.316406 1011.617188 414.195312 C 1011.664062 420.097656 1011.972656 425.992188 1012.046875 431.894531 C 1012.152344 440.527344 1012.203125 449.164062 1012.175781 457.789062 C 1012.167969 460.085938 1012.757812 461.976562 1013.746094 463.816406 C 1017.761719 471.21875 1021.652344 478.722656 1025.742188 486.046875 C 1028.5 490.980469 1031.523438 495.667969 1034.429688 500.472656 Z M 788.328125 273.734375 C 787.367188 274.726562 786.714844 275.277344 786.175781 275.976562 C 783.753906 279.0625 781.363281 282.1875 778.96875 285.3125 C 777.695312 286.976562 776.367188 288.578125 775.207031 290.351562 C 773.519531 292.902344 771.953125 295.574219 770.34375 298.195312 C 768.730469 300.820312 766.941406 303.320312 765.578125 306.136719 C 764.667969 308.03125 763.847656 310.402344 763.878906 312.535156 C 764.101562 328.820312 764.359375 345.105469 764.960938 361.378906 C 765.714844 381.699219 765.628906 401.988281 764.988281 422.316406 C 764.105469 450.257812 763.777344 478.21875 763.230469 506.167969 C 763.160156 509.886719 763.222656 513.605469 763.222656 517.441406 C 763.804688 517.246094 764.078125 517.253906 764.234375 517.089844 C 765.039062 516.269531 765.84375 515.445312 766.589844 514.546875 C 774.242188 505.320312 781.496094 495.65625 787.230469 484.402344 C 787.804688 483.273438 788.136719 481.753906 788.140625 480.417969 C 788.207031 472.777344 788.199219 465.136719 788.097656 457.496094 C 787.890625 441.207031 787.394531 424.921875 787.402344 408.644531 C 787.410156 393.65625 788.035156 378.671875 788.15625 363.683594 C 788.234375 353.171875 787.78125 342.644531 787.820312 332.125 C 787.882812 314.402344 788.148438 296.671875 788.328125 278.949219 C 788.34375 277.398438 788.328125 275.847656 788.328125 273.734375 Z M 1007.019531 257.433594 C 1005.191406 256.054688 1002.980469 254.511719 1000.875 252.761719 C 999.367188 251.496094 998.027344 251.515625 996.367188 252.394531 C 989.390625 256.070312 983 260.78125 977.730469 267.710938 C 976.582031 269.226562 976.160156 270.632812 976.386719 272.703125 C 976.703125 275.542969 976.882812 278.453125 976.820312 281.316406 C 976.617188 290.25 976.144531 299.175781 976.023438 308.109375 C 975.765625 326.851562 975.578125 345.59375 975.542969 364.328125 C 975.527344 371.964844 975.921875 379.605469 976.246094 387.230469 C 976.308594 388.578125 976.761719 390.03125 977.34375 391.195312 C 986.617188 409.800781 995.945312 428.371094 1005.269531 446.9375 C 1005.792969 447.980469 1006.417969 448.957031 1007.285156 450.449219 C 1007.367188 448.957031 1007.445312 448.109375 1007.445312 447.261719 C 1007.472656 438.179688 1007.53125 429.101562 1007.5 420.023438 C 1007.464844 405.3125 1007.386719 390.597656 1007.292969 375.890625 C 1007.105469 346.183594 1006.871094 316.46875 1006.734375 286.761719 C 1006.691406 277.277344 1006.914062 267.789062 1007.019531 257.433594 Z M 473.5625 278.359375 C 474.027344 285.289062 474.582031 291.722656 474.882812 298.179688 C 475.476562 310.839844 475.945312 323.511719 476.441406 336.179688 C 476.726562 343.527344 476.949219 350.878906 477.238281 358.21875 C 478.0625 379.246094 478.9375 400.261719 479.726562 421.289062 C 480.324219 436.988281 480.804688 452.691406 481.351562 468.394531 C 481.578125 474.875 481.902344 481.351562 482.097656 487.835938 C 482.167969 490.246094 482.097656 492.683594 481.953125 495.085938 C 481.652344 499.976562 481.953125 504.371094 485.253906 508.027344 C 489.492188 512.710938 493.308594 517.957031 497.386719 522.855469 C 500.53125 526.632812 503.804688 530.238281 507.417969 534.382812 C 507.53125 531.976562 507.734375 530.273438 507.675781 528.585938 C 506.742188 500.925781 505.78125 473.265625 504.816406 445.609375 C 504.050781 423.429688 503.273438 401.238281 502.5 379.058594 C 502.242188 371.710938 502.125 364.351562 501.671875 357.019531 C 500.742188 341.960938 501.148438 326.816406 499.742188 311.785156 C 499.570312 309.921875 499.246094 308.527344 498.277344 307.207031 C 491.242188 297.632812 483.933594 288.421875 475.785156 280.296875 C 475.191406 279.703125 474.523438 279.199219 473.5625 278.359375 Z M 759.792969 418.566406 C 759.851562 418.566406 759.898438 418.566406 759.957031 418.566406 C 759.957031 416.40625 759.941406 414.246094 759.964844 412.074219 C 760.050781 402.5625 760.386719 393.039062 760.203125 383.53125 C 759.792969 363.347656 759.109375 343.175781 758.558594 322.996094 C 758.464844 319.679688 758.628906 316.332031 758.34375 313.050781 C 757.816406 307.191406 757.351562 301.273438 756.253906 295.566406 C 755.605469 292.183594 754.144531 288.816406 752.433594 286.015625 C 749.554688 281.304688 746.28125 281.304688 743.117188 285.664062 C 741.824219 287.445312 740.695312 289.589844 739.992188 291.816406 C 738.988281 295.011719 738.242188 298.378906 737.71875 301.753906 C 736.160156 311.707031 735.84375 321.824219 735.792969 331.90625 C 735.679688 353.25 735.957031 374.597656 736.03125 395.941406 C 736.136719 427.105469 736.160156 458.257812 736.316406 489.414062 C 736.375 500.085938 736.640625 510.757812 737.011719 521.414062 C 737.222656 527.1875 738.253906 532.835938 739.914062 538.257812 C 741.121094 542.203125 742.722656 545.898438 745.398438 548.613281 C 749.195312 552.46875 753.152344 551.445312 755.492188 546.070312 C 756.855469 542.949219 757.214844 539.542969 757.242188 536.03125 C 757.257812 534.171875 757.421875 532.3125 757.582031 530.46875 C 757.753906 528.480469 758.191406 526.511719 758.191406 524.535156 C 758.191406 510.980469 757.859375 497.414062 758.097656 483.871094 C 758.480469 462.097656 759.210938 440.332031 759.792969 418.566406 Z M 793.546875 246.183594 C 793.484375 247.832031 793.410156 249.074219 793.390625 250.316406 C 793.230469 261.851562 793.058594 273.390625 792.929688 284.921875 C 792.792969 298.1875 792.613281 311.449219 792.605469 324.710938 C 792.605469 341.007812 792.894531 357.300781 792.835938 373.585938 C 792.792969 386.5625 792.199219 399.539062 792.25 412.507812 C 792.328125 434.710938 792.714844 456.914062 792.988281 479.117188 C 793.023438 481.710938 793.050781 484.316406 793.230469 486.894531 C 793.570312 491.675781 794.300781 496.316406 796.714844 500.277344 C 798.765625 503.660156 801.515625 505.242188 804.863281 504.730469 C 808.96875 504.105469 812.300781 501.628906 814.582031 497.285156 C 816.425781 493.757812 817.617188 489.894531 818.144531 485.671875 C 819.226562 476.914062 818.902344 468.136719 818.464844 459.355469 C 817.871094 447.269531 817.039062 435.191406 816.75 423.097656 C 816.363281 406.820312 816.296875 390.527344 816.261719 374.238281 C 816.226562 360.113281 816.441406 345.984375 816.507812 331.851562 C 816.59375 313.96875 816.636719 296.089844 816.6875 278.203125 C 816.699219 273.734375 816.621094 269.261719 816.714844 264.796875 C 816.765625 262.1875 815.96875 260.472656 814.101562 259.273438 C 808.054688 255.378906 802.046875 251.382812 796.015625 247.4375 C 795.328125 246.992188 794.574219 246.699219 793.546875 246.183594 Z M 1037.53125 289.445312 C 1037.855469 300.765625 1038.226562 311.679688 1038.457031 322.601562 C 1038.722656 335.28125 1038.886719 347.964844 1039.054688 360.644531 C 1039.296875 379.246094 1039.5 397.835938 1039.722656 416.425781 C 1040.03125 442.363281 1040.34375 468.300781 1040.667969 494.234375 C 1040.71875 498.417969 1040.839844 502.589844 1040.90625 506.777344 C 1040.941406 509.167969 1041.5 511.214844 1042.800781 513.070312 C 1050.246094 523.71875 1057.820312 534.210938 1066.382812 543.5 C 1067.308594 544.507812 1068.316406 545.410156 1069.519531 546.597656 C 1069.132812 538.46875 1068.539062 530.855469 1068.457031 523.25 C 1068.300781 508.6875 1068.523438 494.132812 1068.429688 479.570312 C 1068.316406 460.5625 1068.027344 441.554688 1067.839844 422.546875 C 1067.5625 393.140625 1067.28125 363.734375 1067.074219 334.328125 C 1067.058594 332.445312 1066.679688 331.023438 1065.707031 329.652344 C 1063.871094 327.066406 1062.132812 324.375 1060.324219 321.753906 C 1053.460938 311.832031 1046.597656 301.914062 1039.714844 292.003906 C 1039.125 291.15625 1038.398438 290.460938 1037.53125 289.445312 Z M 723.601562 560.074219 C 725.65625 560.945312 727.050781 561.632812 728.484375 562.136719 C 746.949219 568.648438 765.019531 566.988281 782.75 558.0625 C 797.222656 550.78125 809.605469 539.617188 820.785156 526.214844 C 830.792969 514.210938 839.996094 501.269531 849.164062 488.273438 C 858.640625 474.828125 867.492188 460.785156 875.375 445.828125 C 887.671875 422.488281 899.917969 399.121094 912.207031 375.726562 C 909.035156 368.941406 885.273438 334.523438 882.265625 332.304688 C 880.492188 334.96875 878.667969 337.558594 877.003906 340.296875 C 876.507812 341.121094 876.21875 342.355469 876.226562 343.398438 C 876.300781 348.300781 876.523438 353.199219 876.664062 358.097656 C 876.980469 369.046875 877.476562 380 877.527344 390.957031 C 877.5625 397.570312 876.925781 404.199219 875.25 410.566406 C 873.613281 416.828125 871.230469 422.582031 867.203125 426.96875 C 860.636719 434.113281 851.640625 433.007812 846.5625 424.269531 C 844.976562 421.53125 843.921875 418.230469 842.960938 415.027344 C 842.179688 412.390625 841.898438 409.527344 841.289062 406.179688 C 840.3125 407.824219 839.570312 409.066406 838.824219 410.308594 C 837.230469 412.960938 835.859375 415.882812 833.992188 418.1875 C 829.699219 423.5 826.203125 429.574219 822.695312 435.65625 C 822.269531 436.390625 821.996094 437.460938 822.027344 438.359375 C 822.148438 442.242188 822.464844 446.121094 822.617188 450.011719 C 822.96875 459.371094 823.398438 468.726562 823.542969 478.089844 C 823.628906 483.742188 822.636719 489.277344 820.992188 494.550781 C 818.796875 501.585938 815.0625 506.871094 809.269531 509.535156 C 801.214844 513.234375 793.425781 508.746094 790.453125 498.75 C 789.996094 497.207031 789.597656 495.625 789.082031 493.722656 C 781.679688 506.546875 773.304688 517.511719 763.390625 526.871094 C 763.46875 529.058594 763.617188 531.367188 763.632812 533.664062 C 763.675781 539.824219 762.722656 545.761719 760.121094 551.027344 C 756.222656 558.933594 748.738281 560.722656 742.714844 555.300781 C 740.953125 553.71875 739.476562 551.660156 737.746094 549.667969 C 733.898438 554.152344 729.3125 557.382812 723.601562 560.074219 Z M 699.710938 415.207031 C 701.730469 412.003906 703.375 409.417969 704.988281 406.8125 C 707.890625 402.136719 710.730469 397.417969 713.660156 392.765625 C 718.355469 385.304688 723 377.78125 727.890625 370.519531 C 729.425781 368.242188 730.09375 366.089844 730.050781 363.167969 C 729.941406 354.226562 729.957031 345.285156 730.050781 336.339844 C 730.164062 325.09375 730.507812 313.847656 732.109375 302.746094 C 733.050781 296.191406 734.507812 289.804688 737.796875 284.363281 C 743.496094 274.933594 752.261719 275.101562 757.746094 284.738281 C 758.347656 285.792969 758.929688 286.90625 759.3125 288.089844 C 760.25 291.027344 761.0625 294.019531 761.960938 296.988281 C 762.167969 297.683594 762.484375 298.328125 762.878906 299.328125 C 766.144531 294.273438 768.886719 289.203125 772.289062 284.953125 C 776.929688 279.164062 781.996094 273.871094 787.050781 268.628906 C 788.457031 267.171875 789.066406 265.84375 789.132812 263.632812 C 789.3125 257.339844 789.671875 251.058594 789.964844 244.773438 C 779.945312 242.957031 775.644531 243.230469 766.632812 245.792969 C 753.410156 249.558594 742.355469 258.09375 732.578125 269.542969 C 723.957031 279.644531 716.382812 290.917969 709.222656 302.609375 C 690.851562 332.648438 673.960938 364.007812 656.722656 395.058594 C 650.679688 405.949219 645.203125 417.332031 639.414062 428.457031 C 637.226562 432.671875 634.898438 436.769531 632.539062 441.109375 C 640.910156 457.976562 649.027344 474.851562 659.035156 490.464844 C 661.945312 484.683594 664.59375 479.136719 667.476562 473.78125 C 669.511719 470.019531 670.386719 466.082031 669.90625 461.59375 C 669.738281 460.039062 669.820312 458.429688 669.8125 456.84375 C 669.761719 441.984375 669.589844 427.132812 669.726562 412.277344 C 669.789062 405.339844 670.738281 398.460938 673.628906 392.320312 C 677.492188 384.121094 683.902344 382.304688 690.097656 387.746094 C 691.664062 389.117188 693.015625 391.015625 694.148438 392.960938 C 696.203125 396.492188 697.429688 400.558594 698.152344 404.824219 C 698.707031 408.054688 699.128906 411.316406 699.710938 415.207031 Z M 417.457031 233.003906 C 417.429688 233.261719 417.398438 233.515625 417.371094 233.773438 C 418.578125 234.175781 419.777344 234.628906 420.988281 234.980469 C 430.71875 237.808594 439.976562 242.191406 448.714844 248.222656 C 465.109375 259.53125 479.589844 274.023438 493.042969 290.171875 C 500.726562 299.386719 507.46875 309.667969 514.007812 320.125 C 528.226562 342.851562 542.371094 365.660156 556.492188 388.488281 C 568.710938 408.242188 580.195312 428.640625 590.519531 450.042969 C 597.433594 464.367188 604.28125 478.75 611.554688 492.789062 C 621.761719 512.507812 633.792969 530.347656 648.007812 545.804688 C 656.953125 555.535156 666.6875 563.722656 677.953125 568.734375 C 685.726562 572.1875 693.789062 573.804688 702 574.601562 C 712.203125 575.59375 722.269531 574.59375 732.921875 572.1875 C 731.347656 571.585938 730.367188 571.242188 729.398438 570.832031 C 725.578125 569.222656 721.664062 567.851562 717.945312 565.921875 C 704.75 559.0625 693.507812 548.542969 683.25 536.296875 C 670.617188 521.199219 659.378906 504.550781 648.976562 487.03125 C 646.027344 482.054688 643.269531 476.882812 640.515625 471.726562 C 637.691406 466.449219 634.800781 461.214844 632.28125 455.707031 C 629.839844 450.363281 626.839844 445.511719 624.355469 440.183594 C 619.359375 429.476562 613.75 419.214844 608.351562 408.800781 C 591.574219 376.464844 573.234375 345.5 554.960938 314.480469 C 547.425781 301.699219 539.628906 289.1875 530.691406 277.835938 C 516.964844 260.398438 500.652344 248.867188 481.507812 243.519531 C 468.429688 239.871094 455.261719 236.875 441.929688 235.152344 C 433.796875 234.105469 425.613281 233.703125 417.457031 233.003906 Z M 1097.898438 573.769531 C 1097.914062 573.53125 1097.921875 573.300781 1097.929688 573.066406 C 1096.210938 572.492188 1094.488281 571.945312 1092.78125 571.328125 C 1081.917969 567.40625 1072.609375 560.039062 1064.050781 551.035156 C 1056.347656 542.917969 1049.40625 533.851562 1042.773438 524.398438 C 1041.105469 522.023438 1039.554688 519.335938 1037.511719 517.621094 C 1035.078125 515.582031 1034.644531 512.171875 1033.058594 509.585938 C 1026.175781 498.375 1019.3125 487.101562 1013.058594 475.339844 C 1002.40625 455.261719 992.363281 434.6875 981.800781 414.53125 C 964.917969 382.3125 947.910156 350.183594 930.75 318.183594 C 924.714844 306.925781 918.382812 295.882812 911.671875 285.246094 C 901.71875 269.476562 888.667969 259.25 873.167969 253.84375 C 863.464844 250.460938 853.558594 248.445312 843.5625 247.121094 C 834.613281 245.9375 825.636719 244.910156 816.664062 243.941406 C 812.003906 243.433594 807.324219 243.195312 802.652344 242.835938 C 803.375 244.0625 804.230469 244.71875 805.113281 245.3125 C 809.679688 248.402344 814.453125 251.085938 818.78125 254.632812 C 826.203125 260.730469 833.503906 267.101562 840.578125 273.820312 C 856.515625 288.972656 871.058594 306.078125 884.648438 324.441406 C 901.449219 347.132812 917.664062 370.46875 931.382812 396.234375 C 941.859375 415.917969 951.65625 436.175781 961.507812 456.375 C 971.714844 477.316406 981.808594 498.347656 993.179688 518.359375 C 1000.402344 531.078125 1007.78125 543.636719 1016.828125 554.488281 C 1024.5 563.707031 1033.125 570.996094 1043.503906 574.703125 C 1050.914062 577.34375 1058.480469 578.042969 1066.125 578.027344 C 1075.285156 578.011719 1084.316406 576.425781 1093.355469 574.890625 C 1094.875 574.625 1096.382812 574.140625 1097.898438 573.769531 Z M 908.289062 269.132812 C 909.464844 267.496094 910.492188 266.144531 911.453125 264.730469 C 925.660156 243.925781 943.652344 232.042969 965.363281 228.644531 C 978.140625 226.648438 990.917969 226.671875 1003.734375 227.726562 C 1018.746094 228.96875 1033.570312 231.726562 1048.222656 235.820312 C 1060.691406 239.296875 1072.636719 244.488281 1083.289062 253.621094 C 1091.09375 260.308594 1097.761719 268.472656 1103.347656 277.921875 C 1109.714844 288.714844 1115.695312 299.867188 1121.921875 310.789062 C 1133.433594 330.988281 1145.042969 351.117188 1156.542969 371.339844 C 1159.457031 376.472656 1162.101562 381.851562 1164.871094 387.121094 C 1164.679688 387.316406 1164.476562 387.515625 1164.28125 387.71875 C 1163.601562 386.785156 1162.898438 385.871094 1162.238281 384.910156 C 1161.554688 383.933594 1160.910156 382.921875 1160.269531 381.894531 C 1142.550781 353.601562 1125.15625 325.023438 1109.070312 295.226562 C 1105.394531 288.425781 1101.300781 281.949219 1097.101562 275.632812 C 1085.960938 258.878906 1071.660156 248.335938 1054.875 242.800781 C 1045.039062 239.554688 1035.03125 237.4375 1024.953125 235.820312 C 1013.03125 233.917969 1001.039062 233.035156 989.039062 232.710938 C 983.386719 232.558594 977.722656 233.089844 972.015625 233.816406 C 973.730469 234.261719 975.441406 234.707031 977.148438 235.152344 C 985.226562 237.277344 992.820312 241.011719 1000.109375 245.800781 C 1017.292969 257.113281 1031.710938 272.765625 1044.847656 290.386719 C 1057.925781 307.945312 1069.476562 327.074219 1081.136719 346.074219 C 1086.191406 354.3125 1091.445312 362.433594 1095.824219 371.214844 C 1103.765625 387.15625 1113.269531 401.683594 1121.640625 417.226562 C 1124.132812 421.855469 1126.414062 426.675781 1128.796875 431.40625 C 1128.605469 431.613281 1128.410156 431.832031 1128.214844 432.039062 C 1127.28125 430.816406 1126.234375 429.707031 1125.421875 428.363281 C 1118.632812 417.066406 1111.871094 405.734375 1105.121094 394.394531 C 1102.9375 390.71875 1100.828125 386.984375 1098.324219 382.648438 C 1098.238281 384.308594 1098.152344 385.117188 1098.15625 385.929688 C 1098.460938 409.585938 1098.667969 433.246094 1099.121094 456.890625 C 1099.535156 478.808594 1100.28125 500.703125 1100.734375 522.621094 C 1100.871094 529.234375 1100.503906 535.875 1100.375 542.496094 C 1100.355469 543.300781 1100.367188 544.105469 1100.367188 545.949219 C 1108.960938 531.410156 1117.066406 517.6875 1125.144531 504.019531 C 1126.910156 505.175781 1126.65625 506.640625 1126.242188 508.007812 C 1124.8125 512.714844 1123.304688 517.382812 1120.90625 521.527344 C 1119.285156 524.328125 1117.8125 527.257812 1116.21875 530.082031 C 1114.085938 533.851562 1111.925781 537.585938 1109.75 541.3125 C 1108.796875 542.941406 1107.828125 544.558594 1106.785156 546.101562 C 1104.796875 549.082031 1102.789062 552.039062 1100.742188 554.953125 C 1098.695312 557.855469 1096.59375 560.683594 1094.246094 563.925781 C 1095.097656 564.382812 1095.550781 564.714844 1096.046875 564.886719 C 1109.171875 569.375 1121.710938 567.507812 1133.464844 558.949219 C 1142.546875 552.332031 1149.371094 542.847656 1154.757812 531.652344 C 1156.886719 527.230469 1159.1875 522.929688 1161.800781 517.792969 C 1161.878906 519.488281 1162.007812 520.363281 1161.933594 521.21875 C 1161.511719 526.410156 1160.550781 531.371094 1158.554688 536.054688 C 1150.441406 555.054688 1138.28125 567.542969 1121.425781 572.65625 C 1120.757812 572.863281 1120.082031 573.078125 1119.4375 573.386719 C 1107.355469 579.183594 1094.589844 580.847656 1081.917969 582.953125 C 1075.753906 583.972656 1069.5 584.402344 1063.273438 584.539062 C 1042.777344 584.972656 1025.449219 575.671875 1011.011719 557.597656 C 1001.492188 545.675781 993.496094 532.25 986.296875 518.132812 C 974.328125 494.65625 962.664062 470.929688 950.96875 447.242188 C 940.730469 426.496094 930.621094 405.632812 918.90625 386.09375 C 918.230469 384.960938 917.5 383.875 916.496094 382.296875 C 915.125 384.457031 913.800781 386.222656 912.769531 388.222656 C 903.601562 405.894531 894.390625 423.535156 885.367188 441.316406 C 874.003906 463.683594 860.980469 484.410156 846.433594 503.675781 C 836.851562 516.386719 827.519531 529.398438 816.902344 540.808594 C 801.8125 557.007812 784.804688 568.375 765.039062 572.769531 C 760.273438 573.832031 755.542969 575.15625 750.777344 576.226562 C 748.859375 576.65625 746.882812 576.734375 744.933594 576.957031 C 744.359375 577.023438 743.769531 576.921875 743.203125 577.035156 C 738.355469 578 733.515625 579.0625 728.664062 579.964844 C 709.984375 583.441406 691.578125 582.558594 673.710938 574.183594 C 661.417969 568.410156 650.929688 559.039062 641.304688 548.054688 C 640.039062 546.609375 638.785156 545.144531 637.507812 543.667969 C 635.308594 546.136719 633.320312 548.492188 631.230469 550.6875 C 629.917969 552.066406 628.417969 553.160156 627.039062 554.453125 C 622.429688 558.78125 618.015625 563.5 613.191406 567.421875 C 600.011719 578.128906 585.632812 583.425781 569.695312 583.46875 C 558.636719 583.507812 547.546875 583.75 536.46875 583.945312 C 528.96875 584.082031 521.453125 583.957031 513.941406 583.75 C 504.589844 583.492188 495.269531 582.566406 486.101562 579.988281 C 471.917969 575.988281 460.15625 566.703125 449.992188 554 C 441.886719 543.859375 434.945312 532.523438 428.332031 520.851562 C 420.191406 506.492188 412.074219 492.105469 403.789062 477.867188 C 394.835938 462.464844 385.460938 447.457031 375.351562 432.640625 C 376.773438 432.777344 377.425781 433.933594 378.1875 434.722656 C 387.292969 444.183594 395.339844 454.851562 402.230469 466.902344 C 411.160156 482.511719 420.09375 498.117188 429.246094 513.527344 C 436.605469 525.929688 444.378906 537.898438 452.972656 549.058594 C 465.066406 564.777344 479.664062 573.984375 497.050781 576.082031 C 503.023438 576.800781 509.015625 577.417969 515.011719 577.589844 C 524.367188 577.855469 533.726562 577.710938 543.082031 577.71875 C 544.1875 577.71875 545.285156 577.597656 547.039062 577.496094 C 543.675781 575.414062 540.871094 573.777344 538.136719 571.964844 C 526.628906 564.320312 516.484375 554.28125 506.957031 543.320312 C 498.207031 533.261719 489.597656 522.972656 481.335938 512.292969 C 461.867188 487.109375 444.730469 459.613281 429.890625 429.90625 C 426.453125 423.019531 423.636719 415.847656 422.511719 407.308594 C 424.019531 409.339844 425.382812 411.09375 426.660156 412.9375 C 427.945312 414.78125 429.273438 416.605469 430.363281 418.625 C 436.632812 430.214844 442.828125 441.863281 449.082031 453.472656 C 449.761719 454.746094 450.589844 455.902344 451.34375 457.109375 C 451.566406 457.007812 451.785156 456.898438 452.007812 456.792969 C 451.699219 453.308594 451.386719 449.820312 451.078125 446.328125 C 450.953125 445.042969 450.773438 443.757812 450.730469 442.464844 C 450.199219 427.34375 449.71875 412.207031 449.167969 397.082031 C 448.328125 373.886719 447.371094 350.691406 446.589844 327.5 C 445.957031 308.628906 445.484375 289.742188 445.011719 270.863281 C 444.867188 265.261719 444.988281 259.644531 444.988281 254.132812 C 440.070312 249.164062 434.542969 249.714844 429.050781 251.085938 C 424.386719 252.25 420.097656 254.871094 415.972656 257.800781 C 399.554688 269.441406 385.914062 284.902344 374.835938 304.015625 C 368.203125 315.464844 361.109375 326.492188 354.375 337.847656 C 346.449219 351.226562 337.613281 363.582031 327.84375 374.863281 C 322.660156 380.839844 317.101562 386.222656 310.546875 390.050781 C 311.085938 389.285156 311.554688 388.414062 312.171875 387.769531 C 319.085938 380.488281 325.035156 372.011719 331.042969 363.640625 C 337.210938 355.050781 343.21875 346.285156 349.078125 337.367188 C 353.6875 330.34375 357.964844 322.980469 362.378906 315.757812 C 369.300781 304.40625 375.863281 292.679688 383.867188 282.429688 C 392.554688 271.316406 402.417969 262.074219 413.316406 254.578125 C 418.289062 251.152344 423.402344 248.164062 429.195312 247.582031 C 429.984375 247.503906 430.753906 247.136719 432.175781 246.714844 C 430.738281 246.015625 429.863281 245.558594 428.964844 245.167969 C 421.160156 241.808594 413.105469 239.878906 404.871094 239.605469 C 399.230469 239.410156 393.566406 239.820312 387.914062 240.148438 C 386.585938 240.230469 385.222656 240.917969 383.96875 241.578125 C 377.21875 245.132812 371.039062 249.894531 365.273438 255.503906 C 355.101562 265.398438 346.386719 277.132812 337.964844 289.230469 C 327.203125 304.707031 316.292969 320.015625 303.894531 333.503906 C 296.484375 341.550781 288.898438 349.328125 281.386719 357.226562 C 279.542969 359.167969 277.683594 361.089844 275.371094 362.628906 C 275.703125 361.882812 275.929688 361.011719 276.390625 360.410156 C 280.726562 354.613281 284.933594 348.648438 289.492188 343.140625 C 305.539062 323.757812 320.621094 303.292969 334.753906 281.707031 C 341.554688 271.316406 349 261.648438 357.109375 252.78125 C 374.519531 233.765625 394.863281 225.089844 417.851562 225.027344 C 432.46875 224.984375 446.875 227.179688 461.261719 230.023438 C 471.304688 232.015625 481.269531 234.417969 491 238.183594 C 504.988281 243.597656 517.546875 252.191406 528.542969 264.300781 C 538.746094 275.515625 547.460938 288.414062 555.550781 301.949219 C 575.589844 335.476562 595.539062 369.089844 613.773438 404.21875 C 618.230469 412.816406 622.582031 421.496094 626.988281 430.136719 C 627.648438 431.4375 628.339844 432.722656 629.300781 434.546875 C 631.441406 430.660156 633.429688 427.320312 635.1875 423.808594 C 640.679688 412.808594 645.726562 401.425781 651.605469 390.761719 C 666.601562 363.546875 681.851562 336.5625 697.207031 309.660156 C 705.125 295.800781 713.597656 282.429688 723.230469 270.339844 C 727.457031 265.039062 731.921875 259.96875 736.605469 255.308594 C 749.339844 242.628906 764.222656 237.125 780.253906 235.753906 C 795.171875 234.484375 810.039062 235.574219 824.875 237.363281 C 835.679688 238.664062 846.476562 240.085938 857.230469 241.867188 C 866.398438 243.382812 875.359375 246.1875 884.015625 250.390625 C 891.742188 254.132812 898.777344 259.257812 905.128906 265.878906 C 906.011719 266.796875 906.910156 267.710938 908.289062 269.132812 " fill-opacity="1" fill-rule="nonzero"/></g></svg>