<?xml version="1.0" encoding="utf-8"?>
<!-- Uploaded to: SVG Repo, www.svgrepo.com, Generator: SVG Repo Mixer Tools -->
<svg fill="#000000" height="800px" width="800px" version="1.1" id="_x31_" xmlns="http://www.w3.org/2000/svg" xmlns:xlink="http://www.w3.org/1999/xlink" 
	 viewBox="0 0 128 128" xml:space="preserve">
<path id="_x37_" d="M102.3,0.7c-8.1,0-16.5,5.6-20.7,9.1c-4.2-4.8-10.3-7.7-17.1-7.7c-6.8,0-12.9,2.9-17.2,7.7
	c-4.2-3.5-12.6-9.1-20.7-9.1C15.1,0.7,3.5,12.3,3.5,12.3s4.2,11.6,11.6,23.1s17.2,23.1,17.2,23.1l6.2-4v67.7c-1.6,0-2.9,1.3-2.9,2.9
	v2.9h20.2V82.7l0,0l4.3,45.3h8.7l4.3-45.3l0,0V128h20.2v-2.9c0-1.6-1.3-2.9-2.9-2.9V54.5l6.2,4c0,0,9.8-11.6,17.2-23.1
	s11.6-23.1,11.6-23.1S113.9,0.7,102.3,0.7z M50.1,31.1c1.6,0,2.9,1.3,2.9,2.9s-1.3,2.9-2.9,2.9s-2.9-1.3-2.9-2.9
	S48.5,31.1,50.1,31.1z M55.9,68.7c0,5.8-4.3,10.7-9.8,11.4c0,0-0.1,0-0.3,0c-0.9,0-1.4-0.6-1.4-1.4c0-0.6,0.4-1.2,1-1.3
	c2.9-1.3,4.8-4,4.8-7.4V54.2h5.8V68.7z M79,31.1c1.6,0,2.9,1.3,2.9,2.9s-1.3,2.9-2.9,2.9c-1.6,0-2.9-1.3-2.9-2.9S77.4,31.1,79,31.1z
	 M83.4,80.1h-0.3c-5.6-0.7-9.8-5.6-9.8-11.4V54.2H79V70c0,3.3,2,6.2,4.8,7.4c0.6,0.1,1,0.7,1,1.3C84.8,79.5,84.1,80.1,83.4,80.1z"/>
</svg>