<svg xmlns="http://www.w3.org/2000/svg" viewBox="0 0 200 200" width="200" height="200">
  <!-- Icosaedro con líneas gruesas - versión mejorada -->
  <g stroke="currentColor" stroke-width="4" fill="none" stroke-linecap="round" stroke-linejoin="round">
    <!-- Coordenadas del icosaedro (simplificado pero visible) -->
    <!-- Vértices superiores -->
    <path d="M 100 10 L 30 50 L 170 50 Z" />
    <path d="M 100 10 L 170 50 L 190 110 Z" />
    <path d="M 100 10 L 190 110 L 140 170 Z" />
    <path d="M 100 10 L 140 170 L 60 170 Z" />
    <path d="M 100 10 L 60 170 L 10 110 Z" />
    <path d="M 100 10 L 10 110 L 30 50 Z" />
    
    <!-- Caras del medio superior -->
    <path d="M 30 50 L 10 110 L 100 50 Z" />
    <path d="M 170 50 L 100 50 L 190 110 Z" />
    <path d="M 190 110 L 170 150 L 140 170 Z" />
    <path d="M 140 170 L 100 170 L 60 170 Z" />
    <path d="M 60 170 L 30 150 L 10 110 Z" />
    
    <!-- Caras del medio -->
    <path d="M 100 50 L 10 110 L 30 150 Z" />
    <path d="M 100 50 L 30 150 L 60 170 Z" />
    <path d="M 100 50 L 170 150 L 190 110 Z" />
    <path d="M 100 50 L 140 170 L 170 150 Z" />
    
    <!-- Caras inferiores -->
    <path d="M 30 150 L 10 110 L 100 190 Z" />
    <path d="M 100 190 L 10 110 L 190 110 Z" />
    <path d="M 100 190 L 190 110 L 170 150 Z" />
    <path d="M 170 150 L 100 190 L 60 170 Z" />
    <path d="M 60 170 L 30 150 L 100 190 Z" />
  </g>
</svg>
