<?xml version="1.0" encoding="UTF-8"?>
<svg width="1200pt" height="1200pt" version="1.1" viewBox="0 0 1200 1200" xmlns="http://www.w3.org/2000/svg">
 <path d="m572.57 396.57s-33.145-41.145-62.855-54.855c0 0 69.715-122.29 217.14-162.29 0 0 50.285 38.855 59.43 115.43 0 0 38.855 10.285 38.855 36.57l-46.859 22.855s-89.145-17.145-100.57-13.715c-11.43 3.4297-3.4297 44.57 6.8555 51.43 0 0-3.4297 13.715-10.285 19.43 0 0 22.855 46.855 82.285 21.715 0 0-33.145 70.855 50.285 89.145 0 0 48-13.715 54.855-77.715 0 0-56 4.5703-61.715 12.57 0 0-12.57-9.1445 33.145-17.145 0 0 6.8555-6.8555-18.285-28.57l17.145-1.1445 4.5703-48s105.14 24 131.43 105.14c0 0 58.285 168-70.855 531.43 0 0-85.715 17.145-142.86-3.4297 0 0-3.4297-52.57 4.5703-59.43l37.715-21.715s-74.285-130.29-51.43-154.29c0 0 21.715-20.57 27.43-33.145 0 0-32 16-44.57 16 0 0-14.855-59.43-43.43-101.71 0 0 68.57 285.71 40 364.57 0 0-192 54.855-181.71-26.285 0 0-1.1445-29.715 28.57-54.855 0 0-52.57-59.43-54.855-67.43 0 0-43.43-24-11.43-122.29 32-98.285 1.1445-2.2852 1.1445-2.2852s-218.29-200-77.715-357.71c-0.003907 0 55.996-66.285 144 21.715z"/>
 <path d="m693.71 365.71h108.57l20.57-9.1445s-9.1445 32-13.715 34.285c0 0-25.145 1.1445-38.855-8 0 0-26.285 20.57-34.285 21.715 0 0-38.855-17.141-42.285-38.855z"/>
 <path d="m780.57 397.71 6.8555 16s5.7148 9.1445-6.8555 9.1445h-9.1445v-20.57s4.5703-4.5703 6.8555-4.5703"/>
 <path d="m786.29 397.71 10.285 18.285 13.715-2.2852s-10.285-14.859-24-16z"/>
 <path d="m381.71 585.14s51.43 105.14 102.86 149.71l-8 66.285s-26.285-6.8555-28.57-4.5703c-2.2852 2.2852-73.145 141.71-72 149.71 0 0 24 10.285 24 18.285l2.2852 24s-126.86 12.57-163.43 0c0 0-38.855-43.43-8-137.14 0 0 54.855-61.715 56-82.285 0 0 10.285-35.43-6.8555-78.855-1.1445-2.2891-27.43-114.29 101.71-105.14z"/>
 <path d="m478.86 818.29s-1.1445 38.855 69.715 101.71c0 0-32 44.57-25.145 58.285l-32-4.5703s-21.715-68.57-21.715-75.43c0 0 16-14.855 18.285-22.855 0 0-57.145-34.285-35.43-57.145 5.7188-3.4297 26.289-3.4297 26.289 0z"/>
</svg>
